<svg width="1244" height="590" viewBox="0 0 1244 590" fill="none" xmlns="http://www.w3.org/2000/svg">
<path d="M180 8C180 12.4183 183.582 16 188 16C192.418 16 196 12.4183 196 8C196 3.58172 192.418 0 188 0C183.582 0 180 3.58172 180 8ZM1058 8C1058 12.4183 1061.58 16 1066 16C1070.42 16 1074 12.4183 1074 8C1074 3.58172 1070.42 0 1066 0C1061.58 0 1058 3.58172 1058 8ZM3.5 583V13H0.5V583H3.5ZM1243.5 583V13H1240.5V583H1243.5ZM7 589.5H1237V586.5H7V589.5ZM7 9.5H188V6.5H7V9.5ZM1066 9.5H1237V6.5H1066V9.5ZM1243.5 13C1243.5 9.41014 1240.59 6.5 1237 6.5V9.5C1238.93 9.5 1240.5 11.067 1240.5 13H1243.5ZM1240.5 583C1240.5 584.933 1238.93 586.5 1237 586.5V589.5C1240.59 589.5 1243.5 586.59 1243.5 583H1240.5ZM3.5 13C3.5 11.067 5.067 9.5 7 9.5V6.5C3.41015 6.5 0.5 9.41014 0.5 13H3.5ZM0.5 583C0.5 586.59 3.41015 589.5 7 589.5V586.5C5.067 586.5 3.5 584.933 3.5 583H0.5Z" fill="#13204F"/>
</svg>
