<svg width="1440" height="586" viewBox="0 0 1440 586" fill="none" xmlns="http://www.w3.org/2000/svg">
<g clip-path="url(#clip0_1035_316)">
<rect width="1440" height="586" fill="#1B1642"/>
<rect width="1440" height="586" fill="url(#paint0_linear_1035_316)" fill-opacity="0.15"/>
<rect width="1440" height="586" fill="url(#paint1_radial_1035_316)" fill-opacity="0.15"/>
<rect opacity="0.1" x="179" y="131" width="301" height="33" fill="#4690FF"/>
<g opacity="0.05">
<circle cx="727.378" cy="352.243" r="3.24324" transform="rotate(90 727.378 352.243)" fill="white"/>
<ellipse cx="727.378" cy="384.676" rx="3.24324" ry="3.24324" transform="rotate(90 727.378 384.676)" fill="white"/>
<ellipse cx="727.378" cy="417.108" rx="3.24324" ry="3.24324" transform="rotate(90 727.378 417.108)" fill="white"/>
<ellipse cx="727.378" cy="449.541" rx="3.24324" ry="3.24324" transform="rotate(90 727.378 449.541)" fill="white"/>
<ellipse cx="727.378" cy="481.973" rx="3.24324" ry="3.24324" transform="rotate(90 727.378 481.973)" fill="white"/>
<ellipse cx="727.378" cy="514.405" rx="3.24324" ry="3.24324" transform="rotate(90 727.378 514.405)" fill="white"/>
<ellipse cx="727.378" cy="546.838" rx="3.24325" ry="3.24324" transform="rotate(90 727.378 546.838)" fill="white"/>
<ellipse cx="727.378" cy="579.27" rx="3.24322" ry="3.24324" transform="rotate(90 727.378 579.27)" fill="white"/>
<ellipse cx="694.946" cy="352.243" rx="3.24324" ry="3.24324" transform="rotate(90 694.946 352.243)" fill="white"/>
<circle cx="694.946" cy="384.676" r="3.24324" transform="rotate(90 694.946 384.676)" fill="white"/>
<ellipse cx="694.946" cy="417.108" rx="3.24324" ry="3.24324" transform="rotate(90 694.946 417.108)" fill="white"/>
<ellipse cx="694.946" cy="449.541" rx="3.24324" ry="3.24324" transform="rotate(90 694.946 449.541)" fill="white"/>
<ellipse cx="694.946" cy="481.973" rx="3.24324" ry="3.24324" transform="rotate(90 694.946 481.973)" fill="white"/>
<ellipse cx="694.946" cy="514.405" rx="3.24324" ry="3.24324" transform="rotate(90 694.946 514.405)" fill="white"/>
<ellipse cx="694.946" cy="546.838" rx="3.24325" ry="3.24324" transform="rotate(90 694.946 546.838)" fill="white"/>
<ellipse cx="694.946" cy="579.27" rx="3.24322" ry="3.24324" transform="rotate(90 694.946 579.27)" fill="white"/>
<ellipse cx="662.514" cy="352.243" rx="3.24324" ry="3.24324" transform="rotate(90 662.514 352.243)" fill="white"/>
<ellipse cx="662.514" cy="384.676" rx="3.24324" ry="3.24324" transform="rotate(90 662.514 384.676)" fill="white"/>
<ellipse cx="662.514" cy="417.108" rx="3.24324" ry="3.24324" transform="rotate(90 662.514 417.108)" fill="white"/>
<ellipse cx="662.514" cy="449.541" rx="3.24324" ry="3.24324" transform="rotate(90 662.514 449.541)" fill="white"/>
<ellipse cx="662.514" cy="481.973" rx="3.24324" ry="3.24324" transform="rotate(90 662.514 481.973)" fill="white"/>
<ellipse cx="662.514" cy="514.405" rx="3.24324" ry="3.24324" transform="rotate(90 662.514 514.405)" fill="white"/>
<ellipse cx="662.514" cy="546.838" rx="3.24325" ry="3.24324" transform="rotate(90 662.514 546.838)" fill="white"/>
<ellipse cx="662.514" cy="579.27" rx="3.24322" ry="3.24324" transform="rotate(90 662.514 579.27)" fill="white"/>
<ellipse cx="630.081" cy="352.243" rx="3.24324" ry="3.24325" transform="rotate(90 630.081 352.243)" fill="white"/>
<ellipse cx="630.081" cy="384.676" rx="3.24324" ry="3.24325" transform="rotate(90 630.081 384.676)" fill="white"/>
<ellipse cx="630.081" cy="417.108" rx="3.24324" ry="3.24325" transform="rotate(90 630.081 417.108)" fill="white"/>
<ellipse cx="630.081" cy="449.541" rx="3.24324" ry="3.24325" transform="rotate(90 630.081 449.541)" fill="white"/>
<ellipse cx="630.081" cy="481.973" rx="3.24324" ry="3.24325" transform="rotate(90 630.081 481.973)" fill="white"/>
<ellipse cx="630.081" cy="514.405" rx="3.24324" ry="3.24325" transform="rotate(90 630.081 514.405)" fill="white"/>
<ellipse cx="630.081" cy="546.838" rx="3.24325" ry="3.24325" transform="rotate(90 630.081 546.838)" fill="white"/>
<ellipse cx="630.081" cy="579.27" rx="3.24322" ry="3.24325" transform="rotate(90 630.081 579.27)" fill="white"/>
<ellipse cx="597.649" cy="384.676" rx="3.24324" ry="3.24325" transform="rotate(90 597.649 384.676)" fill="white"/>
<ellipse cx="597.649" cy="417.108" rx="3.24324" ry="3.24325" transform="rotate(90 597.649 417.108)" fill="white"/>
<ellipse cx="597.649" cy="449.541" rx="3.24324" ry="3.24325" transform="rotate(90 597.649 449.541)" fill="white"/>
<ellipse cx="597.649" cy="481.973" rx="3.24324" ry="3.24325" transform="rotate(90 597.649 481.973)" fill="white"/>
<ellipse cx="597.649" cy="514.405" rx="3.24324" ry="3.24325" transform="rotate(90 597.649 514.405)" fill="white"/>
<circle cx="597.649" cy="546.838" r="3.24325" transform="rotate(90 597.649 546.838)" fill="white"/>
<ellipse cx="597.649" cy="579.27" rx="3.24322" ry="3.24325" transform="rotate(90 597.649 579.27)" fill="white"/>
<ellipse cx="565.216" cy="384.676" rx="3.24324" ry="3.24325" transform="rotate(90 565.216 384.676)" fill="white"/>
<ellipse cx="565.216" cy="417.108" rx="3.24324" ry="3.24325" transform="rotate(90 565.216 417.108)" fill="white"/>
<ellipse cx="565.216" cy="449.541" rx="3.24324" ry="3.24325" transform="rotate(90 565.216 449.541)" fill="white"/>
<ellipse cx="565.216" cy="481.973" rx="3.24324" ry="3.24325" transform="rotate(90 565.216 481.973)" fill="white"/>
<ellipse cx="565.216" cy="514.405" rx="3.24324" ry="3.24325" transform="rotate(90 565.216 514.405)" fill="white"/>
<circle cx="565.216" cy="546.838" r="3.24325" transform="rotate(90 565.216 546.838)" fill="white"/>
<ellipse cx="565.216" cy="579.27" rx="3.24322" ry="3.24325" transform="rotate(90 565.216 579.27)" fill="white"/>
<ellipse cx="532.784" cy="384.676" rx="3.24324" ry="3.24325" transform="rotate(90 532.784 384.676)" fill="white"/>
<ellipse cx="532.784" cy="417.108" rx="3.24324" ry="3.24325" transform="rotate(90 532.784 417.108)" fill="white"/>
<ellipse cx="532.784" cy="449.541" rx="3.24324" ry="3.24325" transform="rotate(90 532.784 449.541)" fill="white"/>
<ellipse cx="532.784" cy="481.973" rx="3.24324" ry="3.24325" transform="rotate(90 532.784 481.973)" fill="white"/>
<ellipse cx="532.784" cy="514.405" rx="3.24324" ry="3.24325" transform="rotate(90 532.784 514.405)" fill="white"/>
<circle cx="532.784" cy="546.838" r="3.24325" transform="rotate(90 532.784 546.838)" fill="white"/>
<ellipse cx="532.784" cy="579.27" rx="3.24322" ry="3.24325" transform="rotate(90 532.784 579.27)" fill="white"/>
<ellipse cx="500.351" cy="417.108" rx="3.24324" ry="3.24326" transform="rotate(90 500.351 417.108)" fill="white"/>
<ellipse cx="500.351" cy="449.541" rx="3.24324" ry="3.24326" transform="rotate(90 500.351 449.541)" fill="white"/>
<ellipse cx="500.351" cy="481.973" rx="3.24324" ry="3.24326" transform="rotate(90 500.351 481.973)" fill="white"/>
<ellipse cx="500.351" cy="514.405" rx="3.24324" ry="3.24326" transform="rotate(90 500.351 514.405)" fill="white"/>
<ellipse cx="500.351" cy="546.838" rx="3.24325" ry="3.24326" transform="rotate(90 500.351 546.838)" fill="white"/>
<ellipse cx="500.351" cy="579.27" rx="3.24322" ry="3.24326" transform="rotate(90 500.351 579.27)" fill="white"/>
<circle cx="467.919" cy="417.108" r="3.24324" transform="rotate(90 467.919 417.108)" fill="white"/>
<ellipse cx="467.919" cy="449.541" rx="3.24324" ry="3.24324" transform="rotate(90 467.919 449.541)" fill="white"/>
<circle cx="467.919" cy="481.973" r="3.24324" transform="rotate(90 467.919 481.973)" fill="white"/>
<circle cx="467.919" cy="514.405" r="3.24324" transform="rotate(90 467.919 514.405)" fill="white"/>
<ellipse cx="467.919" cy="546.838" rx="3.24325" ry="3.24324" transform="rotate(90 467.919 546.838)" fill="white"/>
<ellipse cx="467.919" cy="579.27" rx="3.24322" ry="3.24324" transform="rotate(90 467.919 579.27)" fill="white"/>
<ellipse cx="435.486" cy="449.541" rx="3.24324" ry="3.24326" transform="rotate(90 435.486 449.541)" fill="white"/>
<ellipse cx="435.486" cy="481.973" rx="3.24324" ry="3.24326" transform="rotate(90 435.486 481.973)" fill="white"/>
<ellipse cx="435.486" cy="514.405" rx="3.24324" ry="3.24326" transform="rotate(90 435.486 514.405)" fill="white"/>
<ellipse cx="435.486" cy="546.838" rx="3.24325" ry="3.24326" transform="rotate(90 435.486 546.838)" fill="white"/>
<ellipse cx="435.486" cy="579.27" rx="3.24322" ry="3.24326" transform="rotate(90 435.486 579.27)" fill="white"/>
</g>
<g opacity="0.05">
<circle r="3.24324" transform="matrix(0 -1 -1 0 906.378 124.757)" fill="white"/>
<ellipse rx="3.24324" ry="3.24324" transform="matrix(0 -1 -1 0 906.378 92.3244)" fill="white"/>
<ellipse rx="3.24324" ry="3.24324" transform="matrix(0 -1 -1 0 906.378 59.892)" fill="white"/>
<ellipse rx="3.24324" ry="3.24324" transform="matrix(0 -1 -1 0 906.378 27.4594)" fill="white"/>
<ellipse rx="3.24324" ry="3.24324" transform="matrix(0 -1 -1 0 873.946 124.757)" fill="white"/>
<circle r="3.24324" transform="matrix(0 -1 -1 0 873.946 92.3244)" fill="white"/>
<ellipse rx="3.24324" ry="3.24324" transform="matrix(0 -1 -1 0 873.946 59.892)" fill="white"/>
<ellipse rx="3.24324" ry="3.24324" transform="matrix(0 -1 -1 0 873.946 27.4594)" fill="white"/>
<ellipse rx="3.24324" ry="3.24324" transform="matrix(0 -1 -1 0 841.514 124.757)" fill="white"/>
<ellipse rx="3.24324" ry="3.24324" transform="matrix(0 -1 -1 0 841.514 92.3244)" fill="white"/>
<ellipse rx="3.24324" ry="3.24324" transform="matrix(0 -1 -1 0 841.514 59.892)" fill="white"/>
<ellipse rx="3.24324" ry="3.24324" transform="matrix(0 -1 -1 0 841.514 27.4594)" fill="white"/>
<ellipse rx="3.24324" ry="3.24325" transform="matrix(0 -1 -1 0 809.081 124.757)" fill="white"/>
<ellipse rx="3.24324" ry="3.24325" transform="matrix(0 -1 -1 0 809.081 92.3244)" fill="white"/>
<ellipse rx="3.24324" ry="3.24325" transform="matrix(0 -1 -1 0 809.081 59.892)" fill="white"/>
<ellipse rx="3.24324" ry="3.24325" transform="matrix(0 -1 -1 0 809.081 27.4594)" fill="white"/>
<ellipse rx="3.24324" ry="3.24325" transform="matrix(0 -1 -1 0 776.649 92.3244)" fill="white"/>
<ellipse rx="3.24324" ry="3.24325" transform="matrix(0 -1 -1 0 776.649 59.892)" fill="white"/>
<ellipse rx="3.24324" ry="3.24325" transform="matrix(0 -1 -1 0 776.649 27.4594)" fill="white"/>
<ellipse rx="3.24324" ry="3.24325" transform="matrix(0 -1 -1 0 744.216 92.3244)" fill="white"/>
<ellipse rx="3.24324" ry="3.24325" transform="matrix(0 -1 -1 0 744.216 59.892)" fill="white"/>
<ellipse rx="3.24324" ry="3.24325" transform="matrix(0 -1 -1 0 744.216 27.4594)" fill="white"/>
<ellipse rx="3.24324" ry="3.24325" transform="matrix(0 -1 -1 0 711.784 92.3244)" fill="white"/>
<ellipse rx="3.24324" ry="3.24325" transform="matrix(0 -1 -1 0 711.784 59.892)" fill="white"/>
<ellipse rx="3.24324" ry="3.24325" transform="matrix(0 -1 -1 0 711.784 27.4594)" fill="white"/>
<ellipse rx="3.24324" ry="3.24326" transform="matrix(0 -1 -1 0 679.351 59.892)" fill="white"/>
<ellipse rx="3.24324" ry="3.24326" transform="matrix(0 -1 -1 0 679.351 27.4594)" fill="white"/>
<circle r="3.24324" transform="matrix(0 -1 -1 0 646.919 59.892)" fill="white"/>
<ellipse rx="3.24324" ry="3.24324" transform="matrix(0 -1 -1 0 646.919 27.4594)" fill="white"/>
<ellipse rx="3.24324" ry="3.24326" transform="matrix(0 -1 -1 0 614.486 27.4594)" fill="white"/>
</g>
</g>
<defs>
<linearGradient id="paint0_linear_1035_316" x1="720" y1="-24.3853" x2="720" y2="549.504" gradientUnits="userSpaceOnUse">
<stop stop-color="#0DD3FF"/>
<stop offset="1" stop-color="#000744"/>
</linearGradient>
<radialGradient id="paint1_radial_1035_316" cx="0" cy="0" r="1" gradientUnits="userSpaceOnUse" gradientTransform="translate(1766 54.205) rotate(165.653) scale(999.161 518.716)">
<stop stop-color="#EA6CFF" stop-opacity="0.9"/>
<stop offset="1" stop-color="#EB6FFF" stop-opacity="0"/>
</radialGradient>
<clipPath id="clip0_1035_316">
<rect width="1440" height="586" fill="white"/>
</clipPath>
</defs>
</svg>
