<svg width="72" height="348" viewBox="0 0 72 348" fill="none" xmlns="http://www.w3.org/2000/svg">
<g opacity="0.25">
<path d="M61.0096 5.62976C59.4566 5.62976 58.1977 4.36951 58.1977 2.8149C58.1977 1.26029 59.4566 3.11875e-05 61.0096 3.11196e-05L63.4423 3.10133e-05C64.9952 3.09454e-05 66.2541 1.26029 66.2541 2.8149C66.2541 4.36951 64.9952 5.62976 63.4423 5.62976L61.0096 5.62976Z" fill="url(#paint0_linear_1514_2641)" fill-opacity="0.62"/>
<path d="M50.4665 5.62976C48.9136 5.62976 47.6547 4.36951 47.6547 2.8149C47.6547 1.2603 48.9136 3.16484e-05 50.4665 3.15805e-05L52.223 3.15037e-05C53.7759 3.14358e-05 55.0348 1.26029 55.0348 2.8149C55.0348 4.36951 53.7759 5.62976 52.223 5.62976L50.4665 5.62976Z" fill="url(#paint1_linear_1514_2641)" fill-opacity="0.62"/>
<path d="M32.965 5.62976C31.4121 5.62976 30.1532 4.36951 30.1532 2.8149C30.1532 1.2603 31.4121 3.24134e-05 32.965 3.23455e-05L41.6799 3.19645e-05C43.2329 3.18967e-05 44.4918 1.2603 44.4918 2.8149C44.4918 4.36951 43.2328 5.62976 41.6799 5.62976L32.965 5.62976Z" fill="url(#paint2_linear_1514_2641)" fill-opacity="0.62"/>
<path d="M22.4219 5.62976C20.869 5.62976 19.6101 4.36951 19.6101 2.8149C19.6101 1.2603 20.869 3.28742e-05 22.4219 3.28063e-05L24.1784 3.27296e-05C25.7314 3.26617e-05 26.9903 1.2603 26.9903 2.8149C26.9903 4.36951 25.7314 5.62976 24.1784 5.62976L22.4219 5.62976Z" fill="url(#paint3_linear_1514_2641)" fill-opacity="0.62"/>
<path d="M2.81183 5.62976C1.25889 5.62976 -7.21254e-06 4.36951 -7.2805e-06 2.8149C-7.34845e-06 1.2603 1.25889 3.37314e-05 2.81183 3.36635e-05L13.6353 3.31904e-05C15.1883 3.31225e-05 16.4472 1.2603 16.4472 2.8149C16.4472 4.36951 15.1883 5.62976 13.6353 5.62976L2.81183 5.62976Z" fill="url(#paint4_linear_1514_2641)" fill-opacity="0.62"/>
<path d="M63.1182 18.2254C61.5653 18.2254 60.3064 16.9652 60.3064 15.4106C60.3064 13.8559 61.5653 12.5957 63.1182 12.5957L67.9396 12.5957C69.4926 12.5957 70.7515 13.8559 70.7515 15.4106C70.7515 16.9652 69.4926 18.2254 67.9396 18.2254L63.1182 18.2254Z" fill="url(#paint5_linear_1514_2641)" fill-opacity="0.62"/>
<path d="M49.4122 18.2254C47.8593 18.2254 46.6004 16.9652 46.6004 15.4106C46.6004 13.8559 47.8593 12.5957 49.4122 12.5957L54.3316 12.5957C55.8845 12.5957 57.1434 13.8559 57.1434 15.4106C57.1434 16.9652 55.8845 18.2254 54.3316 18.2254L49.4122 18.2254Z" fill="url(#paint6_linear_1514_2641)" fill-opacity="0.62"/>
<path d="M40.8017 18.2254C39.346 18.2254 38.1659 17.0441 38.1659 15.5868L38.1659 15.2343C38.1659 13.777 39.346 12.5957 40.8017 12.5957C42.2574 12.5957 43.4374 13.777 43.4374 15.2343L43.4374 15.5868C43.4374 17.0441 42.2574 18.2254 40.8017 18.2254Z" fill="url(#paint7_linear_1514_2641)" fill-opacity="0.62"/>
<path d="M23.898 18.2254C22.345 18.2254 21.0861 16.9652 21.0861 15.4106C21.0861 13.8559 22.345 12.5957 23.898 12.5957L32.1912 12.5957C33.7441 12.5957 35.003 13.8559 35.003 15.4106C35.003 16.9652 33.7441 18.2254 32.1912 18.2254L23.898 18.2254Z" fill="url(#paint8_linear_1514_2641)" fill-opacity="0.62"/>
<path d="M13.3549 18.2254C11.802 18.2254 10.5431 16.9652 10.5431 15.4106C10.5431 13.8559 11.802 12.5957 13.3549 12.5957L15.1114 12.5957C16.6643 12.5957 17.9232 13.8559 17.9232 15.4106C17.9232 16.9652 16.6643 18.2254 15.1114 18.2254L13.3549 18.2254Z" fill="url(#paint9_linear_1514_2641)" fill-opacity="0.62"/>
<path d="M2.81183 18.2254C1.2589 18.2254 -6.66197e-06 16.9652 -6.72992e-06 15.4106C-6.79788e-06 13.856 1.2589 12.5957 2.81183 12.5957L4.56831 12.5957C6.12124 12.5957 7.38014 13.8559 7.38014 15.4106C7.38014 16.9652 6.12124 18.2254 4.56831 18.2254L2.81183 18.2254Z" fill="url(#paint10_linear_1514_2641)" fill-opacity="0.62"/>
<path d="M49.2013 30.8211C47.6484 30.8211 46.3895 29.5608 46.3895 28.0062C46.3895 26.4516 47.6484 25.1914 49.2013 25.1914L57.4945 25.1914C59.0475 25.1914 60.3064 26.4516 60.3064 28.0062C60.3064 29.5608 59.0475 30.8211 57.4945 30.8211L49.2013 30.8211Z" fill="url(#paint11_linear_1514_2641)" fill-opacity="0.62"/>
<path d="M38.6583 30.8211C37.1053 30.8211 35.8464 29.5608 35.8464 28.0062C35.8464 26.4516 37.1053 25.1914 38.6583 25.1914L40.4147 25.1914C41.9677 25.1914 43.2266 26.4516 43.2266 28.0062C43.2266 29.5608 41.9677 30.8211 40.4147 30.8211L38.6583 30.8211Z" fill="url(#paint12_linear_1514_2641)" fill-opacity="0.62"/>
<path d="M30.0477 30.8211C28.5921 30.8211 27.412 29.6397 27.412 28.1825L27.412 27.83C27.412 26.3727 28.5921 25.1914 30.0477 25.1914C31.5034 25.1914 32.6835 26.3727 32.6835 27.83L32.6835 28.1825C32.6835 29.6397 31.5034 30.8211 30.0477 30.8211Z" fill="url(#paint13_linear_1514_2641)" fill-opacity="0.62"/>
<path d="M16.5178 30.8211C14.9649 30.8211 13.706 29.5608 13.706 28.0062C13.706 26.4516 14.9649 25.1914 16.5178 25.1914L21.4372 25.1914C22.9902 25.1914 24.2491 26.4516 24.2491 28.0062C24.2491 29.5608 22.9902 30.8211 21.4372 30.8211L16.5178 30.8211Z" fill="url(#paint14_linear_1514_2641)" fill-opacity="0.62"/>
<path d="M2.81183 30.8211C1.2589 30.8211 -6.1114e-06 29.5608 -6.17935e-06 28.0062C-6.24731e-06 26.4516 1.2589 25.1914 2.81183 25.1914L7.73123 25.1914C9.28416 25.1914 10.5431 26.4516 10.5431 28.0062C10.5431 29.5608 9.28416 30.8211 7.73123 30.8211L2.81183 30.8211Z" fill="url(#paint15_linear_1514_2641)" fill-opacity="0.62"/>
<path d="M43.2923 43.4167C41.7394 43.4167 40.4805 42.1565 40.4805 40.6019C40.4805 39.0473 41.7394 37.787 43.2923 37.787L46.4525 37.787C48.0055 37.787 49.2644 39.0473 49.2644 40.6019C49.2644 42.1565 48.0055 43.4167 46.4525 43.4167L43.2923 43.4167Z" fill="url(#paint16_linear_1514_2641)" fill-opacity="0.62"/>
<path d="M25.5849 43.4167C24.0319 43.4167 22.773 42.1565 22.773 40.6019C22.773 39.0473 24.0319 37.787 25.5849 37.787L34.5057 37.787C36.0586 37.787 37.3175 39.0473 37.3175 40.6019C37.3175 42.1565 36.0586 43.4167 34.5057 43.4167L25.5849 43.4167Z" fill="url(#paint17_linear_1514_2641)" fill-opacity="0.62"/>
<path d="M15.0418 43.4167C13.4889 43.4167 12.23 42.1565 12.23 40.6019C12.23 39.0473 13.4889 37.787 15.0418 37.787L16.7983 37.787C18.3512 37.787 19.6101 39.0473 19.6101 40.6019C19.6101 42.1565 18.3512 43.4167 16.7983 43.4167L15.0418 43.4167Z" fill="url(#paint18_linear_1514_2641)" fill-opacity="0.62"/>
<path d="M2.81183 43.4167C1.2589 43.4167 -5.56082e-06 42.1565 -5.62878e-06 40.6019C-5.69673e-06 39.0473 1.2589 37.787 2.81183 37.787L6.2552 37.787C7.80813 37.787 9.06704 39.0473 9.06704 40.6019C9.06704 42.1565 7.80813 43.4167 6.2552 43.4167L2.81183 43.4167Z" fill="url(#paint19_linear_1514_2641)" fill-opacity="0.62"/>
<path d="M45.195 56.0124C43.642 56.0124 42.3831 54.7521 42.3831 53.1975C42.3831 51.6429 43.642 50.3827 45.195 50.3827L46.9515 50.3827C48.5044 50.3827 49.7633 51.6429 49.7633 53.1975C49.7633 54.7521 48.5044 56.0124 46.9515 56.0124L45.195 56.0124Z" fill="url(#paint20_linear_1514_2641)" fill-opacity="0.62"/>
<path d="M32.965 56.0124C31.4121 56.0124 30.1532 54.7521 30.1532 53.1975C30.1532 51.6429 31.4121 50.3827 32.965 50.3827L36.4084 50.3827C37.9613 50.3827 39.2202 51.6429 39.2202 53.1975C39.2202 54.7521 37.9613 56.0124 36.4084 56.0124L32.965 56.0124Z" fill="url(#paint21_linear_1514_2641)" fill-opacity="0.62"/>
<path d="M22.4219 56.0124C20.869 56.0124 19.6101 54.7521 19.6101 53.1975C19.6101 51.6429 20.869 50.3827 22.4219 50.3827L24.1784 50.3827C25.7314 50.3827 26.9903 51.6429 26.9903 53.1975C26.9903 54.7521 25.7314 56.0124 24.1784 56.0124L22.4219 56.0124Z" fill="url(#paint22_linear_1514_2641)" fill-opacity="0.62"/>
<path d="M2.81183 56.0124C1.2589 56.0124 -5.01025e-06 54.7521 -5.0782e-06 53.1975C-5.14616e-06 51.6429 1.2589 50.3827 2.81183 50.3827L13.6353 50.3827C15.1883 50.3827 16.4472 51.6429 16.4472 53.1975C16.4472 54.7521 15.1883 56.0124 13.6353 56.0124L2.81183 56.0124Z" fill="url(#paint23_linear_1514_2641)" fill-opacity="0.62"/>
<path d="M51.5208 68.6081C49.9679 68.6081 48.709 67.3478 48.709 65.7932C48.709 64.2386 49.9679 62.9783 51.5208 62.9783L55.513 62.9783C57.0659 62.9783 58.3248 64.2386 58.3248 65.7932C58.3248 67.3478 57.0659 68.6081 55.513 68.6081L51.5208 68.6081Z" fill="url(#paint24_linear_1514_2641)" fill-opacity="0.62"/>
<path d="M40.9778 68.6081C39.4248 68.6081 38.1659 67.3478 38.1659 65.7932C38.1659 64.2386 39.4248 62.9783 40.9777 62.9783L42.7342 62.9783C44.2872 62.9783 45.5461 64.2386 45.5461 65.7932C45.5461 67.3478 44.2872 68.6081 42.7342 68.6081L40.9778 68.6081Z" fill="url(#paint25_linear_1514_2641)" fill-opacity="0.62"/>
<path d="M23.898 68.6081C22.345 68.6081 21.0861 67.3478 21.0861 65.7932C21.0861 64.2386 22.345 62.9783 23.898 62.9783L32.1912 62.9783C33.7441 62.9783 35.003 64.2386 35.003 65.7932C35.003 67.3478 33.7441 68.6081 32.1912 68.6081L23.898 68.6081Z" fill="url(#paint26_linear_1514_2641)" fill-opacity="0.62"/>
<path d="M13.3549 68.6081C11.802 68.6081 10.5431 67.3478 10.5431 65.7932C10.5431 64.2386 11.802 62.9783 13.3549 62.9783L15.1114 62.9783C16.6643 62.9783 17.9232 64.2386 17.9232 65.7932C17.9232 67.3478 16.6643 68.6081 15.1114 68.6081L13.3549 68.6081Z" fill="url(#paint27_linear_1514_2641)" fill-opacity="0.62"/>
<path d="M2.81183 68.6081C1.2589 68.6081 -4.45968e-06 67.3478 -4.52763e-06 65.7932C-4.59558e-06 64.2386 1.2589 62.9783 2.81183 62.9783L4.56831 62.9783C6.12124 62.9783 7.38014 64.2386 7.38014 65.7932C7.38015 67.3478 6.12124 68.6081 4.56831 68.6081L2.81183 68.6081Z" fill="url(#paint28_linear_1514_2641)" fill-opacity="0.62"/>
<path d="M60.3721 81.2037C58.8191 81.2037 57.5602 79.9434 57.5602 78.3888C57.5602 76.8342 58.8191 75.574 60.3721 75.574L63.5323 75.574C65.0853 75.574 66.3442 76.8342 66.3442 78.3888C66.3442 79.9434 65.0853 81.2037 63.5323 81.2037L60.3721 81.2037Z" fill="url(#paint29_linear_1514_2641)" fill-opacity="0.62"/>
<path d="M42.6646 81.2037C41.1117 81.2037 39.8528 79.9434 39.8528 78.3888C39.8528 76.8342 41.1117 75.574 42.6646 75.574L51.5855 75.574C53.1384 75.574 54.3973 76.8342 54.3973 78.3888C54.3973 79.9434 53.1384 81.2037 51.5855 81.2037L42.6646 81.2037Z" fill="url(#paint30_linear_1514_2641)" fill-opacity="0.62"/>
<path d="M32.1216 81.2037C30.5686 81.2037 29.3097 79.9434 29.3097 78.3888C29.3097 76.8342 30.5686 75.574 32.1216 75.574L33.878 75.574C35.431 75.574 36.6899 76.8342 36.6899 78.3888C36.6899 79.9434 35.431 81.2037 33.878 81.2037L32.1216 81.2037Z" fill="url(#paint31_linear_1514_2641)" fill-opacity="0.62"/>
<path d="M15.0418 81.2037C13.4889 81.2037 12.23 79.9434 12.23 78.3888C12.23 76.8342 13.4889 75.574 15.0418 75.574L23.335 75.574C24.8879 75.574 26.1468 76.8342 26.1468 78.3888C26.1468 79.9434 24.8879 81.2037 23.335 81.2037L15.0418 81.2037Z" fill="url(#paint32_linear_1514_2641)" fill-opacity="0.62"/>
<path d="M2.81183 81.2037C1.2589 81.2037 -3.9091e-06 79.9435 -3.97706e-06 78.3888C-4.04501e-06 76.8342 1.2589 75.574 2.81183 75.574L6.2552 75.574C7.80813 75.574 9.06704 76.8342 9.06704 78.3888C9.06704 79.9434 7.80813 81.2037 6.2552 81.2037L2.81183 81.2037Z" fill="url(#paint33_linear_1514_2641)" fill-opacity="0.62"/>
<path d="M66.2811 93.7994C64.7282 93.7994 63.4693 92.5391 63.4693 90.9845C63.4693 89.4299 64.7282 88.1696 66.2811 88.1696L67.5334 88.1696C69.0863 88.1696 70.3453 89.4299 70.3453 90.9845C70.3453 92.5391 69.0864 93.7994 67.5334 93.7994L66.2811 93.7994Z" fill="url(#paint34_linear_1514_2641)" fill-opacity="0.62"/>
<path d="M49.2013 93.7994C47.6484 93.7994 46.3895 92.5391 46.3895 90.9845C46.3895 89.4299 47.6484 88.1696 49.2013 88.1696L57.4945 88.1696C59.0475 88.1696 60.3064 89.4299 60.3064 90.9845C60.3064 92.5391 59.0475 93.7994 57.4945 93.7994L49.2013 93.7994Z" fill="url(#paint35_linear_1514_2641)" fill-opacity="0.62"/>
<path d="M38.6583 93.7994C37.1053 93.7994 35.8464 92.5391 35.8464 90.9845C35.8464 89.4299 37.1053 88.1696 38.6583 88.1696L40.4147 88.1696C41.9677 88.1696 43.2266 89.4299 43.2266 90.9845C43.2266 92.5391 41.9677 93.7994 40.4147 93.7994L38.6583 93.7994Z" fill="url(#paint36_linear_1514_2641)" fill-opacity="0.62"/>
<path d="M30.0477 93.7994C28.5921 93.7994 27.412 92.618 27.412 91.1608L27.412 90.8082C27.412 89.351 28.5921 88.1696 30.0477 88.1696C31.5034 88.1696 32.6835 89.351 32.6835 90.8082L32.6835 91.1608C32.6835 92.618 31.5034 93.7994 30.0477 93.7994Z" fill="url(#paint37_linear_1514_2641)" fill-opacity="0.62"/>
<path d="M16.5178 93.7994C14.9649 93.7994 13.706 92.5391 13.706 90.9845C13.706 89.4299 14.9649 88.1696 16.5178 88.1696L21.4372 88.1696C22.9902 88.1696 24.2491 89.4299 24.2491 90.9845C24.2491 92.5391 22.9902 93.7994 21.4372 93.7994L16.5178 93.7994Z" fill="url(#paint38_linear_1514_2641)" fill-opacity="0.62"/>
<path d="M2.81183 93.7994C1.2589 93.7994 -3.35853e-06 92.5391 -3.42648e-06 90.9845C-3.49444e-06 89.4299 1.2589 88.1696 2.81183 88.1696L7.73123 88.1696C9.28416 88.1696 10.5431 89.4299 10.5431 90.9845C10.5431 92.5391 9.28417 93.7994 7.73123 93.7994L2.81183 93.7994Z" fill="url(#paint39_linear_1514_2641)" fill-opacity="0.62"/>
<path d="M60.3721 106.395C58.8191 106.395 57.5602 105.135 57.5602 103.58C57.5602 102.026 58.8191 100.765 60.3721 100.765L63.5323 100.765C65.0853 100.765 66.3442 102.026 66.3442 103.58C66.3442 105.135 65.0853 106.395 63.5323 106.395L60.3721 106.395Z" fill="url(#paint40_linear_1514_2641)" fill-opacity="0.62"/>
<path d="M42.6646 106.395C41.1117 106.395 39.8528 105.135 39.8528 103.58C39.8528 102.026 41.1117 100.765 42.6646 100.765L51.5855 100.765C53.1384 100.765 54.3973 102.026 54.3973 103.58C54.3973 105.135 53.1384 106.395 51.5855 106.395L42.6646 106.395Z" fill="url(#paint41_linear_1514_2641)" fill-opacity="0.62"/>
<path d="M32.1216 106.395C30.5686 106.395 29.3097 105.135 29.3097 103.58C29.3097 102.026 30.5686 100.765 32.1216 100.765L33.878 100.765C35.431 100.765 36.6899 102.026 36.6899 103.58C36.6899 105.135 35.431 106.395 33.878 106.395L32.1216 106.395Z" fill="url(#paint42_linear_1514_2641)" fill-opacity="0.62"/>
<path d="M15.0418 106.395C13.4889 106.395 12.23 105.135 12.23 103.58C12.23 102.026 13.4889 100.765 15.0418 100.765L23.335 100.765C24.8879 100.765 26.1468 102.026 26.1468 103.58C26.1468 105.135 24.8879 106.395 23.335 106.395L15.0418 106.395Z" fill="url(#paint43_linear_1514_2641)" fill-opacity="0.62"/>
<path d="M2.81183 106.395C1.2589 106.395 -2.80795e-06 105.135 -2.87591e-06 103.58C-2.94386e-06 102.026 1.2589 100.765 2.81183 100.765L6.2552 100.765C7.80814 100.765 9.06704 102.026 9.06704 103.58C9.06704 105.135 7.80814 106.395 6.2552 106.395L2.81183 106.395Z" fill="url(#paint44_linear_1514_2641)" fill-opacity="0.62"/>
<path d="M64.1725 118.991C62.6196 118.991 61.3607 117.73 61.3607 116.176C61.3607 114.621 62.6196 113.361 64.1725 113.361L69.0919 113.361C70.6448 113.361 71.9037 114.621 71.9037 116.176C71.9037 117.73 70.6448 118.991 69.0919 118.991L64.1725 118.991Z" fill="url(#paint45_linear_1514_2641)" fill-opacity="0.62"/>
<path d="M55.562 118.991C54.1063 118.991 52.9262 117.809 52.9262 116.352L52.9262 116C52.9262 114.542 54.1063 113.361 55.562 113.361C57.0177 113.361 58.1977 114.542 58.1977 116L58.1977 116.352C58.1977 117.809 57.0177 118.991 55.562 118.991Z" fill="url(#paint46_linear_1514_2641)" fill-opacity="0.62"/>
<path d="M45.195 118.991C43.642 118.991 42.3831 117.73 42.3831 116.176C42.3831 114.621 43.642 113.361 45.195 113.361L46.9515 113.361C48.5044 113.361 49.7633 114.621 49.7633 116.176C49.7633 117.73 48.5044 118.991 46.9515 118.991L45.195 118.991Z" fill="url(#paint47_linear_1514_2641)" fill-opacity="0.62"/>
<path d="M32.965 118.991C31.4121 118.991 30.1532 117.73 30.1532 116.176C30.1532 114.621 31.4121 113.361 32.965 113.361L36.4084 113.361C37.9613 113.361 39.2202 114.621 39.2202 116.176C39.2202 117.73 37.9613 118.991 36.4084 118.991L32.965 118.991Z" fill="url(#paint48_linear_1514_2641)" fill-opacity="0.62"/>
<path d="M22.4219 118.991C20.869 118.991 19.6101 117.73 19.6101 116.176C19.6101 114.621 20.869 113.361 22.4219 113.361L24.1784 113.361C25.7314 113.361 26.9903 114.621 26.9903 116.176C26.9903 117.73 25.7314 118.991 24.1784 118.991L22.4219 118.991Z" fill="url(#paint49_linear_1514_2641)" fill-opacity="0.62"/>
<path d="M2.81183 118.991C1.2589 118.991 -2.25738e-06 117.73 -2.32534e-06 116.176C-2.39329e-06 114.621 1.2589 113.361 2.81183 113.361L13.6354 113.361C15.1883 113.361 16.4472 114.621 16.4472 116.176C16.4472 117.73 15.1883 118.991 13.6354 118.991L2.81183 118.991Z" fill="url(#paint50_linear_1514_2641)" fill-opacity="0.62"/>
<path d="M64.2996 131.586C62.7466 131.586 61.4877 130.326 61.4877 128.771C61.4877 127.217 62.7466 125.957 64.2996 125.957L67.4598 125.957C69.0127 125.957 70.2716 127.217 70.2716 128.771C70.2716 130.326 69.0127 131.586 67.4598 131.586L64.2996 131.586Z" fill="url(#paint51_linear_1514_2641)" fill-opacity="0.62"/>
<path d="M51.5208 131.586C49.9679 131.586 48.709 130.326 48.709 128.771C48.709 127.217 49.9679 125.957 51.5208 125.957L55.513 125.957C57.0659 125.957 58.3248 127.217 58.3248 128.771C58.3248 130.326 57.0659 131.586 55.513 131.586L51.5208 131.586Z" fill="url(#paint52_linear_1514_2641)" fill-opacity="0.62"/>
<path d="M40.9778 131.586C39.4248 131.586 38.1659 130.326 38.1659 128.771C38.1659 127.217 39.4248 125.957 40.9778 125.957L42.7342 125.957C44.2872 125.957 45.5461 127.217 45.5461 128.771C45.5461 130.326 44.2872 131.586 42.7342 131.586L40.9778 131.586Z" fill="url(#paint53_linear_1514_2641)" fill-opacity="0.62"/>
<path d="M23.898 131.586C22.345 131.586 21.0861 130.326 21.0861 128.771C21.0861 127.217 22.345 125.957 23.898 125.957L32.1912 125.957C33.7441 125.957 35.003 127.217 35.003 128.771C35.003 130.326 33.7441 131.586 32.1912 131.586L23.898 131.586Z" fill="url(#paint54_linear_1514_2641)" fill-opacity="0.62"/>
<path d="M13.3549 131.586C11.802 131.586 10.5431 130.326 10.5431 128.771C10.5431 127.217 11.802 125.957 13.3549 125.957L15.1114 125.957C16.6643 125.957 17.9232 127.217 17.9232 128.771C17.9232 130.326 16.6643 131.586 15.1114 131.586L13.3549 131.586Z" fill="url(#paint55_linear_1514_2641)" fill-opacity="0.62"/>
<path d="M2.81184 131.586C1.2589 131.586 -1.70681e-06 130.326 -1.77476e-06 128.771C-1.84272e-06 127.217 1.2589 125.957 2.81183 125.957L4.56831 125.957C6.12125 125.957 7.38015 127.217 7.38015 128.771C7.38015 130.326 6.12125 131.586 4.56831 131.586L2.81184 131.586Z" fill="url(#paint56_linear_1514_2641)" fill-opacity="0.62"/>
<path d="M51.5208 144.182C49.9679 144.182 48.709 142.922 48.709 141.367C48.709 139.813 49.9679 138.552 51.5208 138.552L55.513 138.552C57.0659 138.552 58.3248 139.813 58.3248 141.367C58.3248 142.922 57.0659 144.182 55.513 144.182L51.5208 144.182Z" fill="url(#paint57_linear_1514_2641)" fill-opacity="0.62"/>
<path d="M40.9778 144.182C39.4248 144.182 38.1659 142.922 38.1659 141.367C38.1659 139.813 39.4248 138.552 40.9778 138.552L42.7342 138.552C44.2872 138.552 45.5461 139.813 45.5461 141.367C45.5461 142.922 44.2872 144.182 42.7342 144.182L40.9778 144.182Z" fill="url(#paint58_linear_1514_2641)" fill-opacity="0.62"/>
<path d="M23.898 144.182C22.345 144.182 21.0861 142.922 21.0861 141.367C21.0861 139.813 22.345 138.552 23.898 138.552L32.1912 138.552C33.7441 138.552 35.003 139.813 35.003 141.367C35.003 142.922 33.7441 144.182 32.1912 144.182L23.898 144.182Z" fill="url(#paint59_linear_1514_2641)" fill-opacity="0.62"/>
<path d="M13.3549 144.182C11.802 144.182 10.5431 142.922 10.5431 141.367C10.5431 139.813 11.802 138.552 13.3549 138.552L15.1114 138.552C16.6643 138.552 17.9232 139.813 17.9232 141.367C17.9232 142.922 16.6643 144.182 15.1114 144.182L13.3549 144.182Z" fill="url(#paint60_linear_1514_2641)" fill-opacity="0.62"/>
<path d="M2.81184 144.182C1.2589 144.182 -1.15623e-06 142.922 -1.22419e-06 141.367C-1.29214e-06 139.813 1.2589 138.552 2.81184 138.552L4.56831 138.552C6.12125 138.552 7.38015 139.813 7.38015 141.367C7.38015 142.922 6.12125 144.182 4.56831 144.182L2.81184 144.182Z" fill="url(#paint61_linear_1514_2641)" fill-opacity="0.62"/>
<path d="M50.4665 156.778C48.9136 156.778 47.6547 155.517 47.6547 153.963C47.6547 152.408 48.9136 151.148 50.4665 151.148L52.223 151.148C53.7759 151.148 55.0348 152.408 55.0348 153.963C55.0348 155.517 53.7759 156.778 52.223 156.778L50.4665 156.778Z" fill="url(#paint62_linear_1514_2641)" fill-opacity="0.62"/>
<path d="M32.965 156.778C31.4121 156.778 30.1532 155.517 30.1532 153.963C30.1532 152.408 31.4121 151.148 32.965 151.148L41.6799 151.148C43.2329 151.148 44.4918 152.408 44.4918 153.963C44.4918 155.517 43.2329 156.778 41.6799 156.778L32.965 156.778Z" fill="url(#paint63_linear_1514_2641)" fill-opacity="0.62"/>
<path d="M22.4219 156.778C20.869 156.778 19.6101 155.517 19.6101 153.963C19.6101 152.408 20.869 151.148 22.4219 151.148L24.1784 151.148C25.7314 151.148 26.9903 152.408 26.9903 153.963C26.9903 155.517 25.7314 156.778 24.1784 156.778L22.4219 156.778Z" fill="url(#paint64_linear_1514_2641)" fill-opacity="0.62"/>
<path d="M2.81184 156.778C1.2589 156.778 -6.05661e-07 155.517 -6.73615e-07 153.963C-7.41569e-07 152.408 1.2589 151.148 2.81184 151.148L13.6354 151.148C15.1883 151.148 16.4472 152.408 16.4472 153.963C16.4472 155.517 15.1883 156.778 13.6354 156.778L2.81184 156.778Z" fill="url(#paint65_linear_1514_2641)" fill-opacity="0.62"/>
<path d="M52.6047 169.373C51.0518 169.373 49.7929 168.113 49.7929 166.558C49.7929 165.004 51.0518 163.744 52.6047 163.744L53.9657 163.744C55.5186 163.744 56.7775 165.004 56.7775 166.558C56.7775 168.113 55.5186 169.373 53.9657 169.373L52.6047 169.373Z" fill="url(#paint66_linear_1514_2641)" fill-opacity="0.62"/>
<path d="M43.9942 169.373C42.5385 169.373 41.3584 168.192 41.3584 166.735L41.3584 166.382C41.3584 164.925 42.5385 163.744 43.9942 163.744C45.4499 163.744 46.63 164.925 46.63 166.382L46.63 166.735C46.63 168.192 45.4499 169.373 43.9942 169.373Z" fill="url(#paint67_linear_1514_2641)" fill-opacity="0.62"/>
<path d="M32.5511 169.373C30.9981 169.373 29.7392 168.113 29.7392 166.558C29.7392 165.004 30.9981 163.744 32.5511 163.744L35.3837 163.744C36.9366 163.744 38.1955 165.004 38.1955 166.558C38.1955 168.113 36.9366 169.373 35.3837 169.373L32.5511 169.373Z" fill="url(#paint68_linear_1514_2641)" fill-opacity="0.62"/>
<path d="M19.0095 169.373C17.4566 169.373 16.1977 168.113 16.1977 166.558C16.1977 165.004 17.4566 163.744 19.0095 163.744L23.7645 163.744C25.3174 163.744 26.5763 165.004 26.5763 166.558C26.5763 168.113 25.3174 169.373 23.7645 169.373L19.0095 169.373Z" fill="url(#paint69_linear_1514_2641)" fill-opacity="0.62"/>
<path d="M2.81183 169.373C1.2589 169.373 -5.50877e-08 168.113 -1.23042e-07 166.558C-1.90996e-07 165.004 1.2589 163.744 2.81184 163.744L10.2229 163.744C11.7758 163.744 13.0347 165.004 13.0347 166.558C13.0347 168.113 11.7758 169.373 10.2229 169.373L2.81183 169.373Z" fill="url(#paint70_linear_1514_2641)" fill-opacity="0.62"/>
</g>
<g opacity="0.25">
<path d="M61.0913 184.005C59.5362 184.005 58.2757 182.744 58.2757 181.189C58.2757 179.634 59.5362 178.374 61.0913 178.374L63.5272 178.374C65.0822 178.374 66.3428 179.634 66.3428 181.189C66.3428 182.744 65.0822 184.005 63.5272 184.005L61.0913 184.005Z" fill="#7382A4" fill-opacity="0.62"/>
<path d="M50.5341 184.005C48.9791 184.005 47.7185 182.744 47.7185 181.189C47.7185 179.634 48.9791 178.374 50.5341 178.374L52.2929 178.374C53.8479 178.374 55.1085 179.634 55.1085 181.189C55.1085 182.744 53.8479 184.005 52.2929 184.005L50.5341 184.005Z" fill="#7382A4" fill-opacity="0.62"/>
<path d="M33.0091 184.005C31.4541 184.005 30.1935 182.744 30.1935 181.189C30.1935 179.634 31.4541 178.374 33.0091 178.374L41.7357 178.374C43.2907 178.374 44.5513 179.634 44.5513 181.189C44.5513 182.744 43.2907 184.005 41.7357 184.005L33.0091 184.005Z" fill="#7382A4" fill-opacity="0.62"/>
<path d="M22.452 184.005C20.8969 184.005 19.6364 182.744 19.6364 181.189C19.6364 179.634 20.8969 178.374 22.452 178.374L24.2108 178.374C25.7658 178.374 27.0264 179.634 27.0264 181.189C27.0264 182.744 25.7658 184.005 24.2108 184.005L22.452 184.005Z" fill="#7382A4" fill-opacity="0.62"/>
<path d="M2.81559 184.005C1.26058 184.005 -7.21418e-06 182.744 -7.28215e-06 181.189C-7.35012e-06 179.634 1.26058 178.374 2.81559 178.374L13.6536 178.374C15.2086 178.374 16.4692 179.634 16.4692 181.189C16.4692 182.744 15.2086 184.005 13.6536 184.005L2.81559 184.005Z" fill="#7382A4" fill-opacity="0.62"/>
<path d="M63.2027 196.603C61.6477 196.603 60.3871 195.343 60.3871 193.788C60.3871 192.233 61.6477 190.972 63.2027 190.972L68.0306 190.972C69.5856 190.972 70.8462 192.233 70.8462 193.788C70.8462 195.343 69.5856 196.603 68.0306 196.603L63.2027 196.603Z" fill="#7382A4" fill-opacity="0.62"/>
<path d="M49.4784 196.603C47.9233 196.603 46.6628 195.343 46.6628 193.788C46.6628 192.233 47.9233 190.972 49.4784 190.972L54.4043 190.972C55.9594 190.972 57.2199 192.233 57.2199 193.788C57.2199 195.343 55.9594 196.603 54.4043 196.603L49.4784 196.603Z" fill="#7382A4" fill-opacity="0.62"/>
<path d="M40.8563 196.603C39.3987 196.603 38.217 195.422 38.217 193.964L38.217 193.611C38.217 192.154 39.3987 190.972 40.8563 190.972C42.3139 190.972 43.4956 192.154 43.4956 193.611L43.4956 193.964C43.4956 195.422 42.3139 196.603 40.8563 196.603Z" fill="#7382A4" fill-opacity="0.62"/>
<path d="M23.93 196.603C22.375 196.603 21.1144 195.343 21.1144 193.788C21.1144 192.233 22.375 190.972 23.93 190.972L32.2342 190.972C33.7893 190.972 35.0498 192.233 35.0498 193.788C35.0498 195.343 33.7893 196.603 32.2342 196.603L23.93 196.603Z" fill="#7382A4" fill-opacity="0.62"/>
<path d="M13.3728 196.603C11.8178 196.603 10.5572 195.343 10.5572 193.788C10.5572 192.233 11.8178 190.972 13.3728 190.972L15.1316 190.972C16.6866 190.972 17.9472 192.233 17.9472 193.788C17.9472 195.343 16.6866 196.603 15.1316 196.603L13.3728 196.603Z" fill="#7382A4" fill-opacity="0.62"/>
<path d="M2.81559 196.603C1.26058 196.603 -6.66349e-06 195.343 -6.73146e-06 193.788C-6.79942e-06 192.233 1.26058 190.972 2.81559 190.972L4.57442 190.972C6.12944 190.972 7.39002 192.233 7.39002 193.788C7.39002 195.343 6.12944 196.603 4.57442 196.603L2.81559 196.603Z" fill="#7382A4" fill-opacity="0.62"/>
<path d="M49.2672 209.202C47.7122 209.202 46.4516 207.941 46.4516 206.386C46.4516 204.831 47.7122 203.571 49.2672 203.571L57.5715 203.571C59.1265 203.571 60.3871 204.831 60.3871 206.386C60.3871 207.941 59.1265 209.202 57.5715 209.202L49.2672 209.202Z" fill="#7382A4" fill-opacity="0.62"/>
<path d="M38.71 209.202C37.155 209.202 35.8944 207.941 35.8944 206.386C35.8944 204.831 37.155 203.571 38.71 203.571L40.4688 203.571C42.0239 203.571 43.2845 204.831 43.2845 206.386C43.2845 207.941 42.0239 209.202 40.4689 209.202L38.71 209.202Z" fill="#7382A4" fill-opacity="0.62"/>
<path d="M30.088 209.202C28.6303 209.202 27.4487 208.02 27.4487 206.562L27.4487 206.21C27.4487 204.752 28.6303 203.571 30.088 203.571C31.5456 203.571 32.7273 204.752 32.7273 206.21L32.7273 206.562C32.7273 208.02 31.5456 209.202 30.088 209.202Z" fill="#7382A4" fill-opacity="0.62"/>
<path d="M16.5399 209.202C14.9849 209.202 13.7243 207.941 13.7243 206.386C13.7243 204.831 14.9849 203.571 16.5399 203.571L21.4659 203.571C23.0209 203.571 24.2815 204.831 24.2815 206.386C24.2815 207.941 23.0209 209.202 21.4659 209.202L16.5399 209.202Z" fill="#7382A4" fill-opacity="0.62"/>
<path d="M2.81559 209.202C1.26058 209.202 -6.11279e-06 207.941 -6.18076e-06 206.386C-6.24873e-06 204.831 1.26058 203.571 2.81559 203.571L7.74158 203.571C9.29659 203.571 10.5572 204.831 10.5572 206.386C10.5572 207.941 9.29659 209.202 7.74158 209.202L2.81559 209.202Z" fill="#7382A4" fill-opacity="0.62"/>
<path d="M43.3503 221.8C41.7952 221.8 40.5347 220.54 40.5347 218.985C40.5347 217.43 41.7952 216.169 43.3503 216.169L46.5147 216.169C48.0697 216.169 49.3303 217.43 49.3303 218.985C49.3303 220.54 48.0697 221.8 46.5147 221.8L43.3503 221.8Z" fill="#7382A4" fill-opacity="0.62"/>
<path d="M25.6191 221.8C24.0641 221.8 22.8035 220.54 22.8035 218.985C22.8035 217.43 24.0641 216.169 25.6191 216.169L34.5519 216.169C36.1069 216.169 37.3675 217.43 37.3675 218.985C37.3675 220.54 36.1069 221.8 34.5519 221.8L25.6191 221.8Z" fill="#7382A4" fill-opacity="0.62"/>
<path d="M15.0619 221.8C13.5069 221.8 12.2463 220.54 12.2463 218.985C12.2463 217.43 13.5069 216.169 15.0619 216.169L16.8208 216.169C18.3758 216.169 19.6364 217.43 19.6364 218.985C19.6364 220.54 18.3758 221.8 16.8208 221.8L15.0619 221.8Z" fill="#7382A4" fill-opacity="0.62"/>
<path d="M2.8156 221.8C1.26058 221.8 -5.56209e-06 220.54 -5.63006e-06 218.985C-5.69803e-06 217.43 1.26058 216.169 2.8156 216.169L6.26357 216.169C7.81859 216.169 9.07917 217.43 9.07917 218.985C9.07917 220.54 7.81859 221.8 6.26357 221.8L2.8156 221.8Z" fill="#7382A4" fill-opacity="0.62"/>
<path d="M45.2555 234.399C43.7005 234.399 42.4399 233.138 42.4399 231.583C42.4399 230.028 43.7005 228.768 45.2555 228.768L47.0143 228.768C48.5693 228.768 49.8299 230.028 49.8299 231.583C49.8299 233.138 48.5693 234.399 47.0143 234.399L45.2555 234.399Z" fill="#7382A4" fill-opacity="0.62"/>
<path d="M33.0091 234.399C31.4541 234.399 30.1935 233.138 30.1935 231.583C30.1935 230.028 31.4541 228.768 33.0091 228.768L36.4571 228.768C38.0121 228.768 39.2727 230.028 39.2727 231.583C39.2727 233.138 38.0121 234.399 36.4571 234.399L33.0091 234.399Z" fill="#7382A4" fill-opacity="0.62"/>
<path d="M22.452 234.399C20.8969 234.399 19.6364 233.138 19.6364 231.583C19.6364 230.028 20.8969 228.768 22.452 228.768L24.2108 228.768C25.7658 228.768 27.0264 230.028 27.0264 231.583C27.0264 233.138 25.7658 234.399 24.2108 234.399L22.452 234.399Z" fill="#7382A4" fill-opacity="0.62"/>
<path d="M2.8156 234.399C1.26058 234.399 -5.01139e-06 233.138 -5.07936e-06 231.583C-5.14733e-06 230.028 1.26058 228.768 2.8156 228.768L13.6536 228.768C15.2086 228.768 16.4692 230.028 16.4692 231.583C16.4692 233.138 15.2086 234.399 13.6536 234.399L2.8156 234.399Z" fill="#7382A4" fill-opacity="0.62"/>
<path d="M51.5898 246.997C50.0348 246.997 48.7742 245.737 48.7742 244.182C48.7742 242.627 50.0348 241.366 51.5898 241.366L55.5873 241.366C57.1423 241.366 58.4029 242.627 58.4029 244.182C58.4029 245.737 57.1423 246.997 55.5873 246.997L51.5898 246.997Z" fill="#7382A4" fill-opacity="0.62"/>
<path d="M41.0326 246.997C39.4776 246.997 38.217 245.737 38.217 244.182C38.217 242.627 39.4776 241.366 41.0326 241.366L42.7914 241.366C44.3464 241.366 45.607 242.627 45.607 244.182C45.607 245.737 44.3464 246.997 42.7914 246.997L41.0326 246.997Z" fill="#7382A4" fill-opacity="0.62"/>
<path d="M23.93 246.997C22.375 246.997 21.1144 245.737 21.1144 244.182C21.1144 242.627 22.375 241.366 23.93 241.366L32.2343 241.366C33.7893 241.366 35.0498 242.627 35.0499 244.182C35.0499 245.737 33.7893 246.997 32.2343 246.997L23.93 246.997Z" fill="#7382A4" fill-opacity="0.62"/>
<path d="M13.3728 246.997C11.8178 246.997 10.5572 245.737 10.5572 244.182C10.5572 242.627 11.8178 241.366 13.3728 241.366L15.1316 241.366C16.6866 241.366 17.9472 242.627 17.9472 244.182C17.9472 245.737 16.6866 246.997 15.1316 246.997L13.3728 246.997Z" fill="#7382A4" fill-opacity="0.62"/>
<path d="M2.8156 246.997C1.26058 246.997 -4.46069e-06 245.737 -4.52866e-06 244.182C-4.59663e-06 242.627 1.26058 241.366 2.8156 241.366L4.57442 241.366C6.12944 241.366 7.39002 242.627 7.39003 244.182C7.39003 245.737 6.12944 246.997 4.57442 246.997L2.8156 246.997Z" fill="#7382A4" fill-opacity="0.62"/>
<path d="M60.4529 259.596C58.8979 259.596 57.6373 258.335 57.6373 256.78C57.6373 255.225 58.8979 253.965 60.4529 253.965L63.6174 253.965C65.1724 253.965 66.433 255.225 66.433 256.78C66.433 258.335 65.1724 259.596 63.6174 259.596L60.4529 259.596Z" fill="#7382A4" fill-opacity="0.62"/>
<path d="M42.7218 259.596C41.1667 259.596 39.9062 258.335 39.9062 256.78C39.9062 255.225 41.1667 253.965 42.7218 253.965L51.6545 253.965C53.2096 253.965 54.4701 255.225 54.4701 256.78C54.4701 258.335 53.2096 259.596 51.6545 259.596L42.7218 259.596Z" fill="#7382A4" fill-opacity="0.62"/>
<path d="M32.1646 259.596C30.6096 259.596 29.349 258.335 29.349 256.78C29.349 255.225 30.6096 253.965 32.1646 253.965L33.9234 253.965C35.4784 253.965 36.739 255.225 36.739 256.78C36.739 258.335 35.4784 259.596 33.9234 259.596L32.1646 259.596Z" fill="#7382A4" fill-opacity="0.62"/>
<path d="M15.0619 259.596C13.5069 259.596 12.2463 258.335 12.2463 256.78C12.2463 255.225 13.5069 253.965 15.0619 253.965L23.3662 253.965C24.9212 253.965 26.1818 255.225 26.1818 256.78C26.1818 258.335 24.9212 259.596 23.3662 259.596L15.0619 259.596Z" fill="#7382A4" fill-opacity="0.62"/>
<path d="M2.8156 259.596C1.26058 259.596 -3.90999e-06 258.335 -3.97796e-06 256.78C-4.04593e-06 255.225 1.26058 253.965 2.8156 253.965L6.26357 253.965C7.81859 253.965 9.07918 255.225 9.07918 256.78C9.07918 258.335 7.81859 259.596 6.26357 259.596L2.8156 259.596Z" fill="#7382A4" fill-opacity="0.62"/>
<path d="M66.3699 272.194C64.8148 272.194 63.5543 270.934 63.5543 269.379C63.5543 267.824 64.8148 266.563 66.3699 266.563L67.6238 266.563C69.1788 266.563 70.4394 267.824 70.4394 269.379C70.4394 270.934 69.1788 272.194 67.6238 272.194L66.3699 272.194Z" fill="#7382A4" fill-opacity="0.62"/>
<path d="M49.2672 272.194C47.7122 272.194 46.4516 270.934 46.4516 269.379C46.4516 267.824 47.7122 266.563 49.2672 266.563L57.5715 266.563C59.1265 266.563 60.3871 267.824 60.3871 269.379C60.3871 270.934 59.1265 272.194 57.5715 272.194L49.2672 272.194Z" fill="#7382A4" fill-opacity="0.62"/>
<path d="M38.71 272.194C37.155 272.194 35.8944 270.934 35.8944 269.379C35.8944 267.824 37.155 266.563 38.71 266.563L40.4688 266.563C42.0239 266.563 43.2845 267.824 43.2845 269.379C43.2845 270.934 42.0239 272.194 40.4688 272.194L38.71 272.194Z" fill="#7382A4" fill-opacity="0.62"/>
<path d="M30.088 272.194C28.6303 272.194 27.4487 271.013 27.4487 269.555L27.4487 269.202C27.4487 267.745 28.6303 266.563 30.088 266.563C31.5456 266.563 32.7273 267.745 32.7273 269.202L32.7273 269.555C32.7273 271.013 31.5456 272.194 30.088 272.194Z" fill="#7382A4" fill-opacity="0.62"/>
<path d="M16.5399 272.194C14.9849 272.194 13.7243 270.934 13.7243 269.379C13.7243 267.824 14.9849 266.563 16.5399 266.563L21.4659 266.563C23.0209 266.563 24.2815 267.824 24.2815 269.379C24.2815 270.934 23.0209 272.194 21.4659 272.194L16.5399 272.194Z" fill="#7382A4" fill-opacity="0.62"/>
<path d="M2.8156 272.194C1.26058 272.194 -3.35929e-06 270.934 -3.42726e-06 269.379C-3.49523e-06 267.824 1.26058 266.563 2.8156 266.563L7.74158 266.563C9.29659 266.563 10.5572 267.824 10.5572 269.379C10.5572 270.934 9.29659 272.194 7.74158 272.194L2.8156 272.194Z" fill="#7382A4" fill-opacity="0.62"/>
<path d="M60.4529 284.793C58.8979 284.793 57.6373 283.532 57.6373 281.977C57.6373 280.422 58.8979 279.162 60.4529 279.162L63.6174 279.162C65.1724 279.162 66.433 280.422 66.433 281.977C66.433 283.532 65.1724 284.793 63.6174 284.793L60.4529 284.793Z" fill="#7382A4" fill-opacity="0.62"/>
<path d="M42.7218 284.793C41.1667 284.793 39.9062 283.532 39.9062 281.977C39.9062 280.422 41.1667 279.162 42.7218 279.162L51.6545 279.162C53.2096 279.162 54.4701 280.422 54.4701 281.977C54.4701 283.532 53.2096 284.793 51.6545 284.793L42.7218 284.793Z" fill="#7382A4" fill-opacity="0.62"/>
<path d="M32.1646 284.793C30.6096 284.793 29.349 283.532 29.349 281.977C29.349 280.422 30.6096 279.162 32.1646 279.162L33.9234 279.162C35.4784 279.162 36.739 280.422 36.739 281.977C36.739 283.532 35.4784 284.793 33.9234 284.793L32.1646 284.793Z" fill="#7382A4" fill-opacity="0.62"/>
<path d="M15.0619 284.793C13.5069 284.793 12.2463 283.532 12.2463 281.977C12.2463 280.422 13.5069 279.162 15.0619 279.162L23.3662 279.162C24.9212 279.162 26.1818 280.422 26.1818 281.977C26.1818 283.532 24.9212 284.793 23.3662 284.793L15.0619 284.793Z" fill="#7382A4" fill-opacity="0.62"/>
<path d="M2.8156 284.793C1.26058 284.793 -2.80859e-06 283.532 -2.87656e-06 281.977C-2.94453e-06 280.422 1.26058 279.162 2.8156 279.162L6.26358 279.162C7.81859 279.162 9.07918 280.422 9.07918 281.977C9.07918 283.532 7.81859 284.793 6.26358 284.793L2.8156 284.793Z" fill="#7382A4" fill-opacity="0.62"/>
<path d="M64.2584 297.391C62.7034 297.391 61.4428 296.131 61.4428 294.576C61.4428 293.021 62.7034 291.76 64.2584 291.76L69.1844 291.76C70.7394 291.76 72 293.021 72 294.576C72 296.131 70.7394 297.391 69.1844 297.391L64.2584 297.391Z" fill="#7382A4" fill-opacity="0.62"/>
<path d="M55.6364 297.391C54.1787 297.391 52.9971 296.21 52.9971 294.752L52.9971 294.4C52.9971 292.942 54.1787 291.76 55.6364 291.76C57.094 291.76 58.2757 292.942 58.2757 294.4L58.2757 294.752C58.2757 296.21 57.094 297.391 55.6364 297.391Z" fill="#7382A4" fill-opacity="0.62"/>
<path d="M45.2555 297.391C43.7005 297.391 42.4399 296.131 42.4399 294.576C42.4399 293.021 43.7005 291.76 45.2555 291.76L47.0143 291.76C48.5693 291.76 49.8299 293.021 49.8299 294.576C49.8299 296.131 48.5693 297.391 47.0143 297.391L45.2555 297.391Z" fill="#7382A4" fill-opacity="0.62"/>
<path d="M33.0091 297.391C31.4541 297.391 30.1935 296.131 30.1935 294.576C30.1935 293.021 31.4541 291.76 33.0091 291.76L36.4571 291.76C38.0121 291.76 39.2727 293.021 39.2727 294.576C39.2727 296.131 38.0121 297.391 36.4571 297.391L33.0091 297.391Z" fill="#7382A4" fill-opacity="0.62"/>
<path d="M22.452 297.391C20.8969 297.391 19.6364 296.131 19.6364 294.576C19.6364 293.021 20.8969 291.76 22.452 291.76L24.2108 291.76C25.7658 291.76 27.0264 293.021 27.0264 294.576C27.0264 296.131 25.7658 297.391 24.2108 297.391L22.452 297.391Z" fill="#7382A4" fill-opacity="0.62"/>
<path d="M2.8156 297.391C1.26058 297.391 -2.25789e-06 296.131 -2.32586e-06 294.576C-2.39383e-06 293.021 1.26059 291.76 2.8156 291.76L13.6536 291.76C15.2086 291.76 16.4692 293.021 16.4692 294.576C16.4692 296.131 15.2086 297.391 13.6536 297.391L2.8156 297.391Z" fill="#7382A4" fill-opacity="0.62"/>
<path d="M64.3856 309.99C62.8306 309.99 61.57 308.729 61.57 307.174C61.57 305.619 62.8306 304.359 64.3856 304.359L67.5501 304.359C69.1051 304.359 70.3657 305.619 70.3657 307.174C70.3657 308.729 69.1051 309.99 67.5501 309.99L64.3856 309.99Z" fill="#7382A4" fill-opacity="0.62"/>
<path d="M51.5898 309.99C50.0348 309.99 48.7742 308.729 48.7742 307.174C48.7742 305.619 50.0348 304.359 51.5898 304.359L55.5873 304.359C57.1423 304.359 58.4029 305.619 58.4029 307.174C58.4029 308.729 57.1423 309.99 55.5873 309.99L51.5898 309.99Z" fill="#7382A4" fill-opacity="0.62"/>
<path d="M41.0326 309.99C39.4776 309.99 38.217 308.729 38.217 307.174C38.217 305.619 39.4776 304.359 41.0326 304.359L42.7914 304.359C44.3464 304.359 45.607 305.619 45.607 307.174C45.607 308.729 44.3464 309.99 42.7914 309.99L41.0326 309.99Z" fill="#7382A4" fill-opacity="0.62"/>
<path d="M23.93 309.99C22.375 309.99 21.1144 308.729 21.1144 307.174C21.1144 305.619 22.375 304.359 23.93 304.359L32.2343 304.359C33.7893 304.359 35.0499 305.619 35.0499 307.174C35.0499 308.729 33.7893 309.99 32.2343 309.99L23.93 309.99Z" fill="#7382A4" fill-opacity="0.62"/>
<path d="M13.3728 309.99C11.8178 309.99 10.5572 308.729 10.5572 307.174C10.5572 305.619 11.8178 304.359 13.3728 304.359L15.1316 304.359C16.6866 304.359 17.9472 305.619 17.9472 307.174C17.9472 308.729 16.6866 309.99 15.1316 309.99L13.3728 309.99Z" fill="#7382A4" fill-opacity="0.62"/>
<path d="M2.8156 309.99C1.26059 309.99 -1.7072e-06 308.729 -1.77517e-06 307.174C-1.84314e-06 305.619 1.26059 304.359 2.8156 304.359L4.57443 304.359C6.12944 304.359 7.39003 305.619 7.39003 307.174C7.39003 308.729 6.12944 309.99 4.57443 309.99L2.8156 309.99Z" fill="#7382A4" fill-opacity="0.62"/>
<path d="M51.5898 322.588C50.0348 322.588 48.7742 321.328 48.7742 319.773C48.7742 318.218 50.0348 316.957 51.5898 316.957L55.5873 316.957C57.1423 316.957 58.4029 318.218 58.4029 319.773C58.4029 321.328 57.1423 322.588 55.5873 322.588L51.5898 322.588Z" fill="#7382A4" fill-opacity="0.62"/>
<path d="M41.0326 322.588C39.4776 322.588 38.217 321.328 38.217 319.773C38.217 318.218 39.4776 316.957 41.0326 316.957L42.7914 316.957C44.3465 316.957 45.607 318.218 45.607 319.773C45.607 321.328 44.3465 322.588 42.7914 322.588L41.0326 322.588Z" fill="#7382A4" fill-opacity="0.62"/>
<path d="M23.93 322.588C22.375 322.588 21.1144 321.328 21.1144 319.773C21.1144 318.218 22.375 316.957 23.93 316.957L32.2343 316.957C33.7893 316.957 35.0499 318.218 35.0499 319.773C35.0499 321.328 33.7893 322.588 32.2343 322.588L23.93 322.588Z" fill="#7382A4" fill-opacity="0.62"/>
<path d="M13.3728 322.588C11.8178 322.588 10.5572 321.328 10.5572 319.773C10.5572 318.218 11.8178 316.957 13.3728 316.957L15.1316 316.957C16.6866 316.957 17.9472 318.218 17.9472 319.773C17.9472 321.328 16.6866 322.588 15.1316 322.588L13.3728 322.588Z" fill="#7382A4" fill-opacity="0.62"/>
<path d="M2.8156 322.588C1.26059 322.588 -1.1565e-06 321.328 -1.22447e-06 319.773C-1.29244e-06 318.218 1.26059 316.957 2.8156 316.957L4.57443 316.957C6.12944 316.957 7.39003 318.218 7.39003 319.773C7.39003 321.328 6.12944 322.588 4.57443 322.588L2.8156 322.588Z" fill="#7382A4" fill-opacity="0.62"/>
<path d="M50.5341 335.187C48.9791 335.187 47.7185 333.926 47.7185 332.371C47.7185 330.816 48.9791 329.556 50.5341 329.556L52.2929 329.556C53.8479 329.556 55.1085 330.816 55.1085 332.371C55.1085 333.926 53.8479 335.187 52.2929 335.187L50.5341 335.187Z" fill="#7382A4" fill-opacity="0.62"/>
<path d="M33.0091 335.187C31.4541 335.187 30.1935 333.926 30.1935 332.371C30.1935 330.816 31.4541 329.556 33.0092 329.556L41.7357 329.556C43.2907 329.556 44.5513 330.816 44.5513 332.371C44.5513 333.926 43.2907 335.187 41.7357 335.187L33.0091 335.187Z" fill="#7382A4" fill-opacity="0.62"/>
<path d="M22.452 335.187C20.897 335.187 19.6364 333.926 19.6364 332.371C19.6364 330.816 20.897 329.556 22.452 329.556L24.2108 329.556C25.7658 329.556 27.0264 330.816 27.0264 332.371C27.0264 333.926 25.7658 335.187 24.2108 335.187L22.452 335.187Z" fill="#7382A4" fill-opacity="0.62"/>
<path d="M2.8156 335.187C1.26059 335.187 -6.05799e-07 333.926 -6.73768e-07 332.371C-7.41738e-07 330.816 1.26059 329.556 2.8156 329.556L13.6536 329.556C15.2086 329.556 16.4692 330.816 16.4692 332.371C16.4692 333.926 15.2086 335.187 13.6536 335.187L2.8156 335.187Z" fill="#7382A4" fill-opacity="0.62"/>
<path d="M52.6752 347.785C51.1201 347.785 49.8596 346.525 49.8596 344.97C49.8596 343.415 51.1201 342.154 52.6752 342.154L54.0379 342.154C55.593 342.154 56.8535 343.415 56.8535 344.97C56.8535 346.525 55.593 347.785 54.0379 347.785L52.6752 347.785Z" fill="#7382A4" fill-opacity="0.62"/>
<path d="M44.0531 347.785C42.5955 347.785 41.4138 346.604 41.4138 345.146L41.4138 344.794C41.4138 343.336 42.5955 342.154 44.0531 342.154C45.5107 342.154 46.6924 343.336 46.6924 344.794L46.6924 345.146C46.6924 346.604 45.5107 347.785 44.0531 347.785Z" fill="#7382A4" fill-opacity="0.62"/>
<path d="M32.5947 347.785C31.0396 347.785 29.7791 346.525 29.7791 344.97C29.7791 343.415 31.0396 342.154 32.5947 342.154L35.4311 342.154C36.9861 342.154 38.2467 343.415 38.2467 344.97C38.2467 346.525 36.9861 347.785 35.4311 347.785L32.5947 347.785Z" fill="#7382A4" fill-opacity="0.62"/>
<path d="M19.0349 347.785C17.4799 347.785 16.2193 346.525 16.2193 344.97C16.2193 343.415 17.4799 342.154 19.0349 342.154L23.7963 342.154C25.3513 342.154 26.6119 343.415 26.6119 344.97C26.6119 346.525 25.3513 347.785 23.7963 347.785L19.0349 347.785Z" fill="#7382A4" fill-opacity="0.62"/>
<path d="M2.8156 347.785C1.26059 347.785 -5.51002e-08 346.525 -1.2307e-07 344.97C-1.91039e-07 343.415 1.26059 342.154 2.8156 342.154L10.2366 342.154C11.7916 342.154 13.0522 343.415 13.0522 344.97C13.0522 346.525 11.7916 347.785 10.2366 347.785L2.8156 347.785Z" fill="#7382A4" fill-opacity="0.62"/>
</g>
<defs>
<linearGradient id="paint0_linear_1514_2641" x1="-3.49999" y1="211.5" x2="54" y2="22.5002" gradientUnits="userSpaceOnUse">
<stop stop-color="#7382A4"/>
<stop offset="1" stop-color="#7382A4" stop-opacity="0"/>
</linearGradient>
<linearGradient id="paint1_linear_1514_2641" x1="-3.49999" y1="211.5" x2="54" y2="22.5002" gradientUnits="userSpaceOnUse">
<stop stop-color="#7382A4"/>
<stop offset="1" stop-color="#7382A4" stop-opacity="0"/>
</linearGradient>
<linearGradient id="paint2_linear_1514_2641" x1="-3.49999" y1="211.5" x2="54" y2="22.5002" gradientUnits="userSpaceOnUse">
<stop stop-color="#7382A4"/>
<stop offset="1" stop-color="#7382A4" stop-opacity="0"/>
</linearGradient>
<linearGradient id="paint3_linear_1514_2641" x1="-3.49999" y1="211.5" x2="54" y2="22.5002" gradientUnits="userSpaceOnUse">
<stop stop-color="#7382A4"/>
<stop offset="1" stop-color="#7382A4" stop-opacity="0"/>
</linearGradient>
<linearGradient id="paint4_linear_1514_2641" x1="-3.49999" y1="211.5" x2="54" y2="22.5002" gradientUnits="userSpaceOnUse">
<stop stop-color="#7382A4"/>
<stop offset="1" stop-color="#7382A4" stop-opacity="0"/>
</linearGradient>
<linearGradient id="paint5_linear_1514_2641" x1="-3.49999" y1="211.5" x2="54" y2="22.5002" gradientUnits="userSpaceOnUse">
<stop stop-color="#7382A4"/>
<stop offset="1" stop-color="#7382A4" stop-opacity="0"/>
</linearGradient>
<linearGradient id="paint6_linear_1514_2641" x1="-3.49999" y1="211.5" x2="54" y2="22.5002" gradientUnits="userSpaceOnUse">
<stop stop-color="#7382A4"/>
<stop offset="1" stop-color="#7382A4" stop-opacity="0"/>
</linearGradient>
<linearGradient id="paint7_linear_1514_2641" x1="-3.49999" y1="211.5" x2="54" y2="22.5002" gradientUnits="userSpaceOnUse">
<stop stop-color="#7382A4"/>
<stop offset="1" stop-color="#7382A4" stop-opacity="0"/>
</linearGradient>
<linearGradient id="paint8_linear_1514_2641" x1="-3.49999" y1="211.5" x2="54" y2="22.5002" gradientUnits="userSpaceOnUse">
<stop stop-color="#7382A4"/>
<stop offset="1" stop-color="#7382A4" stop-opacity="0"/>
</linearGradient>
<linearGradient id="paint9_linear_1514_2641" x1="-3.49999" y1="211.5" x2="54" y2="22.5002" gradientUnits="userSpaceOnUse">
<stop stop-color="#7382A4"/>
<stop offset="1" stop-color="#7382A4" stop-opacity="0"/>
</linearGradient>
<linearGradient id="paint10_linear_1514_2641" x1="-3.49999" y1="211.5" x2="54" y2="22.5002" gradientUnits="userSpaceOnUse">
<stop stop-color="#7382A4"/>
<stop offset="1" stop-color="#7382A4" stop-opacity="0"/>
</linearGradient>
<linearGradient id="paint11_linear_1514_2641" x1="-3.49999" y1="211.5" x2="54" y2="22.5002" gradientUnits="userSpaceOnUse">
<stop stop-color="#7382A4"/>
<stop offset="1" stop-color="#7382A4" stop-opacity="0"/>
</linearGradient>
<linearGradient id="paint12_linear_1514_2641" x1="-3.49999" y1="211.5" x2="54" y2="22.5002" gradientUnits="userSpaceOnUse">
<stop stop-color="#7382A4"/>
<stop offset="1" stop-color="#7382A4" stop-opacity="0"/>
</linearGradient>
<linearGradient id="paint13_linear_1514_2641" x1="-3.49999" y1="211.5" x2="54" y2="22.5002" gradientUnits="userSpaceOnUse">
<stop stop-color="#7382A4"/>
<stop offset="1" stop-color="#7382A4" stop-opacity="0"/>
</linearGradient>
<linearGradient id="paint14_linear_1514_2641" x1="-3.49999" y1="211.5" x2="54" y2="22.5002" gradientUnits="userSpaceOnUse">
<stop stop-color="#7382A4"/>
<stop offset="1" stop-color="#7382A4" stop-opacity="0"/>
</linearGradient>
<linearGradient id="paint15_linear_1514_2641" x1="-3.49999" y1="211.5" x2="54" y2="22.5002" gradientUnits="userSpaceOnUse">
<stop stop-color="#7382A4"/>
<stop offset="1" stop-color="#7382A4" stop-opacity="0"/>
</linearGradient>
<linearGradient id="paint16_linear_1514_2641" x1="-3.49999" y1="211.5" x2="54" y2="22.5002" gradientUnits="userSpaceOnUse">
<stop stop-color="#7382A4"/>
<stop offset="1" stop-color="#7382A4" stop-opacity="0"/>
</linearGradient>
<linearGradient id="paint17_linear_1514_2641" x1="-3.49999" y1="211.5" x2="54" y2="22.5002" gradientUnits="userSpaceOnUse">
<stop stop-color="#7382A4"/>
<stop offset="1" stop-color="#7382A4" stop-opacity="0"/>
</linearGradient>
<linearGradient id="paint18_linear_1514_2641" x1="-3.49999" y1="211.5" x2="54" y2="22.5002" gradientUnits="userSpaceOnUse">
<stop stop-color="#7382A4"/>
<stop offset="1" stop-color="#7382A4" stop-opacity="0"/>
</linearGradient>
<linearGradient id="paint19_linear_1514_2641" x1="-3.49999" y1="211.5" x2="54" y2="22.5002" gradientUnits="userSpaceOnUse">
<stop stop-color="#7382A4"/>
<stop offset="1" stop-color="#7382A4" stop-opacity="0"/>
</linearGradient>
<linearGradient id="paint20_linear_1514_2641" x1="-3.49999" y1="211.5" x2="54" y2="22.5002" gradientUnits="userSpaceOnUse">
<stop stop-color="#7382A4"/>
<stop offset="1" stop-color="#7382A4" stop-opacity="0"/>
</linearGradient>
<linearGradient id="paint21_linear_1514_2641" x1="-3.49999" y1="211.5" x2="54" y2="22.5002" gradientUnits="userSpaceOnUse">
<stop stop-color="#7382A4"/>
<stop offset="1" stop-color="#7382A4" stop-opacity="0"/>
</linearGradient>
<linearGradient id="paint22_linear_1514_2641" x1="-3.49999" y1="211.5" x2="54" y2="22.5002" gradientUnits="userSpaceOnUse">
<stop stop-color="#7382A4"/>
<stop offset="1" stop-color="#7382A4" stop-opacity="0"/>
</linearGradient>
<linearGradient id="paint23_linear_1514_2641" x1="-3.49999" y1="211.5" x2="54" y2="22.5002" gradientUnits="userSpaceOnUse">
<stop stop-color="#7382A4"/>
<stop offset="1" stop-color="#7382A4" stop-opacity="0"/>
</linearGradient>
<linearGradient id="paint24_linear_1514_2641" x1="-3.49999" y1="211.5" x2="54" y2="22.5002" gradientUnits="userSpaceOnUse">
<stop stop-color="#7382A4"/>
<stop offset="1" stop-color="#7382A4" stop-opacity="0"/>
</linearGradient>
<linearGradient id="paint25_linear_1514_2641" x1="-3.49999" y1="211.5" x2="54" y2="22.5002" gradientUnits="userSpaceOnUse">
<stop stop-color="#7382A4"/>
<stop offset="1" stop-color="#7382A4" stop-opacity="0"/>
</linearGradient>
<linearGradient id="paint26_linear_1514_2641" x1="-3.49999" y1="211.5" x2="54" y2="22.5002" gradientUnits="userSpaceOnUse">
<stop stop-color="#7382A4"/>
<stop offset="1" stop-color="#7382A4" stop-opacity="0"/>
</linearGradient>
<linearGradient id="paint27_linear_1514_2641" x1="-3.49999" y1="211.5" x2="54" y2="22.5002" gradientUnits="userSpaceOnUse">
<stop stop-color="#7382A4"/>
<stop offset="1" stop-color="#7382A4" stop-opacity="0"/>
</linearGradient>
<linearGradient id="paint28_linear_1514_2641" x1="-3.49999" y1="211.5" x2="54" y2="22.5002" gradientUnits="userSpaceOnUse">
<stop stop-color="#7382A4"/>
<stop offset="1" stop-color="#7382A4" stop-opacity="0"/>
</linearGradient>
<linearGradient id="paint29_linear_1514_2641" x1="-3.49999" y1="211.5" x2="54" y2="22.5002" gradientUnits="userSpaceOnUse">
<stop stop-color="#7382A4"/>
<stop offset="1" stop-color="#7382A4" stop-opacity="0"/>
</linearGradient>
<linearGradient id="paint30_linear_1514_2641" x1="-3.49999" y1="211.5" x2="54" y2="22.5002" gradientUnits="userSpaceOnUse">
<stop stop-color="#7382A4"/>
<stop offset="1" stop-color="#7382A4" stop-opacity="0"/>
</linearGradient>
<linearGradient id="paint31_linear_1514_2641" x1="-3.49999" y1="211.5" x2="54" y2="22.5002" gradientUnits="userSpaceOnUse">
<stop stop-color="#7382A4"/>
<stop offset="1" stop-color="#7382A4" stop-opacity="0"/>
</linearGradient>
<linearGradient id="paint32_linear_1514_2641" x1="-3.49999" y1="211.5" x2="54" y2="22.5002" gradientUnits="userSpaceOnUse">
<stop stop-color="#7382A4"/>
<stop offset="1" stop-color="#7382A4" stop-opacity="0"/>
</linearGradient>
<linearGradient id="paint33_linear_1514_2641" x1="-3.49999" y1="211.5" x2="54" y2="22.5002" gradientUnits="userSpaceOnUse">
<stop stop-color="#7382A4"/>
<stop offset="1" stop-color="#7382A4" stop-opacity="0"/>
</linearGradient>
<linearGradient id="paint34_linear_1514_2641" x1="-3.49999" y1="211.5" x2="54" y2="22.5002" gradientUnits="userSpaceOnUse">
<stop stop-color="#7382A4"/>
<stop offset="1" stop-color="#7382A4" stop-opacity="0"/>
</linearGradient>
<linearGradient id="paint35_linear_1514_2641" x1="-3.49999" y1="211.5" x2="54" y2="22.5002" gradientUnits="userSpaceOnUse">
<stop stop-color="#7382A4"/>
<stop offset="1" stop-color="#7382A4" stop-opacity="0"/>
</linearGradient>
<linearGradient id="paint36_linear_1514_2641" x1="-3.49999" y1="211.5" x2="54" y2="22.5002" gradientUnits="userSpaceOnUse">
<stop stop-color="#7382A4"/>
<stop offset="1" stop-color="#7382A4" stop-opacity="0"/>
</linearGradient>
<linearGradient id="paint37_linear_1514_2641" x1="-3.49999" y1="211.5" x2="54" y2="22.5002" gradientUnits="userSpaceOnUse">
<stop stop-color="#7382A4"/>
<stop offset="1" stop-color="#7382A4" stop-opacity="0"/>
</linearGradient>
<linearGradient id="paint38_linear_1514_2641" x1="-3.49999" y1="211.5" x2="54" y2="22.5002" gradientUnits="userSpaceOnUse">
<stop stop-color="#7382A4"/>
<stop offset="1" stop-color="#7382A4" stop-opacity="0"/>
</linearGradient>
<linearGradient id="paint39_linear_1514_2641" x1="-3.49999" y1="211.5" x2="54" y2="22.5002" gradientUnits="userSpaceOnUse">
<stop stop-color="#7382A4"/>
<stop offset="1" stop-color="#7382A4" stop-opacity="0"/>
</linearGradient>
<linearGradient id="paint40_linear_1514_2641" x1="-3.49999" y1="211.5" x2="54" y2="22.5002" gradientUnits="userSpaceOnUse">
<stop stop-color="#7382A4"/>
<stop offset="1" stop-color="#7382A4" stop-opacity="0"/>
</linearGradient>
<linearGradient id="paint41_linear_1514_2641" x1="-3.49999" y1="211.5" x2="54" y2="22.5002" gradientUnits="userSpaceOnUse">
<stop stop-color="#7382A4"/>
<stop offset="1" stop-color="#7382A4" stop-opacity="0"/>
</linearGradient>
<linearGradient id="paint42_linear_1514_2641" x1="-3.49999" y1="211.5" x2="54" y2="22.5002" gradientUnits="userSpaceOnUse">
<stop stop-color="#7382A4"/>
<stop offset="1" stop-color="#7382A4" stop-opacity="0"/>
</linearGradient>
<linearGradient id="paint43_linear_1514_2641" x1="-3.49999" y1="211.5" x2="54" y2="22.5002" gradientUnits="userSpaceOnUse">
<stop stop-color="#7382A4"/>
<stop offset="1" stop-color="#7382A4" stop-opacity="0"/>
</linearGradient>
<linearGradient id="paint44_linear_1514_2641" x1="-3.49999" y1="211.5" x2="54" y2="22.5002" gradientUnits="userSpaceOnUse">
<stop stop-color="#7382A4"/>
<stop offset="1" stop-color="#7382A4" stop-opacity="0"/>
</linearGradient>
<linearGradient id="paint45_linear_1514_2641" x1="-3.49999" y1="211.5" x2="54" y2="22.5002" gradientUnits="userSpaceOnUse">
<stop stop-color="#7382A4"/>
<stop offset="1" stop-color="#7382A4" stop-opacity="0"/>
</linearGradient>
<linearGradient id="paint46_linear_1514_2641" x1="-3.49999" y1="211.5" x2="54" y2="22.5002" gradientUnits="userSpaceOnUse">
<stop stop-color="#7382A4"/>
<stop offset="1" stop-color="#7382A4" stop-opacity="0"/>
</linearGradient>
<linearGradient id="paint47_linear_1514_2641" x1="-3.49999" y1="211.5" x2="54" y2="22.5002" gradientUnits="userSpaceOnUse">
<stop stop-color="#7382A4"/>
<stop offset="1" stop-color="#7382A4" stop-opacity="0"/>
</linearGradient>
<linearGradient id="paint48_linear_1514_2641" x1="-3.49999" y1="211.5" x2="54" y2="22.5002" gradientUnits="userSpaceOnUse">
<stop stop-color="#7382A4"/>
<stop offset="1" stop-color="#7382A4" stop-opacity="0"/>
</linearGradient>
<linearGradient id="paint49_linear_1514_2641" x1="-3.49999" y1="211.5" x2="54" y2="22.5002" gradientUnits="userSpaceOnUse">
<stop stop-color="#7382A4"/>
<stop offset="1" stop-color="#7382A4" stop-opacity="0"/>
</linearGradient>
<linearGradient id="paint50_linear_1514_2641" x1="-3.49999" y1="211.5" x2="54" y2="22.5002" gradientUnits="userSpaceOnUse">
<stop stop-color="#7382A4"/>
<stop offset="1" stop-color="#7382A4" stop-opacity="0"/>
</linearGradient>
<linearGradient id="paint51_linear_1514_2641" x1="-3.49999" y1="211.5" x2="54" y2="22.5002" gradientUnits="userSpaceOnUse">
<stop stop-color="#7382A4"/>
<stop offset="1" stop-color="#7382A4" stop-opacity="0"/>
</linearGradient>
<linearGradient id="paint52_linear_1514_2641" x1="-3.49999" y1="211.5" x2="54" y2="22.5002" gradientUnits="userSpaceOnUse">
<stop stop-color="#7382A4"/>
<stop offset="1" stop-color="#7382A4" stop-opacity="0"/>
</linearGradient>
<linearGradient id="paint53_linear_1514_2641" x1="-3.49999" y1="211.5" x2="54" y2="22.5002" gradientUnits="userSpaceOnUse">
<stop stop-color="#7382A4"/>
<stop offset="1" stop-color="#7382A4" stop-opacity="0"/>
</linearGradient>
<linearGradient id="paint54_linear_1514_2641" x1="-3.49999" y1="211.5" x2="54" y2="22.5002" gradientUnits="userSpaceOnUse">
<stop stop-color="#7382A4"/>
<stop offset="1" stop-color="#7382A4" stop-opacity="0"/>
</linearGradient>
<linearGradient id="paint55_linear_1514_2641" x1="-3.49999" y1="211.5" x2="54" y2="22.5002" gradientUnits="userSpaceOnUse">
<stop stop-color="#7382A4"/>
<stop offset="1" stop-color="#7382A4" stop-opacity="0"/>
</linearGradient>
<linearGradient id="paint56_linear_1514_2641" x1="-3.49999" y1="211.5" x2="54" y2="22.5002" gradientUnits="userSpaceOnUse">
<stop stop-color="#7382A4"/>
<stop offset="1" stop-color="#7382A4" stop-opacity="0"/>
</linearGradient>
<linearGradient id="paint57_linear_1514_2641" x1="-3.49999" y1="211.5" x2="54" y2="22.5002" gradientUnits="userSpaceOnUse">
<stop stop-color="#7382A4"/>
<stop offset="1" stop-color="#7382A4" stop-opacity="0"/>
</linearGradient>
<linearGradient id="paint58_linear_1514_2641" x1="-3.49999" y1="211.5" x2="54" y2="22.5002" gradientUnits="userSpaceOnUse">
<stop stop-color="#7382A4"/>
<stop offset="1" stop-color="#7382A4" stop-opacity="0"/>
</linearGradient>
<linearGradient id="paint59_linear_1514_2641" x1="-3.49999" y1="211.5" x2="54" y2="22.5002" gradientUnits="userSpaceOnUse">
<stop stop-color="#7382A4"/>
<stop offset="1" stop-color="#7382A4" stop-opacity="0"/>
</linearGradient>
<linearGradient id="paint60_linear_1514_2641" x1="-3.49999" y1="211.5" x2="54" y2="22.5002" gradientUnits="userSpaceOnUse">
<stop stop-color="#7382A4"/>
<stop offset="1" stop-color="#7382A4" stop-opacity="0"/>
</linearGradient>
<linearGradient id="paint61_linear_1514_2641" x1="-3.49999" y1="211.5" x2="54" y2="22.5002" gradientUnits="userSpaceOnUse">
<stop stop-color="#7382A4"/>
<stop offset="1" stop-color="#7382A4" stop-opacity="0"/>
</linearGradient>
<linearGradient id="paint62_linear_1514_2641" x1="-3.49999" y1="211.5" x2="54" y2="22.5002" gradientUnits="userSpaceOnUse">
<stop stop-color="#7382A4"/>
<stop offset="1" stop-color="#7382A4" stop-opacity="0"/>
</linearGradient>
<linearGradient id="paint63_linear_1514_2641" x1="-3.49999" y1="211.5" x2="54" y2="22.5002" gradientUnits="userSpaceOnUse">
<stop stop-color="#7382A4"/>
<stop offset="1" stop-color="#7382A4" stop-opacity="0"/>
</linearGradient>
<linearGradient id="paint64_linear_1514_2641" x1="-3.49999" y1="211.5" x2="54" y2="22.5002" gradientUnits="userSpaceOnUse">
<stop stop-color="#7382A4"/>
<stop offset="1" stop-color="#7382A4" stop-opacity="0"/>
</linearGradient>
<linearGradient id="paint65_linear_1514_2641" x1="-3.49999" y1="211.5" x2="54" y2="22.5002" gradientUnits="userSpaceOnUse">
<stop stop-color="#7382A4"/>
<stop offset="1" stop-color="#7382A4" stop-opacity="0"/>
</linearGradient>
<linearGradient id="paint66_linear_1514_2641" x1="-3.49999" y1="211.5" x2="54" y2="22.5002" gradientUnits="userSpaceOnUse">
<stop stop-color="#7382A4"/>
<stop offset="1" stop-color="#7382A4" stop-opacity="0"/>
</linearGradient>
<linearGradient id="paint67_linear_1514_2641" x1="-3.49999" y1="211.5" x2="54" y2="22.5002" gradientUnits="userSpaceOnUse">
<stop stop-color="#7382A4"/>
<stop offset="1" stop-color="#7382A4" stop-opacity="0"/>
</linearGradient>
<linearGradient id="paint68_linear_1514_2641" x1="-3.49999" y1="211.5" x2="54" y2="22.5002" gradientUnits="userSpaceOnUse">
<stop stop-color="#7382A4"/>
<stop offset="1" stop-color="#7382A4" stop-opacity="0"/>
</linearGradient>
<linearGradient id="paint69_linear_1514_2641" x1="-3.49999" y1="211.5" x2="54" y2="22.5002" gradientUnits="userSpaceOnUse">
<stop stop-color="#7382A4"/>
<stop offset="1" stop-color="#7382A4" stop-opacity="0"/>
</linearGradient>
<linearGradient id="paint70_linear_1514_2641" x1="-3.49999" y1="211.5" x2="54" y2="22.5002" gradientUnits="userSpaceOnUse">
<stop stop-color="#7382A4"/>
<stop offset="1" stop-color="#7382A4" stop-opacity="0"/>
</linearGradient>
</defs>
</svg>
