<svg width="114" height="36" viewBox="0 0 114 36" fill="none" xmlns="http://www.w3.org/2000/svg">
<path d="M107.926 34.6192H6.07407C3.49228 34.6192 1.3735 32.5449 1.3735 30V6C1.3735 3.45515 3.49228 1.3808 6.07407 1.3808H107.926C110.508 1.3808 112.626 3.45515 112.626 6V30C112.626 32.5449 110.508 34.6192 107.926 34.6192Z" fill="#1B1642" stroke="#1B1642"/>
<path d="M40.6377 10.3279C40.6377 10.9922 40.4339 11.5242 40.0327 11.921C39.5713 12.3914 38.9703 12.628 38.234 12.628C37.5302 12.628 36.9292 12.3874 36.4363 11.913C35.9423 11.4317 35.6958 10.8411 35.6958 10.134C35.6958 9.42699 35.9423 8.83631 36.4363 8.35898C36.9292 7.88067 37.5302 7.64001 38.234 7.64001C38.5843 7.64001 38.9184 7.71062 39.2372 7.84188C39.555 7.97414 39.8137 8.15314 40.0011 8.3739L39.5753 8.79355C39.2484 8.41666 38.8033 8.2307 38.234 8.2307C37.7206 8.2307 37.2755 8.40572 36.8977 8.75874C36.5239 9.11275 36.3364 9.57118 36.3364 10.134C36.3364 10.6969 36.5239 11.1593 36.8977 11.5133C37.2755 11.8623 37.7206 12.0413 38.234 12.0413C38.7789 12.0413 39.2372 11.8623 39.5988 11.5093C39.8371 11.2756 39.9726 10.9534 40.0082 10.5417H38.234V9.96696H40.601C40.6295 10.0913 40.6377 10.2116 40.6377 10.3279Z" fill="white" stroke="white" stroke-width="0.16" stroke-miterlimit="10"/>
<path d="M44.3911 8.33474H42.1677V9.84626H44.1721V10.421H42.1677V11.9326H44.3911V12.5183H41.5382V7.74902H44.3911V8.33474Z" fill="white" stroke="white" stroke-width="0.16" stroke-miterlimit="10"/>
<path d="M47.0428 12.518H46.4134V8.33449H45.0496V7.74878H48.4076V8.33449H47.0428V12.518Z" fill="white" stroke="white" stroke-width="0.16" stroke-miterlimit="10"/>
<path d="M50.8354 12.518V7.74878H51.4639V12.518H50.8354Z" fill="white" stroke="white" stroke-width="0.16" stroke-miterlimit="10"/>
<path d="M54.2524 12.518H53.628V8.33449H52.2592V7.74878H55.6213V8.33449H54.2524V12.518Z" fill="white" stroke="white" stroke-width="0.16" stroke-miterlimit="10"/>
<path d="M61.9774 11.9051C61.4956 12.3874 60.8988 12.628 60.1868 12.628C59.4708 12.628 58.874 12.3874 58.3922 11.9051C57.9115 11.4238 57.6721 10.8331 57.6721 10.134C57.6721 9.43495 57.9115 8.84426 58.3922 8.36296C58.874 7.88067 59.4708 7.64001 60.1868 7.64001C60.8947 7.64001 61.4916 7.88066 61.9733 8.36694C62.4581 8.85222 62.6975 9.43892 62.6975 10.134C62.6975 10.8331 62.4581 11.4238 61.9774 11.9051ZM58.8577 11.5053C59.2203 11.8623 59.6613 12.0413 60.1868 12.0413C60.7083 12.0413 61.1534 11.8623 61.5119 11.5053C61.8735 11.1483 62.0568 10.6899 62.0568 10.134C62.0568 9.57814 61.8735 9.11972 61.5119 8.76272C61.1534 8.40572 60.7083 8.22672 60.1868 8.22672C59.6613 8.22672 59.2203 8.40572 58.8577 8.76272C58.4961 9.11972 58.3128 9.57814 58.3128 10.134C58.3128 10.6899 58.4961 11.1483 58.8577 11.5053Z" fill="white" stroke="white" stroke-width="0.16" stroke-miterlimit="10"/>
<path d="M63.5803 12.518V7.74878H64.3442L66.7194 11.458H66.7469L66.7194 10.5411V7.74878H67.3478V12.518H66.6919L64.2047 8.62586H64.1772L64.2047 9.54669V12.518H63.5803Z" fill="white" stroke="white" stroke-width="0.16" stroke-miterlimit="10"/>
<path d="M57.5169 19.4831C55.6031 19.4831 54.0396 20.9052 54.0396 22.8672C54.0396 24.8132 55.6031 26.2502 57.5169 26.2502C59.4347 26.2502 60.9981 24.8132 60.9981 22.8672C60.9981 20.9052 59.4347 19.4831 57.5169 19.4831ZM57.5169 24.9177C56.4668 24.9177 55.5633 24.0714 55.5633 22.8672C55.5633 21.647 56.4668 20.8157 57.5169 20.8157C58.5669 20.8157 59.4744 21.647 59.4744 22.8672C59.4744 24.0714 58.5669 24.9177 57.5169 24.9177ZM49.9299 19.4831C48.012 19.4831 46.4527 20.9052 46.4527 22.8672C46.4527 24.8132 48.012 26.2502 49.9299 26.2502C51.8468 26.2502 53.4071 24.8132 53.4071 22.8672C53.4071 20.9052 51.8468 19.4831 49.9299 19.4831ZM49.9299 24.9177C48.8788 24.9177 47.9723 24.0714 47.9723 22.8672C47.9723 21.647 48.8788 20.8157 49.9299 20.8157C50.98 20.8157 51.8834 21.647 51.8834 22.8672C51.8834 24.0714 50.98 24.9177 49.9299 24.9177ZM40.9018 20.5203V21.9583H44.4187C44.3158 22.7618 44.0408 23.3524 43.6192 23.7641C43.1058 24.2613 42.3063 24.8132 40.9018 24.8132C38.7374 24.8132 37.0426 23.1078 37.0426 20.9947C37.0426 18.8815 38.7374 17.1761 40.9018 17.1761C42.072 17.1761 42.9235 17.6226 43.5519 18.2013L44.5898 17.188C43.7108 16.3686 42.5416 15.7391 40.9018 15.7391C37.9338 15.7391 35.4395 18.0969 35.4395 20.9947C35.4395 23.8924 37.9338 26.2502 40.9018 26.2502C42.5059 26.2502 43.7108 25.7371 44.6581 24.7745C45.6287 23.8268 45.9312 22.4943 45.9312 21.4183C45.9312 21.0842 45.9027 20.7769 45.8518 20.5203H40.9018ZM77.819 21.6351C77.5328 20.8783 76.6497 19.4831 74.851 19.4831C73.0686 19.4831 71.5846 20.8545 71.5846 22.8672C71.5846 24.7625 73.0533 26.2502 75.0221 26.2502C76.6141 26.2502 77.5328 25.3025 77.9106 24.7506L76.7292 23.9819C76.335 24.5448 75.7982 24.9177 75.0221 24.9177C74.2511 24.9177 73.698 24.5726 73.3436 23.8924L77.9789 22.0199L77.819 21.6351ZM73.0931 22.7618C73.0533 21.4571 74.1309 20.7888 74.903 20.7888C75.508 20.7888 76.0213 21.0842 76.1924 21.5068L73.0931 22.7618ZM69.3255 26.0443H70.8493V16.1001H69.3255V26.0443ZM66.8302 20.2369H66.7793C66.437 19.8411 65.7842 19.4831 64.9571 19.4831C63.2216 19.4831 61.6347 20.9708 61.6347 22.8781C61.6347 24.7745 63.2216 26.2502 64.9571 26.2502C65.7842 26.2502 66.437 25.8892 66.7793 25.4815H66.8302V25.9668C66.8302 27.2605 66.1223 27.9556 64.9805 27.9556C64.0496 27.9556 63.4721 27.2993 63.2338 26.7474L61.9087 27.2874C62.2906 28.1843 63.302 29.2881 64.9805 29.2881C66.767 29.2881 68.2744 28.2619 68.2744 25.7649V19.689H66.8302V20.2369ZM65.0875 24.9177C64.0374 24.9177 63.1584 24.0595 63.1584 22.8781C63.1584 21.6858 64.0374 20.8157 65.0875 20.8157C66.1223 20.8157 66.9381 21.6858 66.9381 22.8781C66.9381 24.0595 66.1223 24.9177 65.0875 24.9177ZM84.9527 16.1001H81.3084V26.0443H82.828V22.2765H84.9527C86.6404 22.2765 88.2954 21.0842 88.2954 19.1878C88.2954 17.2924 86.6363 16.1001 84.9527 16.1001ZM84.9924 20.8932H82.828V17.4834H84.9924C86.127 17.4834 86.7748 18.4032 86.7748 19.1878C86.7748 19.9575 86.127 20.8932 84.9924 20.8932ZM94.3862 19.4643C93.2882 19.4643 92.1465 19.9376 91.6769 20.9867L93.0255 21.5386C93.3157 20.9867 93.8494 20.8077 94.4137 20.8077C95.202 20.8077 96.0016 21.2701 96.0138 22.0865V22.191C95.7388 22.0358 95.1501 21.8061 94.4259 21.8061C92.9735 21.8061 91.4936 22.5867 91.4936 24.0436C91.4936 25.3761 92.6832 26.2343 94.0205 26.2343C95.0431 26.2343 95.6074 25.7838 95.9618 25.2597H96.0138V26.0284H97.4815V22.2138C97.4815 20.4507 96.1329 19.4643 94.3862 19.4643ZM94.2029 24.9137C93.7058 24.9137 93.0132 24.673 93.0132 24.0714C93.0132 23.3017 93.8769 23.0064 94.6245 23.0064C95.2937 23.0064 95.6074 23.1506 96.0138 23.3405C95.8946 24.2613 95.0829 24.9137 94.2029 24.9137ZM102.829 19.682L101.082 23.9928H101.03L99.2241 19.682H97.5853L100.299 25.7062L98.7505 29.0584H100.338L104.519 19.682H102.829ZM89.1306 26.0443H90.6543V16.1001H89.1306V26.0443Z" fill="white"/>
<path d="M10.5042 8.17522C10.2649 8.41985 10.1263 8.80071 10.1263 9.29395V26.8873C10.1263 27.3805 10.2649 27.7614 10.5042 28.006L10.5633 28.0597L20.6609 18.205V17.9723L10.5633 8.11755L10.5042 8.17522Z" fill="url(#paint0_linear_1314_492)"/>
<path d="M24.0231 21.492L20.661 18.2054V17.9727L24.0272 14.6862L24.1026 14.7289L28.0891 16.9435C29.2267 17.572 29.2267 18.6062 28.0891 19.2386L24.1026 21.4492L24.0231 21.492Z" fill="url(#paint1_linear_1314_492)"/>
<path d="M24.101 21.4496L20.6595 18.0895L10.5028 28.0069C10.8807 28.3947 11.4969 28.4414 12.1976 28.0536L24.101 21.4496Z" fill="url(#paint2_linear_1314_492)"/>
<path d="M24.101 14.7291L12.1976 8.12512C11.4969 7.74128 10.8807 7.78801 10.5028 8.17584L20.6595 18.0892L24.101 14.7291Z" fill="url(#paint3_linear_1314_492)"/>
<defs>
<linearGradient id="paint0_linear_1314_492" x1="19.7643" y1="27.0705" x2="6.41712" y2="13.3999" gradientUnits="userSpaceOnUse">
<stop stop-color="#00A0FF"/>
<stop offset="0.0066" stop-color="#00A1FF"/>
<stop offset="0.2601" stop-color="#00BEFF"/>
<stop offset="0.5122" stop-color="#00D2FF"/>
<stop offset="0.7604" stop-color="#00DFFF"/>
<stop offset="1" stop-color="#00E3FF"/>
</linearGradient>
<linearGradient id="paint1_linear_1314_492" x1="29.5705" y1="18.088" x2="9.85453" y2="18.088" gradientUnits="userSpaceOnUse">
<stop stop-color="#FFE000"/>
<stop offset="0.4087" stop-color="#FFBD00"/>
<stop offset="0.7754" stop-color="#FFA500"/>
<stop offset="1" stop-color="#FF9C00"/>
</linearGradient>
<linearGradient id="paint2_linear_1314_492" x1="22.2296" y1="16.2628" x2="4.12972" y2="-2.27564" gradientUnits="userSpaceOnUse">
<stop stop-color="#FF3A44"/>
<stop offset="1" stop-color="#C31162"/>
</linearGradient>
<linearGradient id="paint3_linear_1314_492" x1="7.94616" y1="33.8598" x2="16.0286" y2="25.5816" gradientUnits="userSpaceOnUse">
<stop stop-color="#32A071"/>
<stop offset="0.0685" stop-color="#2DA771"/>
<stop offset="0.4762" stop-color="#15CF74"/>
<stop offset="0.8009" stop-color="#06E775"/>
<stop offset="1" stop-color="#00F076"/>
</linearGradient>
</defs>
</svg>
