<svg width="332" height="64" viewBox="0 0 332 64" fill="none" xmlns="http://www.w3.org/2000/svg">
<path fill-rule="evenodd" clip-rule="evenodd" d="M43.4464 11.2889C45.1052 11.2889 46.4622 12.6459 46.4622 14.3045V23.9309C46.4622 25.5897 45.1052 26.9467 43.4464 26.9467C41.7876 26.9467 40.4306 25.5897 40.4306 23.9309V14.3045C40.4306 12.6459 41.7876 11.2889 43.4464 11.2889Z" fill="#1B1642"/>
<path fill-rule="evenodd" clip-rule="evenodd" d="M16.4932 20.566H16.4933C18.152 20.566 19.509 21.9231 19.509 23.5819V25.8261C19.509 27.4849 18.152 28.8419 16.4933 28.8419H16.4932C14.8344 28.8419 13.4773 27.4849 13.4773 25.8261V23.5819C13.4773 21.9231 14.8344 20.566 16.4932 20.566Z" fill="#1B1642"/>
<path fill-rule="evenodd" clip-rule="evenodd" d="M29.969 7.74866H29.9691C31.6277 7.74866 32.9848 9.1057 32.9848 10.7645V26.3485C32.9848 28.0073 31.6277 29.3643 29.9691 29.3643H29.969C28.3102 29.3643 26.9531 28.0073 26.9531 26.3485V10.7645C26.9531 9.1057 28.3102 7.74866 29.969 7.74866Z" fill="#1B1642"/>
<path fill-rule="evenodd" clip-rule="evenodd" d="M56.9217 3.35706C58.5805 3.35706 59.9375 4.7141 59.9375 6.37271V28.0923C59.9375 29.7511 58.5805 31.1081 56.9217 31.1081C55.2629 31.1081 53.9059 29.7511 53.9059 28.0923V6.37271C53.9059 4.7141 55.2629 3.35706 56.9217 3.35706Z" fill="#1B1642"/>
<path fill-rule="evenodd" clip-rule="evenodd" d="M3.01583 16.7653C4.67443 16.7653 6.03147 18.1223 6.03147 19.7809V26.4272C6.03147 28.0858 4.67443 29.4428 3.01583 29.4428C1.35704 29.4428 0 28.0858 0 26.4272V19.7809C0 18.1223 1.35704 16.7653 3.01583 16.7653Z" fill="#1B1642"/>
<path fill-rule="evenodd" clip-rule="evenodd" d="M70.3994 21.6209H70.3996C72.0582 21.6209 73.4153 22.9778 73.4153 24.6364V25.2905C73.4153 26.9493 72.0582 28.3062 70.3996 28.3062H70.3994C68.7408 28.3062 67.3838 26.9493 67.3838 25.2905V24.6364C67.3838 22.9778 68.7408 21.6209 70.3994 21.6209Z" fill="#1B1642"/>
<path fill-rule="evenodd" clip-rule="evenodd" d="M83.8748 19.9222C85.5334 19.9222 86.8904 21.2793 86.8904 22.9381V25.2594C86.8904 26.9182 85.5334 28.2752 83.8748 28.2752C82.216 28.2752 80.859 26.9182 80.859 25.2594V22.9381C80.859 21.2793 82.216 19.9222 83.8748 19.9222Z" fill="#1B1642"/>
<path fill-rule="evenodd" clip-rule="evenodd" d="M16.4932 0H16.4933C18.152 0 19.509 1.35705 19.509 3.01565V14.653C19.509 16.3116 18.152 17.6687 16.4933 17.6687H16.4932C14.8344 17.6687 13.4773 16.3116 13.4773 14.653V3.01565C13.4773 1.35705 14.8344 0 16.4932 0Z" fill="#1B1642"/>
<path fill-rule="evenodd" clip-rule="evenodd" d="M69.8745 13.5549H70.9245C72.2943 13.5549 73.4153 14.6756 73.4153 16.0454C73.4153 17.4154 72.2943 18.5362 70.9245 18.5362H69.8745C68.5045 18.5362 67.3838 17.4154 67.3838 16.0454C67.3838 14.6756 68.5045 13.5549 69.8745 13.5549Z" fill="#1B1642"/>
<path fill-rule="evenodd" clip-rule="evenodd" d="M70.3994 0.137512H70.3996C72.0582 0.137512 73.4153 1.49436 73.4153 3.15297V7.65784C73.4153 9.31644 72.0582 10.6735 70.3996 10.6735H70.3994C68.7408 10.6735 67.3838 9.31644 67.3838 7.65784V3.15297C67.3838 1.49436 68.7408 0.137512 70.3994 0.137512Z" fill="#1B1642"/>
<path fill-rule="evenodd" clip-rule="evenodd" d="M83.8748 3.14648C85.5334 3.14648 86.8904 4.50353 86.8904 6.16231V12.0572C86.8904 13.7158 85.5334 15.0729 83.8748 15.0729C82.216 15.0729 80.859 13.7158 80.859 12.0572V6.16231C80.859 4.50353 82.216 3.14648 83.8748 3.14648Z" fill="#1B1642"/>
<path fill-rule="evenodd" clip-rule="evenodd" d="M3.01583 1.90216C4.67443 1.90216 6.03147 3.2592 6.03147 4.91799V10.8069C6.03147 12.4657 4.67443 13.8227 3.01583 13.8227C1.35704 13.8227 0 12.4657 0 10.8069V4.91799C0 3.2592 1.35704 1.90216 3.01583 1.90216Z" fill="#1B1642"/>
<path fill-rule="evenodd" clip-rule="evenodd" d="M46.4572 32.891C46.46 32.9461 46.4614 33.0019 46.4614 33.0569V39.2027C45.7795 39.7537 45.5031 40.4571 45.5031 41.246C45.5031 42.0349 45.7795 42.7717 46.4614 43.2454V57.7174C46.4614 59.4821 45.1039 60.9266 43.4456 60.9266C41.7876 60.9266 40.4298 59.4825 40.4298 57.7174V43.2638C41.1237 42.7431 41.4579 42.0017 41.4579 41.1931C41.4579 40.3847 41.1343 39.6543 40.4298 39.1447V33.0569C40.4298 33.0013 40.4312 32.9461 40.4338 32.891H46.4572Z" fill="#1B1642"/>
<path fill-rule="evenodd" clip-rule="evenodd" d="M16.4925 34.7535H16.4927C18.1513 34.7535 19.5083 36.1106 19.5083 37.7694V42.0647C19.5083 43.7235 18.1513 45.0806 16.4927 45.0806H16.4925C14.8337 45.0806 13.4767 43.7235 13.4767 42.0647V37.7694C13.4767 36.1106 14.8337 34.7535 16.4925 34.7535Z" fill="#1B1642"/>
<path fill-rule="evenodd" clip-rule="evenodd" d="M29.9164 33.8848H30.0215C31.6513 33.8848 32.9848 35.2183 32.9848 36.8481C32.9848 38.4779 31.6513 39.8112 30.0215 39.8112H29.9164C28.2865 39.8112 26.9531 38.4779 26.9531 36.8481C26.9531 35.2183 28.2865 33.8848 29.9164 33.8848Z" fill="#1B1642"/>
<path fill-rule="evenodd" clip-rule="evenodd" d="M56.9217 32.9701C58.5805 32.9701 59.9375 34.3271 59.9375 35.9859V40.0197C59.9375 41.6785 58.5805 43.0355 56.9217 43.0355C55.2629 43.0355 53.9059 41.6785 53.9059 40.0197V35.9859C53.9059 34.3271 55.2629 32.9701 56.9217 32.9701Z" fill="#1B1642"/>
<path fill-rule="evenodd" clip-rule="evenodd" d="M2.80378 32.5992H3.22787C4.76997 32.5992 6.03147 33.8609 6.03147 35.403V35.4032C6.03147 36.9453 4.76997 38.207 3.22787 38.207H2.80378C1.26168 38.207 0 36.9453 0 35.4032V35.403C0 33.8609 1.26168 32.5992 2.80378 32.5992Z" fill="#1B1642"/>
<path fill-rule="evenodd" clip-rule="evenodd" d="M70.3985 35.2777H70.3987C72.0573 35.2777 73.4144 36.6346 73.4144 38.2932V41.2565C73.4144 42.9151 72.0573 44.2721 70.3987 44.2721H70.3985C68.7399 44.2721 67.3829 42.9151 67.3829 41.2565V38.2932C67.3829 36.6346 68.7399 35.2777 70.3985 35.2777Z" fill="#1B1642"/>
<path fill-rule="evenodd" clip-rule="evenodd" d="M83.6443 32.3611H84.1051C85.6372 32.3611 86.8905 33.6146 86.8905 35.1467V35.1469C86.8905 36.679 85.6372 37.9324 84.1051 37.9324H83.6443C82.1125 37.9324 80.859 36.679 80.859 35.1469V35.1467C80.859 33.6146 82.1125 32.3611 83.6443 32.3611Z" fill="#1B1642"/>
<path fill-rule="evenodd" clip-rule="evenodd" d="M29.969 43.7666H29.9691C31.6277 43.7666 32.9848 45.1236 32.9848 46.7824V50.7611C32.9848 52.4197 31.6277 53.7768 29.9691 53.7768H29.969C28.3102 53.7768 26.9531 52.4197 26.9531 50.7611V46.7824C26.9531 45.1236 28.3102 43.7666 29.969 43.7666Z" fill="#1B1642"/>
<path fill-rule="evenodd" clip-rule="evenodd" d="M56.8429 47.0326H57.0005C58.6158 47.0326 59.9375 48.3544 59.9375 49.9698C59.9375 51.5852 58.6158 52.9069 57.0005 52.9069H56.8429C55.2275 52.9069 53.9059 51.5852 53.9059 49.9698C53.9059 48.3544 55.2275 47.0326 56.8429 47.0326Z" fill="#1B1642"/>
<path d="M128.677 44.688V47.1572H132.777C133.137 47.1572 133.429 47.2569 133.648 47.4604C133.871 47.664 133.983 47.9282 133.983 48.2487C133.983 48.5695 133.871 48.8336 133.644 49.0373C133.417 49.2408 133.129 49.3405 132.777 49.3405H128.677V56.1979C128.677 56.4969 128.776 56.7438 128.973 56.9431C129.17 57.1424 129.415 57.2421 129.707 57.2421H131.845C132.073 57.2421 132.274 57.177 132.451 57.0428C132.627 56.9128 132.76 56.7265 132.85 56.4796C132.858 56.4535 132.88 56.393 132.914 56.302C133.107 55.6998 133.455 55.3966 133.957 55.3966C134.249 55.3966 134.498 55.5005 134.704 55.7086C134.911 55.9164 135.014 56.1547 135.014 56.4276C135.014 57.1814 134.696 57.8702 134.056 58.4895C133.421 59.1135 132.674 59.4252 131.819 59.4252H129.707C128.819 59.4252 128.059 59.1047 127.432 58.468C126.801 57.8268 126.487 57.0643 126.487 56.172V49.3405H125.581C125.212 49.3405 124.92 49.2408 124.701 49.0417C124.482 48.8424 124.375 48.578 124.375 48.2487C124.375 47.937 124.487 47.677 124.714 47.4691C124.942 47.2611 125.229 47.1572 125.581 47.1572H126.487V44.688C126.487 44.3155 126.586 44.0208 126.783 43.8086C126.981 43.5964 127.243 43.4923 127.569 43.4923C127.887 43.4923 128.153 43.6006 128.363 43.8216C128.574 44.0425 128.677 44.3328 128.677 44.688ZM144.45 49.3144C144.339 49.3144 144.231 49.3361 144.115 49.3839C144.004 49.4315 143.888 49.4964 143.772 49.583L142.853 50.3542C142.733 50.4494 142.638 50.5708 142.57 50.7182C142.497 50.8653 142.462 51.017 142.462 51.1687V52.6415H148.799V51.1687C148.799 51.017 148.765 50.8653 148.692 50.7182C148.623 50.5708 148.533 50.4538 148.421 50.3672L147.481 49.583C147.369 49.4964 147.258 49.4315 147.146 49.3839C147.035 49.3361 146.923 49.3144 146.811 49.3144H144.45ZM144.424 47.1572H146.811C147.172 47.1572 147.533 47.2221 147.889 47.3521C148.245 47.4865 148.572 47.6726 148.876 47.9197L149.804 48.669C150.156 48.9637 150.439 49.3361 150.649 49.7823C150.86 50.2328 150.963 50.6965 150.963 51.1687V53.7635C150.963 54.0753 150.851 54.3353 150.624 54.5431C150.396 54.7468 150.109 54.8507 149.756 54.8507H142.462V55.4227C142.462 55.5742 142.497 55.7259 142.57 55.8688C142.638 56.0118 142.733 56.133 142.853 56.224L143.772 57.0123C143.87 57.0904 143.973 57.1467 144.076 57.1857C144.184 57.2248 144.308 57.2421 144.45 57.2421H149.756C150.117 57.2421 150.409 57.3416 150.628 57.5453C150.851 57.7488 150.963 58.0131 150.963 58.3337C150.963 58.6542 150.851 58.9186 150.624 59.122C150.396 59.3257 150.109 59.4252 149.756 59.4252H144.424C144.064 59.4252 143.712 59.3603 143.368 59.2347C143.025 59.1091 142.699 58.9227 142.385 58.6759L141.458 57.8875C141.097 57.5929 140.814 57.2248 140.608 56.7828C140.402 56.341 140.299 55.8905 140.299 55.4227V51.1687C140.299 50.6965 140.402 50.2328 140.608 49.7823C140.814 49.3361 141.097 48.9637 141.458 48.669L142.385 47.9197C142.699 47.664 143.025 47.4735 143.368 47.3477C143.712 47.2221 144.064 47.1572 144.424 47.1572ZM161.365 47.1572H165.68C166.032 47.1572 166.32 47.2611 166.547 47.4691C166.775 47.677 166.886 47.937 166.886 48.2487C166.886 48.578 166.779 48.838 166.564 49.0286C166.354 49.2193 166.058 49.3144 165.68 49.3144H161.365C161.241 49.3144 161.121 49.3405 161 49.3969C160.885 49.4532 160.76 49.5398 160.623 49.6567L158.699 51.3419C158.609 51.4199 158.532 51.5238 158.472 51.6624C158.416 51.7968 158.386 51.931 158.386 52.0653V54.4912C158.386 54.6341 158.416 54.777 158.476 54.9158C158.532 55.0544 158.605 55.1627 158.686 55.2363L160.636 56.9387C160.786 57.0557 160.919 57.138 161.026 57.177C161.133 57.2204 161.249 57.2421 161.365 57.2421H165.68C166.041 57.2421 166.333 57.3416 166.552 57.5453C166.775 57.7488 166.886 58.0131 166.886 58.3337C166.886 58.6542 166.775 58.9186 166.547 59.122C166.32 59.3257 166.032 59.4252 165.68 59.4252H161.365C161.005 59.4252 160.636 59.356 160.253 59.2174C159.871 59.0744 159.549 58.8969 159.292 58.6759L157.355 56.9518C156.986 56.6226 156.703 56.2457 156.51 55.821C156.317 55.401 156.222 54.9546 156.222 54.4912V52.0912C156.222 51.6365 156.317 51.1946 156.51 50.7657C156.703 50.3411 156.986 49.9601 157.355 49.6308L159.292 47.9197C159.549 47.6899 159.871 47.5081 160.253 47.3652C160.636 47.2265 161.005 47.1572 161.365 47.1572ZM174.31 43.8042V48.9593L175.881 47.9197C175.915 47.8936 175.958 47.8633 176.01 47.8287C176.662 47.3825 177.31 47.1572 177.946 47.1572H179.307C180.187 47.1572 180.934 47.4604 181.552 48.0712C182.166 48.682 182.492 49.4488 182.527 50.3801L182.784 58.182V58.2341C182.784 58.5719 182.686 58.8535 182.484 59.083C182.282 59.3127 182.037 59.4252 181.754 59.4252C181.427 59.4252 181.161 59.3213 180.955 59.1091C180.749 58.8969 180.638 58.6152 180.62 58.26L180.363 50.3801C180.346 50.0769 180.238 49.8257 180.041 49.6308C179.843 49.4359 179.599 49.3405 179.307 49.3405H177.92C177.796 49.3405 177.68 49.3622 177.577 49.4054C177.469 49.4444 177.328 49.531 177.143 49.6567L174.31 51.5844V58.208C174.31 58.572 174.211 58.8664 174.009 59.0874C173.807 59.3127 173.545 59.4252 173.227 59.4252C172.91 59.4252 172.648 59.3127 172.446 59.083C172.244 58.8535 172.146 58.5632 172.146 58.208V43.8042C172.146 43.4317 172.244 43.1327 172.442 42.9119C172.639 42.691 172.901 42.5827 173.227 42.5827C173.537 42.5827 173.794 42.6953 174 42.9249C174.207 43.1544 174.31 43.4447 174.31 43.8042ZM190.233 48.3875V49.0632L191.491 48.1968L191.568 48.1492C192.491 47.4864 193.358 47.1572 194.174 47.1572H195.153C196.252 47.1572 197.076 47.4908 197.622 48.158C198.167 48.8293 198.459 49.8518 198.502 51.2292L198.734 58.208V58.26C198.734 58.5979 198.63 58.8752 198.424 59.0961C198.218 59.3169 197.961 59.4252 197.652 59.4252C197.334 59.4252 197.076 59.3169 196.883 59.1003C196.69 58.8881 196.587 58.5893 196.57 58.208L196.312 51.1556C196.286 50.5448 196.162 50.0942 195.943 49.804C195.72 49.5137 195.389 49.3664 194.951 49.3664H194.247C193.861 49.3664 193.384 49.5527 192.813 49.9252L192.736 49.9774L190.233 51.6365V58.208C190.233 58.572 190.134 58.8664 189.933 59.0874C189.731 59.3127 189.469 59.4252 189.151 59.4252C188.833 59.4252 188.571 59.3127 188.37 59.083C188.168 58.8535 188.069 58.5632 188.069 58.208V48.3875C188.069 48.0148 188.168 47.716 188.365 47.495C188.563 47.2698 188.825 47.1572 189.151 47.1572C189.46 47.1572 189.718 47.2699 189.924 47.4994C190.13 47.7289 190.233 48.0236 190.233 48.3875ZM208.144 49.3144C208.033 49.3144 207.925 49.3361 207.809 49.3839C207.698 49.4315 207.582 49.4964 207.466 49.5788L206.547 50.3542C206.427 50.4494 206.333 50.5665 206.264 50.7182C206.191 50.8653 206.156 51.0126 206.156 51.1643V55.4269C206.156 55.5786 206.191 55.7301 206.264 55.8732C206.333 56.0161 206.427 56.133 206.547 56.2284L207.479 57.0123C207.578 57.0904 207.685 57.1467 207.796 57.1857C207.912 57.2248 208.024 57.2421 208.144 57.2421H210.505C210.626 57.2421 210.742 57.2204 210.858 57.177C210.978 57.138 211.085 57.0774 211.184 56.9994L212.103 56.2284C212.214 56.1418 212.304 56.0247 212.382 55.8732C212.455 55.7215 212.493 55.5698 212.493 55.4269V51.1643C212.493 51.0126 212.459 50.8653 212.386 50.7182C212.317 50.5665 212.227 50.4494 212.115 50.3672L211.175 49.5788C211.064 49.4964 210.952 49.4315 210.84 49.3839C210.729 49.3361 210.617 49.3144 210.505 49.3144H208.144ZM208.118 47.1572H210.505C210.866 47.1572 211.227 47.2221 211.583 47.3521C211.939 47.4865 212.266 47.6726 212.571 47.9197L213.498 48.669C213.85 48.9637 214.133 49.3361 214.344 49.7823C214.554 50.2328 214.657 50.6921 214.657 51.1643V55.4269C214.657 55.8947 214.554 56.3452 214.348 56.7872C214.142 57.2248 213.859 57.5929 213.498 57.8875L212.571 58.6759C212.266 58.9142 211.939 59.0961 211.583 59.2303C211.227 59.3603 210.866 59.4252 210.505 59.4252H208.118C207.758 59.4252 207.406 59.3603 207.062 59.2347C206.719 59.1091 206.393 58.9227 206.079 58.6759L205.152 57.8875C204.791 57.5929 204.508 57.2248 204.302 56.7872C204.096 56.3452 203.993 55.8947 203.993 55.4269V51.1643C203.993 50.6921 204.096 50.2328 204.302 49.7823C204.508 49.3361 204.791 48.9637 205.152 48.669L206.079 47.9197C206.393 47.664 206.719 47.4735 207.062 47.3477C207.406 47.2221 207.758 47.1572 208.118 47.1572ZM222.179 42.5827H225.124C225.485 42.5827 225.777 42.6822 225.996 42.8859C226.219 43.0895 226.33 43.3537 226.33 43.6742V57.2421H228.318C228.67 57.2421 228.953 57.3416 229.172 57.5409C229.392 57.7402 229.499 58.0044 229.499 58.3337C229.499 58.6542 229.387 58.9186 229.164 59.122C228.945 59.3257 228.662 59.4252 228.318 59.4252H222.179C221.818 59.4252 221.526 59.3257 221.307 59.122C221.084 58.9186 220.973 58.6542 220.973 58.3337C220.973 58.0131 221.084 57.7488 221.312 57.5453C221.539 57.3416 221.827 57.2421 222.179 57.2421H224.141V44.766H222.179C221.81 44.766 221.518 44.6663 221.299 44.467C221.08 44.2677 220.973 44.0035 220.973 43.6742C220.973 43.3537 221.084 43.0895 221.312 42.8859C221.539 42.6822 221.827 42.5827 222.179 42.5827ZM239.992 49.3144C239.88 49.3144 239.772 49.3361 239.656 49.3839C239.545 49.4315 239.429 49.4964 239.313 49.5788L238.394 50.3542C238.274 50.4494 238.18 50.5665 238.111 50.7182C238.038 50.8653 238.004 51.0126 238.004 51.1643V55.4269C238.004 55.5786 238.038 55.7301 238.111 55.8732C238.18 56.0161 238.274 56.133 238.394 56.2284L239.326 57.0123C239.425 57.0904 239.532 57.1467 239.644 57.1857C239.759 57.2248 239.871 57.2421 239.992 57.2421H242.353C242.473 57.2421 242.589 57.2204 242.705 57.177C242.825 57.138 242.932 57.0774 243.031 56.9994L243.95 56.2284C244.061 56.1418 244.152 56.0247 244.229 55.8732C244.302 55.7215 244.34 55.5698 244.34 55.4269V51.1643C244.34 51.0126 244.306 50.8653 244.233 50.7182C244.164 50.5665 244.074 50.4494 243.963 50.3672L243.022 49.5788C242.911 49.4964 242.799 49.4315 242.688 49.3839C242.576 49.3361 242.464 49.3144 242.353 49.3144H239.992ZM239.966 47.1572H242.353C242.713 47.1572 243.074 47.2221 243.43 47.3521C243.787 47.4865 244.113 47.6726 244.418 47.9197L245.345 48.669C245.697 48.9637 245.98 49.3361 246.191 49.7823C246.401 50.2328 246.504 50.6921 246.504 51.1643V55.4269C246.504 55.8947 246.401 56.3452 246.195 56.7872C245.989 57.2248 245.706 57.5929 245.345 57.8875L244.418 58.6759C244.113 58.9142 243.787 59.0961 243.43 59.2303C243.074 59.3603 242.713 59.4252 242.353 59.4252H239.966C239.605 59.4252 239.253 59.3603 238.909 59.2347C238.566 59.1091 238.24 58.9227 237.926 58.6759L236.999 57.8875C236.638 57.5929 236.355 57.2248 236.149 56.7872C235.943 56.3452 235.84 55.8947 235.84 55.4269V51.1643C235.84 50.6921 235.943 50.2328 236.149 49.7823C236.355 49.3361 236.638 48.9637 236.999 48.669L237.926 47.9197C238.24 47.664 238.566 47.4735 238.909 47.3477C239.253 47.2221 239.605 47.1572 239.966 47.1572ZM260.238 48.3614C260.238 47.9975 260.337 47.7074 260.534 47.4865C260.732 47.2655 260.994 47.1572 261.32 47.1572C261.638 47.1572 261.904 47.2698 262.114 47.495C262.325 47.716 262.428 48.0063 262.428 48.3614V59.9972C262.428 60.465 262.325 60.9156 262.119 61.3573C261.913 61.7993 261.629 62.1718 261.269 62.475L260.315 63.2504C260.002 63.4975 259.676 63.6836 259.332 63.8092C258.989 63.9349 258.637 63.9999 258.276 63.9999H254.052C253.7 63.9999 253.412 63.9002 253.184 63.6965C252.957 63.4931 252.845 63.2287 252.845 62.9082C252.845 62.5877 252.957 62.3235 253.18 62.1198C253.399 61.9162 253.691 61.8166 254.052 61.8166H258.25C258.409 61.8166 258.542 61.7993 258.641 61.7646C258.744 61.73 258.843 61.6737 258.942 61.5871L259.886 60.7985C259.985 60.7119 260.066 60.6036 260.131 60.4607C260.195 60.3221 260.23 60.166 260.238 59.9972V57.9654L259.435 58.6759C259.165 58.9142 258.847 59.0961 258.482 59.2303C258.122 59.3603 257.748 59.4252 257.37 59.4252H255.7C255.322 59.4252 254.966 59.3647 254.623 59.2435C254.284 59.1177 253.957 58.9315 253.64 58.6759L252.897 58.1041C252.566 57.8441 252.291 57.4846 252.072 57.0255C251.849 56.5706 251.738 56.1286 251.738 55.7086V50.9521C251.738 50.4928 251.845 50.0379 252.06 49.583C252.274 49.1239 252.553 48.76 252.897 48.4914L253.64 47.9197C253.957 47.664 254.284 47.4735 254.623 47.3477C254.966 47.2221 255.322 47.1572 255.7 47.1572H257.37C257.748 47.1572 258.122 47.2265 258.482 47.3608C258.847 47.495 259.165 47.6814 259.435 47.9197L260.238 48.617V48.3614ZM260.264 54.6948V51.9137C260.264 51.7707 260.234 51.6278 260.169 51.4848C260.105 51.3419 260.032 51.2336 259.951 51.1687L258.126 49.6567C258.001 49.5571 257.873 49.4791 257.744 49.4227C257.615 49.3664 257.49 49.3405 257.37 49.3405H255.7C255.567 49.3405 255.438 49.3622 255.322 49.4098C255.206 49.4574 255.082 49.5398 254.957 49.6567L254.241 50.2286C254.15 50.3023 254.073 50.4106 254.013 50.5535C253.957 50.6921 253.927 50.835 253.927 50.978V55.6305C253.927 55.7649 253.957 55.9035 254.013 56.042C254.073 56.185 254.15 56.2847 254.241 56.354L254.945 56.9257L254.983 56.9518C255.228 57.1467 255.464 57.2421 255.7 57.2421H257.37C257.516 57.2421 257.645 57.216 257.761 57.164C257.877 57.1165 258.001 57.034 258.126 56.9257L259.951 55.4529C260.032 55.3793 260.105 55.2666 260.169 55.1237C260.234 54.9807 260.264 54.8378 260.264 54.6948ZM269.949 47.1572H272.894C273.255 47.1572 273.547 47.2569 273.766 47.4604C273.989 47.664 274.101 47.9282 274.101 48.2487V57.2421H276.089C276.441 57.2421 276.724 57.3416 276.943 57.5409C277.162 57.7402 277.269 58.0044 277.269 58.3337C277.269 58.6542 277.158 58.9186 276.934 59.122C276.715 59.3257 276.432 59.4252 276.089 59.4252H269.949C269.589 59.4252 269.297 59.3257 269.078 59.122C268.855 58.9186 268.743 58.6542 268.743 58.3337C268.743 58.0131 268.855 57.7488 269.082 57.5453C269.31 57.3416 269.597 57.2421 269.949 57.2421H271.911V49.3405H269.949C269.58 49.3405 269.288 49.2408 269.069 49.0417C268.85 48.8424 268.743 48.578 268.743 48.2487C268.743 47.937 268.855 47.677 269.082 47.4691C269.31 47.2611 269.597 47.1572 269.949 47.1572ZM272.062 41.6729H273.118C273.362 41.6729 273.586 41.7812 273.792 42.0021C273.998 42.2231 274.101 42.4743 274.101 42.7646V43.6742C274.101 43.9906 273.989 44.2504 273.762 44.454C273.534 44.6619 273.247 44.766 272.894 44.766H272.062C271.693 44.766 271.401 44.6663 271.182 44.467C270.963 44.2677 270.855 44.0035 270.855 43.6742V42.7646C270.855 42.4397 270.967 42.1797 271.19 41.9761C271.409 41.7726 271.701 41.6729 272.062 41.6729ZM287.762 49.3144C287.65 49.3144 287.543 49.3361 287.427 49.3839C287.316 49.4315 287.2 49.4964 287.083 49.583L286.165 50.3542C286.045 50.4494 285.95 50.5708 285.882 50.7182C285.809 50.8653 285.774 51.017 285.774 51.1687V52.6415H292.111V51.1687C292.111 51.017 292.077 50.8653 292.004 50.7182C291.935 50.5708 291.845 50.4538 291.733 50.3672L290.793 49.583C290.681 49.4964 290.57 49.4315 290.458 49.3839C290.347 49.3361 290.235 49.3144 290.123 49.3144H287.762ZM287.736 47.1572H290.123C290.484 47.1572 290.844 47.2221 291.201 47.3521C291.557 47.4865 291.884 47.6726 292.188 47.9197L293.116 48.669C293.468 48.9637 293.751 49.3361 293.961 49.7823C294.172 50.2328 294.275 50.6965 294.275 51.1687V53.7635C294.275 54.0753 294.163 54.3353 293.936 54.5431C293.708 54.7468 293.42 54.8507 293.068 54.8507H285.774V55.4227C285.774 55.5742 285.809 55.7259 285.882 55.8688C285.95 56.0118 286.045 56.133 286.165 56.224L287.083 57.0123C287.182 57.0904 287.285 57.1467 287.388 57.1857C287.496 57.2248 287.62 57.2421 287.762 57.2421H293.068C293.429 57.2421 293.721 57.3416 293.94 57.5453C294.163 57.7488 294.275 58.0131 294.275 58.3337C294.275 58.6542 294.163 58.9186 293.936 59.122C293.708 59.3257 293.42 59.4252 293.068 59.4252H287.736C287.376 59.4252 287.024 59.3603 286.68 59.2347C286.337 59.1091 286.01 58.9227 285.697 58.6759L284.77 57.8875C284.409 57.5929 284.126 57.2248 283.92 56.7828C283.713 56.341 283.61 55.8905 283.61 55.4227V51.1687C283.61 50.6965 283.713 50.2328 283.92 49.7823C284.126 49.3361 284.409 48.9637 284.77 48.669L285.697 47.9197C286.01 47.664 286.337 47.4735 286.68 47.3477C287.024 47.2221 287.376 47.1572 287.736 47.1572ZM302.556 47.1572H307.129C307.837 47.1572 308.481 47.3781 309.065 47.8157C309.649 48.2575 309.941 48.7036 309.941 49.1585C309.941 49.4661 309.833 49.7218 309.619 49.934C309.404 50.1462 309.151 50.2501 308.854 50.2501C308.588 50.2501 308.301 50.0986 307.992 49.7954C307.687 49.4922 307.391 49.3405 307.103 49.3405H302.556C302.372 49.3405 302.222 49.4012 302.106 49.5225C301.99 49.6481 301.93 49.8127 301.93 50.0249C301.93 50.1159 301.968 50.2155 302.041 50.3152C302.119 50.4148 302.209 50.4928 302.32 50.5404L308.159 53.0574C308.782 53.3345 309.271 53.7462 309.632 54.2919C309.992 54.8378 310.173 55.4486 310.173 56.1286C310.173 57.0297 309.851 57.8095 309.202 58.4549C308.558 59.1003 307.794 59.4252 306.905 59.4252H302.659C301.904 59.4252 301.191 59.2044 300.53 58.7581C299.864 58.3163 299.534 57.8702 299.534 57.4239C299.534 57.1338 299.637 56.8825 299.843 56.6616C300.049 56.4406 300.298 56.3323 300.59 56.3323C300.826 56.3323 301.148 56.484 301.547 56.7872C301.951 57.0904 302.32 57.2421 302.659 57.2421H306.905C307.197 57.2421 307.455 57.1338 307.674 56.9128C307.897 56.6918 308.009 56.432 308.009 56.1286C308.009 55.8991 307.944 55.6912 307.82 55.5005C307.695 55.31 307.524 55.1712 307.305 55.089L301.5 52.5376C300.964 52.3078 300.543 51.9614 300.229 51.4978C299.92 51.0299 299.766 50.5231 299.766 49.973C299.766 49.1932 300.036 48.5304 300.582 47.9802C301.127 47.4301 301.788 47.1572 302.556 47.1572Z" fill="#B2454A"/>
<path fill-rule="evenodd" clip-rule="evenodd" d="M120.83 22.0612L132.459 7.78722H138.233V35.1713H131.479V18.4979L120.827 31.4248L110.175 18.4979V35.1713H103.421V7.78722H109.253L120.83 22.0612ZM159.09 35.8191C154.289 35.8191 150.048 34.5561 146.661 31.7616C143.258 28.9553 141.75 25.4577 141.75 21.5332C141.75 17.5992 143.263 14.0949 146.682 11.2875C150.073 8.50394 154.293 7.23206 159.09 7.23206C163.907 7.23206 168.144 8.50832 171.553 11.3021C174.974 14.1062 176.505 17.5983 176.505 21.5332C176.505 25.4654 174.981 28.9618 171.562 31.7643C168.157 34.5557 163.9 35.8191 159.09 35.8191ZM202.059 24.3716V7.78722H208.87V35.1713H204.743L187.003 18.5799V35.1713H180.192V7.78722H184.378L202.059 24.3716ZM229.632 7.78722C234.414 7.78722 238.842 8.86696 242.321 11.6093C245.729 14.2959 247.199 17.7121 247.199 21.5487C247.199 25.3494 245.799 28.793 242.39 31.4473C238.893 34.1697 234.389 35.1713 229.632 35.1713H215V7.78722H229.632ZM250.943 35.1713V7.64848H257.811V35.1713H250.943ZM285.874 24.3716V7.78722H292.685V35.1713H288.558L270.818 18.5799V35.1713H264.007V7.78722H268.192L285.874 24.3716ZM313.712 35.8191C308.911 35.8191 304.671 34.5561 301.283 31.7616C297.881 28.9553 296.372 25.4577 296.372 21.5332C296.372 17.5992 297.885 14.0949 301.304 11.2875C304.695 8.50394 308.915 7.23206 313.712 7.23206C318.529 7.23206 322.766 8.50832 326.175 11.3021C329.596 14.1062 331.127 17.5983 331.127 21.5332C331.127 25.4654 329.604 28.9618 326.185 31.7643C322.779 34.5557 318.522 35.8191 313.712 35.8191ZM159.099 30.4564C162.028 30.4564 164.526 29.69 166.564 27.9636C168.669 26.1805 169.524 23.9878 169.524 21.5332C169.524 19.0768 168.67 16.8746 166.57 15.0848C164.535 13.3498 162.021 12.5948 159.099 12.5948C156.166 12.5948 153.672 13.37 151.636 15.1012C149.535 16.8878 148.674 19.0771 148.674 21.5332C148.674 23.9878 149.529 26.1805 151.634 27.9636C153.673 29.6902 156.17 30.4564 159.099 30.4564ZM221.811 13.1036V29.855H229.632C232.526 29.855 235.361 29.3093 237.48 27.621C239.551 25.9712 240.275 23.8197 240.275 21.5024C240.275 19.1659 239.492 17.0559 237.42 15.3973C235.296 13.6967 232.548 13.1036 229.632 13.1036H221.811ZM313.721 30.4564C316.651 30.4564 319.148 29.69 321.186 27.9636C323.291 26.1805 324.146 23.9878 324.146 21.5332C324.146 19.0768 323.292 16.8746 321.192 15.0848C319.157 13.3498 316.643 12.5948 313.721 12.5948C310.789 12.5948 308.294 13.37 306.258 15.1012C304.157 16.8878 303.296 19.0771 303.296 21.5332C303.296 23.9878 304.151 26.1805 306.256 27.9636C308.295 29.6902 310.792 30.4564 313.721 30.4564Z" fill="#1B1642"/>
</svg>
