<svg width="193" height="157" viewBox="0 0 193 157" fill="none" xmlns="http://www.w3.org/2000/svg">
<path d="M21.4191 88.742V90.8194H24.91C25.217 90.8194 25.4633 90.905 25.6489 91.0764C25.8417 91.2477 25.938 91.469 25.938 91.7403C25.938 92.0116 25.8417 92.2329 25.6489 92.4042C25.4562 92.5755 25.2099 92.6612 24.91 92.6612H21.4191V98.4544C21.4191 98.7043 21.5012 98.9149 21.6654 99.0862C21.8367 99.2504 22.0473 99.3325 22.2972 99.3325H24.1176C24.3104 99.3325 24.4817 99.279 24.6316 99.1719C24.7815 99.0577 24.8958 98.8971 24.9743 98.69C24.9814 98.6686 24.9993 98.6186 25.0278 98.5401C25.192 98.0333 25.4883 97.7798 25.9166 97.7798C26.1665 97.7798 26.3771 97.8691 26.5484 98.0475C26.7269 98.2189 26.8161 98.4188 26.8161 98.6472C26.8161 99.2826 26.5448 99.8608 26.0023 100.382C25.4597 100.91 24.8244 101.174 24.0962 101.174H22.2972C21.5405 101.174 20.8944 100.903 20.359 100.361C19.8236 99.8251 19.5558 99.1826 19.5558 98.433V92.6612H18.7848C18.4707 92.6612 18.2209 92.5791 18.0353 92.4149C17.8496 92.2436 17.7568 92.0187 17.7568 91.7403C17.7568 91.4762 17.8532 91.2584 18.046 91.0871C18.2387 90.9086 18.485 90.8194 18.7848 90.8194H19.5558V88.742C19.5558 88.4278 19.6379 88.1815 19.8021 88.0031C19.9735 87.8246 20.1983 87.7354 20.4768 87.7354C20.748 87.7354 20.9729 87.8282 21.1514 88.0138C21.3299 88.1994 21.4191 88.4421 21.4191 88.742Z" fill="#B2454A"/>
<path d="M34.8474 92.6398C34.7546 92.6398 34.6582 92.6612 34.5583 92.7041C34.4655 92.7397 34.3691 92.7933 34.2691 92.8647L33.4874 93.5179C33.3875 93.5964 33.3054 93.6999 33.2411 93.8284C33.184 93.9498 33.1555 94.0747 33.1555 94.2032V95.4454H38.5525V94.2032C38.5525 94.0747 38.5204 93.9498 38.4561 93.8284C38.399 93.6999 38.3241 93.6 38.2312 93.5286L37.4281 92.8647C37.3353 92.7933 37.2389 92.7397 37.139 92.7041C37.0462 92.6612 36.9534 92.6398 36.8606 92.6398H34.8474ZM34.826 90.8194H36.8606C37.1675 90.8194 37.471 90.8765 37.7708 90.9907C38.0778 91.0978 38.3597 91.2549 38.6167 91.4619L39.4092 92.0937C39.709 92.3435 39.9482 92.6576 40.1266 93.036C40.3051 93.4144 40.3943 93.8034 40.3943 94.2032V96.3984C40.3943 96.6626 40.298 96.8839 40.1052 97.0624C39.9125 97.2337 39.6662 97.3194 39.3663 97.3194H33.1555V97.8012C33.1555 97.9297 33.184 98.0547 33.2411 98.176C33.3054 98.2974 33.3875 98.3973 33.4874 98.4759L34.2691 99.1398C34.3548 99.204 34.4405 99.254 34.5261 99.2897C34.619 99.3183 34.726 99.3325 34.8474 99.3325H39.3663C39.6733 99.3325 39.9196 99.4182 40.1052 99.5895C40.298 99.7609 40.3943 99.9822 40.3943 100.253C40.3943 100.525 40.298 100.746 40.1052 100.917C39.9125 101.089 39.6662 101.174 39.3663 101.174H34.826C34.519 101.174 34.2192 101.121 33.9265 101.014C33.6338 100.907 33.3554 100.75 33.0912 100.543L32.2988 99.8787C31.9918 99.6288 31.7491 99.3183 31.5706 98.947C31.3993 98.5758 31.3136 98.1939 31.3136 97.8012V94.2032C31.3136 93.8034 31.3993 93.4144 31.5706 93.036C31.7491 92.6576 31.9918 92.3435 32.2988 92.0937L33.0912 91.4619C33.3554 91.2477 33.6338 91.0871 33.9265 90.98C34.2192 90.8729 34.519 90.8194 34.826 90.8194Z" fill="#B2454A"/>
<path d="M49.2502 90.8194H52.9231C53.223 90.8194 53.4693 90.9086 53.662 91.0871C53.8548 91.2584 53.9511 91.4762 53.9511 91.7403C53.9511 92.0187 53.8583 92.24 53.6727 92.4042C53.4942 92.5613 53.2444 92.6398 52.9231 92.6398H49.2502C49.1431 92.6398 49.0396 92.6648 48.9396 92.7148C48.8397 92.7576 48.7326 92.829 48.6184 92.9289L46.98 94.3531C46.9015 94.4174 46.8372 94.5066 46.7872 94.6208C46.7373 94.7351 46.7123 94.8493 46.7123 94.9635V97.0088C46.7123 97.1302 46.7373 97.2515 46.7872 97.3729C46.8372 97.4871 46.8979 97.5764 46.9693 97.6406L48.6291 99.0755C48.7576 99.1755 48.8682 99.2433 48.961 99.279C49.0538 99.3147 49.1502 99.3325 49.2502 99.3325H52.9231C53.2301 99.3325 53.4764 99.4182 53.662 99.5895C53.8548 99.7609 53.9511 99.9822 53.9511 100.253C53.9511 100.525 53.8548 100.746 53.662 100.917C53.4693 101.089 53.223 101.174 52.9231 101.174H49.2502C48.9432 101.174 48.6255 101.114 48.2971 100.992C47.9759 100.878 47.7046 100.728 47.4833 100.543L45.8342 99.0862C45.5201 98.8078 45.2809 98.4901 45.1167 98.1332C44.9525 97.7762 44.8704 97.4015 44.8704 97.0088V94.9849C44.8704 94.5994 44.9525 94.2282 45.1167 93.8713C45.2809 93.5072 45.5201 93.1859 45.8342 92.9075L47.4833 91.4619C47.7046 91.2691 47.9759 91.1156 48.2971 91.0014C48.6255 90.8801 48.9432 90.8194 49.2502 90.8194Z" fill="#B2454A"/>
<path d="M60.2691 87.9924V92.34L61.6076 91.4619C61.6362 91.4405 61.6719 91.4155 61.7147 91.3869C62.2715 91.0086 62.8212 90.8194 63.3638 90.8194H64.5203C65.2699 90.8194 65.9053 91.0764 66.4264 91.5904C66.9547 92.1044 67.2331 92.754 67.2616 93.5393L67.4865 100.125V100.168C67.4865 100.453 67.4009 100.692 67.2295 100.885C67.0582 101.078 66.8512 101.174 66.6084 101.174C66.33 101.174 66.1016 101.085 65.9231 100.907C65.7518 100.728 65.659 100.489 65.6447 100.189L65.4198 93.5393C65.4055 93.2823 65.3127 93.0717 65.1414 92.9075C64.9772 92.7433 64.7702 92.6612 64.5203 92.6612H63.3424C63.2353 92.6612 63.1353 92.6791 63.0425 92.7148C62.9569 92.7505 62.8355 92.8218 62.6785 92.9289L60.2691 94.5566V100.146C60.2691 100.453 60.1834 100.7 60.0121 100.885C59.8407 101.078 59.6194 101.174 59.3482 101.174C59.0769 101.174 58.8556 101.078 58.6842 100.885C58.5129 100.692 58.4272 100.446 58.4272 100.146V87.9924C58.4272 87.6783 58.5093 87.4284 58.6735 87.2428C58.8449 87.0572 59.0697 86.9644 59.3482 86.9644C59.6123 86.9644 59.83 87.0607 60.0014 87.2535C60.1798 87.4462 60.2691 87.6925 60.2691 87.9924Z" fill="#B2454A"/>
<path d="M73.8259 91.8581V92.4256L74.8967 91.6975L74.961 91.6546C75.7462 91.0978 76.4851 90.8194 77.1776 90.8194H78.0129C78.9481 90.8194 79.6477 91.1014 80.1117 91.6653C80.5757 92.2293 80.8256 93.0931 80.8613 94.2568L81.0647 100.146V100.189C81.0647 100.475 80.9755 100.71 80.797 100.896C80.6257 101.082 80.408 101.174 80.1438 101.174C79.8725 101.174 79.6548 101.082 79.4906 100.896C79.3264 100.717 79.2372 100.468 79.2229 100.146L78.998 94.1925C78.9766 93.6785 78.8695 93.3001 78.6768 93.0574C78.4912 92.8076 78.2127 92.6826 77.8415 92.6826H77.2418C76.9135 92.6826 76.5065 92.8397 76.0211 93.1538L75.9568 93.1966L73.8259 94.5994V100.146C73.8259 100.453 73.7402 100.7 73.5689 100.885C73.3975 101.078 73.1762 101.174 72.905 101.174C72.6337 101.174 72.4124 101.078 72.241 100.885C72.0697 100.692 71.984 100.446 71.984 100.146V91.8581C71.984 91.544 72.0661 91.2941 72.2303 91.1085C72.4017 90.9158 72.6265 90.8194 72.905 90.8194C73.1691 90.8194 73.3868 90.9158 73.5582 91.1085C73.7366 91.3013 73.8259 91.5511 73.8259 91.8581Z" fill="#B2454A"/>
<path d="M89.0746 92.6398C88.9818 92.6398 88.8854 92.6612 88.7855 92.7041C88.6927 92.7397 88.5963 92.7933 88.4963 92.8647L87.7146 93.5179C87.6147 93.5964 87.5326 93.6999 87.4683 93.8284C87.4112 93.9498 87.3827 94.0747 87.3827 94.2032V97.8012C87.3827 97.9297 87.4112 98.0547 87.4683 98.176C87.5326 98.2974 87.6147 98.3973 87.7146 98.4759L88.5071 99.1398C88.5927 99.204 88.682 99.254 88.7748 99.2897C88.8747 99.3183 88.9747 99.3325 89.0746 99.3325H91.0878C91.1877 99.3325 91.2877 99.3147 91.3876 99.279C91.4876 99.2433 91.5804 99.1933 91.666 99.1291L92.4477 98.4759C92.5405 98.4045 92.6191 98.3045 92.6833 98.176C92.7476 98.0475 92.7797 97.9226 92.7797 97.8012V94.2032C92.7797 94.0747 92.7476 93.9498 92.6833 93.8284C92.6262 93.6999 92.5512 93.6 92.4584 93.5286L91.6553 92.8647C91.5625 92.7933 91.4661 92.7397 91.3662 92.7041C91.2734 92.6612 91.1806 92.6398 91.0878 92.6398H89.0746ZM89.0532 90.8194H91.0878C91.3948 90.8194 91.6982 90.8765 91.998 90.9907C92.305 91.0978 92.5869 91.2549 92.8439 91.4619L93.6364 92.0937C93.9362 92.3435 94.1754 92.6576 94.3538 93.036C94.5323 93.4144 94.6215 93.8034 94.6215 94.2032V97.8012C94.6215 98.1939 94.5323 98.5758 94.3538 98.947C94.1825 99.3183 93.9433 99.6288 93.6364 99.8787L92.8439 100.543C92.5869 100.742 92.305 100.896 91.998 101.003C91.6982 101.117 91.3948 101.174 91.0878 101.174H89.0532C88.7462 101.174 88.4464 101.121 88.1537 101.014C87.861 100.907 87.5826 100.75 87.3184 100.543L86.526 99.8787C86.219 99.6288 85.9763 99.3183 85.7978 98.947C85.6265 98.5758 85.5408 98.1939 85.5408 97.8012V94.2032C85.5408 93.8034 85.6265 93.4144 85.7978 93.036C85.9763 92.6576 86.219 92.3435 86.526 92.0937L87.3184 91.4619C87.5826 91.2477 87.861 91.0871 88.1537 90.98C88.4464 90.8729 88.7462 90.8194 89.0532 90.8194Z" fill="#B2454A"/>
<path d="M101.025 86.9644H103.531C103.838 86.9644 104.084 87.05 104.27 87.2214C104.463 87.3927 104.559 87.614 104.559 87.8853V99.3325H106.251C106.551 99.3325 106.793 99.4182 106.979 99.5895C107.165 99.7537 107.257 99.975 107.257 100.253C107.257 100.525 107.161 100.746 106.968 100.917C106.783 101.089 106.544 101.174 106.251 101.174H101.025C100.718 101.174 100.468 101.089 100.276 100.917C100.09 100.746 99.9971 100.525 99.9971 100.253C99.9971 99.9822 100.094 99.7609 100.286 99.5895C100.479 99.4182 100.725 99.3325 101.025 99.3325H102.696V88.8062H101.025C100.711 88.8062 100.461 88.7241 100.276 88.5599C100.09 88.3886 99.9971 88.1637 99.9971 87.8853C99.9971 87.614 100.094 87.3927 100.286 87.2214C100.479 87.05 100.725 86.9644 101.025 86.9644Z" fill="#B2454A"/>
<path d="M116.188 92.6398C116.095 92.6398 115.999 92.6612 115.899 92.7041C115.806 92.7397 115.71 92.7933 115.61 92.8647L114.828 93.5179C114.728 93.5964 114.646 93.6999 114.582 93.8284C114.525 93.9498 114.496 94.0747 114.496 94.2032V97.8012C114.496 97.9297 114.525 98.0547 114.582 98.176C114.646 98.2974 114.728 98.3973 114.828 98.4759L115.621 99.1398C115.706 99.204 115.796 99.254 115.888 99.2897C115.988 99.3183 116.088 99.3325 116.188 99.3325H118.201C118.301 99.3325 118.401 99.3147 118.501 99.279C118.601 99.2433 118.694 99.1933 118.78 99.1291L119.561 98.4759C119.654 98.4045 119.733 98.3045 119.797 98.176C119.861 98.0475 119.893 97.9226 119.893 97.8012V94.2032C119.893 94.0747 119.861 93.9498 119.797 93.8284C119.74 93.6999 119.665 93.6 119.572 93.5286L118.769 92.8647C118.676 92.7933 118.58 92.7397 118.48 92.7041C118.387 92.6612 118.294 92.6398 118.201 92.6398H116.188ZM116.167 90.8194H118.201C118.508 90.8194 118.812 90.8765 119.112 90.9907C119.419 91.0978 119.701 91.2549 119.958 91.4619L120.75 92.0937C121.05 92.3435 121.289 92.6576 121.467 93.036C121.646 93.4144 121.735 93.8034 121.735 94.2032V97.8012C121.735 98.1939 121.646 98.5758 121.467 98.947C121.296 99.3183 121.057 99.6288 120.75 99.8787L119.958 100.543C119.701 100.742 119.419 100.896 119.112 101.003C118.812 101.117 118.508 101.174 118.201 101.174H116.167C115.86 101.174 115.56 101.121 115.267 101.014C114.975 100.907 114.696 100.75 114.432 100.543L113.64 99.8787C113.333 99.6288 113.09 99.3183 112.911 98.947C112.74 98.5758 112.654 98.1939 112.654 97.8012V94.2032C112.654 93.8034 112.74 93.4144 112.911 93.036C113.09 92.6576 113.333 92.3435 113.64 92.0937L114.432 91.4619C114.696 91.2477 114.975 91.0871 115.267 90.98C115.56 90.8729 115.86 90.8194 116.167 90.8194Z" fill="#B2454A"/>
<path d="M133.429 91.8367C133.429 91.5297 133.511 91.2834 133.675 91.0978C133.846 90.9122 134.071 90.8194 134.35 90.8194C134.621 90.8194 134.846 90.9158 135.024 91.1085C135.203 91.2941 135.292 91.5368 135.292 91.8367V101.656C135.292 102.049 135.203 102.431 135.024 102.802C134.853 103.173 134.614 103.487 134.307 103.744L133.493 104.398C133.229 104.605 132.95 104.762 132.658 104.869C132.365 104.976 132.065 105.029 131.758 105.029H128.16C127.86 105.029 127.614 104.944 127.421 104.772C127.229 104.601 127.132 104.38 127.132 104.108C127.132 103.837 127.225 103.616 127.411 103.445C127.603 103.273 127.853 103.188 128.16 103.188H131.737C131.872 103.188 131.983 103.173 132.069 103.145C132.154 103.116 132.24 103.066 132.326 102.995L133.129 102.331C133.215 102.259 133.282 102.163 133.332 102.042C133.389 101.928 133.422 101.799 133.429 101.656V99.9429L132.743 100.543C132.515 100.742 132.244 100.896 131.93 101.003C131.623 101.117 131.308 101.174 130.987 101.174H129.563C129.242 101.174 128.935 101.121 128.642 101.014C128.356 100.914 128.078 100.757 127.807 100.543L127.175 100.061C126.897 99.8394 126.661 99.536 126.468 99.1505C126.283 98.765 126.19 98.3938 126.19 98.0368V94.0212C126.19 93.6357 126.279 93.2502 126.458 92.8647C126.643 92.4792 126.882 92.1722 127.175 91.9438L127.807 91.4619C128.078 91.2477 128.356 91.0871 128.642 90.98C128.935 90.8729 129.242 90.8194 129.563 90.8194H130.987C131.308 90.8194 131.623 90.8765 131.93 90.9907C132.244 91.1049 132.515 91.262 132.743 91.4619L133.429 92.0508V91.8367ZM133.45 97.1802V94.835C133.45 94.7137 133.422 94.5923 133.364 94.4709C133.314 94.3496 133.254 94.2603 133.182 94.2032L131.63 92.9289C131.523 92.8433 131.412 92.779 131.298 92.7362C131.191 92.6862 131.087 92.6612 130.987 92.6612H129.563C129.449 92.6612 129.342 92.6826 129.242 92.7255C129.142 92.7612 129.038 92.829 128.931 92.9289L128.321 93.4108C128.242 93.4751 128.178 93.5679 128.128 93.6892C128.078 93.8034 128.053 93.9212 128.053 94.0426V97.9726C128.053 98.0868 128.078 98.2046 128.128 98.3259C128.178 98.4402 128.242 98.5258 128.321 98.5829L128.92 99.0648L128.953 99.0862C129.16 99.2504 129.363 99.3325 129.563 99.3325H130.987C131.109 99.3325 131.219 99.3111 131.319 99.2683C131.419 99.2254 131.523 99.1576 131.63 99.0648L133.182 97.8227C133.254 97.7584 133.314 97.6656 133.364 97.5442C133.422 97.4229 133.45 97.3015 133.45 97.1802Z" fill="#B2454A"/>
<path d="M141.696 90.8194H144.201C144.508 90.8194 144.755 90.905 144.94 91.0764C145.133 91.2477 145.229 91.469 145.229 91.7403V99.3325H146.921C147.221 99.3325 147.464 99.4182 147.649 99.5895C147.835 99.7537 147.928 99.975 147.928 100.253C147.928 100.525 147.831 100.746 147.639 100.917C147.453 101.089 147.214 101.174 146.921 101.174H141.696C141.389 101.174 141.139 101.089 140.946 100.917C140.76 100.746 140.668 100.525 140.668 100.253C140.668 99.9822 140.764 99.7609 140.957 99.5895C141.149 99.4182 141.396 99.3325 141.696 99.3325H143.366V92.6612H141.696C141.381 92.6612 141.132 92.5791 140.946 92.4149C140.76 92.2436 140.668 92.0187 140.668 91.7403C140.668 91.4762 140.764 91.2584 140.957 91.0871C141.149 90.9086 141.396 90.8194 141.696 90.8194ZM143.495 86.1934H144.394C144.601 86.1934 144.79 86.2862 144.962 86.4718C145.14 86.6574 145.229 86.8716 145.229 87.1143V87.8853C145.229 88.1494 145.133 88.3707 144.94 88.5492C144.747 88.7205 144.501 88.8062 144.201 88.8062H143.495C143.18 88.8062 142.931 88.7241 142.745 88.5599C142.559 88.3886 142.467 88.1637 142.467 87.8853V87.1143C142.467 86.843 142.559 86.6217 142.745 86.4504C142.938 86.279 143.188 86.1934 143.495 86.1934Z" fill="#B2454A"/>
<path d="M156.859 92.6398C156.766 92.6398 156.669 92.6612 156.569 92.7041C156.477 92.7397 156.38 92.7933 156.28 92.8647L155.499 93.5179C155.399 93.5964 155.317 93.6999 155.252 93.8284C155.195 93.9498 155.167 94.0747 155.167 94.2032V95.4454H160.564V94.2032C160.564 94.0747 160.532 93.9498 160.467 93.8284C160.41 93.6999 160.335 93.6 160.242 93.5286L159.439 92.8647C159.347 92.7933 159.25 92.7397 159.15 92.7041C159.057 92.6612 158.965 92.6398 158.872 92.6398H156.859ZM156.837 90.8194H158.872C159.179 90.8194 159.482 90.8765 159.782 90.9907C160.089 91.0978 160.371 91.2549 160.628 91.4619L161.42 92.0937C161.72 92.3435 161.959 92.6576 162.138 93.036C162.316 93.4144 162.406 93.8034 162.406 94.2032V96.3984C162.406 96.6626 162.309 96.8839 162.116 97.0624C161.924 97.2337 161.677 97.3194 161.378 97.3194H155.167V97.8012C155.167 97.9297 155.195 98.0547 155.252 98.176C155.317 98.2974 155.399 98.3973 155.499 98.4759L156.28 99.1398C156.366 99.204 156.452 99.254 156.537 99.2897C156.63 99.3183 156.737 99.3325 156.859 99.3325H161.378C161.685 99.3325 161.931 99.4182 162.116 99.5895C162.309 99.7609 162.406 99.9822 162.406 100.253C162.406 100.525 162.309 100.746 162.116 100.917C161.924 101.089 161.677 101.174 161.378 101.174H156.837C156.53 101.174 156.23 101.121 155.938 101.014C155.645 100.907 155.367 100.75 155.102 100.543L154.31 99.8787C154.003 99.6288 153.76 99.3183 153.582 98.947C153.411 98.5758 153.325 98.1939 153.325 97.8012V94.2032C153.325 93.8034 153.411 93.4144 153.582 93.036C153.76 92.6576 154.003 92.3435 154.31 92.0937L155.102 91.4619C155.367 91.2477 155.645 91.0871 155.938 90.98C156.23 90.8729 156.53 90.8194 156.837 90.8194Z" fill="#B2454A"/>
<path d="M169.452 90.8194H173.349C173.949 90.8194 174.495 91.005 174.988 91.3762C175.488 91.7474 175.737 92.1258 175.737 92.5113C175.737 92.7683 175.645 92.986 175.459 93.1645C175.281 93.343 175.066 93.4322 174.817 93.4322C174.588 93.4322 174.342 93.3037 174.078 93.0467C173.821 92.7897 173.571 92.6612 173.328 92.6612H169.452C169.295 92.6612 169.166 92.7148 169.066 92.8218C168.966 92.9218 168.916 93.061 168.916 93.2395C168.916 93.318 168.948 93.4001 169.013 93.4858C169.077 93.5714 169.155 93.6357 169.248 93.6785L174.228 95.7988C174.756 96.0344 175.173 96.3842 175.48 96.8482C175.787 97.3051 175.941 97.8191 175.941 98.3902C175.941 99.1541 175.666 99.8073 175.116 100.35C174.567 100.9 173.913 101.174 173.157 101.174H169.537C168.895 101.174 168.292 100.985 167.728 100.607C167.164 100.236 166.882 99.8608 166.882 99.4825C166.882 99.2397 166.967 99.0256 167.139 98.8399C167.317 98.6543 167.531 98.5615 167.781 98.5615C167.981 98.5615 168.252 98.69 168.595 98.947C168.938 99.204 169.252 99.3325 169.537 99.3325H173.157C173.407 99.3325 173.624 99.2397 173.81 99.0541C174.003 98.8685 174.099 98.6472 174.099 98.3902C174.099 98.1974 174.046 98.0225 173.938 97.8655C173.831 97.7013 173.685 97.5835 173.499 97.5121L168.552 95.3597C168.095 95.167 167.735 94.8743 167.471 94.4816C167.206 94.089 167.074 93.6607 167.074 93.1966C167.074 92.5399 167.306 91.9795 167.77 91.5154C168.234 91.0514 168.795 90.8194 169.452 90.8194Z" fill="#B2454A"/>
<path fill-rule="evenodd" clip-rule="evenodd" d="M96.486 18.4023C99.1895 18.4023 101.402 20.6139 101.402 23.3175V39.0076C101.402 41.7112 99.1895 43.9233 96.486 43.9233C93.7824 43.9233 91.5703 41.7112 91.5703 39.0076V23.3175C91.5703 20.6139 93.7824 18.4023 96.486 18.4023Z" fill="#1B1641"/>
<path fill-rule="evenodd" clip-rule="evenodd" d="M52.5553 33.5215H52.5559C55.2589 33.5215 57.471 35.7336 57.471 38.4372V42.0951C57.471 44.7986 55.2589 47.0102 52.5559 47.0102H52.5553C49.8518 47.0102 47.6396 44.7986 47.6396 42.0951V38.4372C47.6396 35.7336 49.8518 33.5215 52.5553 33.5215Z" fill="#1B1641"/>
<path fill-rule="evenodd" clip-rule="evenodd" d="M74.5211 12.6309H74.5217C77.2247 12.6309 79.4368 14.8424 79.4368 17.546V42.9467C79.4368 45.6507 77.2247 47.8623 74.5217 47.8623H74.5211C71.8176 47.8623 69.6055 45.6507 69.6055 42.9467V17.546C69.6055 14.8424 71.8176 12.6309 74.5211 12.6309Z" fill="#1B1641"/>
<path fill-rule="evenodd" clip-rule="evenodd" d="M118.452 5.4707H118.453C121.156 5.4707 123.368 7.6823 123.368 10.3858V45.787C123.368 48.4911 121.156 50.7027 118.453 50.7027H118.452C115.749 50.7027 113.537 48.4911 113.537 45.787V10.3858C113.537 7.6823 115.749 5.4707 118.452 5.4707Z" fill="#1B1641"/>
<path fill-rule="evenodd" clip-rule="evenodd" d="M30.5895 30.375C33.293 30.375 35.5052 32.5866 35.5052 35.2901V46.1231C35.5052 48.8267 33.293 51.0388 30.5895 51.0388C27.886 51.0388 25.6738 48.8267 25.6738 46.1231V35.2901C25.6738 32.5866 27.886 30.375 30.5895 30.375Z" fill="#1B1641"/>
<path fill-rule="evenodd" clip-rule="evenodd" d="M140.417 35.2402H140.418C143.121 35.2402 145.333 37.4518 145.333 40.1554V41.222C145.333 43.925 143.121 46.1371 140.418 46.1371H140.417C137.714 46.1371 135.502 43.925 135.502 41.222V40.1554C135.502 37.4518 137.714 35.2402 140.417 35.2402Z" fill="#1B1641"/>
<path fill-rule="evenodd" clip-rule="evenodd" d="M162.384 32.4707C165.088 32.4707 167.3 34.6823 167.3 37.3858V41.17C167.3 43.8735 165.088 46.0851 162.384 46.0851C159.68 46.0851 157.469 43.8735 157.469 41.17V37.3858C157.469 34.6823 159.68 32.4707 162.384 32.4707Z" fill="#1B1641"/>
<path fill-rule="evenodd" clip-rule="evenodd" d="M14.7551 69.6254L24.6122 57.5271H29.5059V80.7376H23.7814V66.6055L14.7529 77.562L5.72448 66.6055V80.7376H0V57.5271H4.94307L14.7551 69.6254ZM47.1837 81.2865C43.1149 81.2865 39.5209 80.2161 36.6493 77.8477C33.7658 75.4686 32.4866 72.5045 32.4866 69.178C32.4866 65.8434 33.7691 62.8735 36.6676 60.4938C39.5414 58.1345 43.1182 57.0566 47.1837 57.0566C51.2669 57.0566 54.8582 58.1383 57.7471 60.5062C60.6472 62.8832 61.9447 65.8429 61.9447 69.178C61.9447 72.511 60.6536 75.4745 57.7551 77.8499C54.869 80.2156 51.261 81.2865 47.1837 81.2865ZM83.6042 71.584V57.5271H89.377V80.7376H85.8786L70.8426 66.6748V80.7376H65.0704V57.5271H68.6176L83.6042 71.584ZM106.975 57.5271C111.028 57.5271 114.78 58.4422 117.729 60.7666C120.618 63.0437 121.864 65.9396 121.864 69.1909C121.864 72.4127 120.677 75.3316 117.787 77.5808C114.824 79.8885 111.006 80.7376 106.975 80.7376H94.5725V57.5271H106.975ZM125.038 80.7376V57.4095H130.858V80.7376H125.038ZM154.644 71.584V57.5271H160.417V80.7376H156.918L141.882 66.6748V80.7376H136.11V57.5271H139.657L154.644 71.584ZM178.239 81.2865C174.17 81.2865 170.576 80.2161 167.705 77.8477C164.821 75.4686 163.542 72.5045 163.542 69.178C163.542 65.8434 164.824 62.8735 167.722 60.4938C170.596 58.1345 174.173 57.0566 178.239 57.0566C182.322 57.0566 185.914 58.1383 188.802 60.5062C191.702 62.8832 193 65.8429 193 69.178C193 72.511 191.708 75.4745 188.81 77.8499C185.924 80.2156 182.316 81.2865 178.239 81.2865ZM47.1917 76.7414C49.6745 76.7414 51.7911 76.0915 53.5188 74.6281C55.3029 73.1168 56.0279 71.2586 56.0279 69.178C56.0279 67.0958 55.304 65.2296 53.5242 63.7124C51.7991 62.2419 49.6681 61.6017 47.1917 61.6017C44.7062 61.6017 42.5918 62.2591 40.8663 63.7263C39.0854 65.2408 38.3561 67.0964 38.3561 69.178C38.3561 71.2586 39.0806 73.1168 40.8647 74.6281C42.5924 76.0915 44.7089 76.7414 47.1917 76.7414ZM100.345 62.033V76.2312H106.975C109.427 76.2312 111.83 75.7688 113.626 74.3381C115.381 72.9396 115.995 71.1163 115.995 69.1517C115.995 67.1716 115.331 65.3832 113.576 63.9771C111.775 62.5362 109.446 62.033 106.975 62.033H100.345ZM178.247 76.7414C180.73 76.7414 182.846 76.0915 184.574 74.6281C186.358 73.1168 187.083 71.2586 187.083 69.178C187.083 67.0958 186.359 65.2296 184.579 63.7124C182.854 62.2419 180.723 61.6017 178.247 61.6017C175.761 61.6017 173.647 62.2591 171.922 63.7263C170.141 65.2408 169.411 67.0964 169.411 69.178C169.411 71.2586 170.135 73.1168 171.92 74.6281C173.648 76.0915 175.764 76.7414 178.247 76.7414Z" fill="#1B1641"/>
<path fill-rule="evenodd" clip-rule="evenodd" d="M52.5553 0H52.5559C55.2589 0 57.471 2.2116 57.471 4.91515V23.8835C57.471 26.587 55.2589 28.7986 52.5559 28.7986H52.5553C49.8518 28.7986 47.6396 26.587 47.6396 23.8835V4.91515C47.6396 2.2116 49.8518 0 52.5553 0Z" fill="#1B1641"/>
<path fill-rule="evenodd" clip-rule="evenodd" d="M139.562 22.0938H141.273C143.506 22.0938 145.333 23.9203 145.333 26.1534C145.333 28.3859 143.506 30.213 141.273 30.213H139.562C137.329 30.213 135.502 28.3859 135.502 26.1534C135.502 23.9203 137.329 22.0938 139.562 22.0938Z" fill="#1B1641"/>
<path fill-rule="evenodd" clip-rule="evenodd" d="M140.417 0.224609H140.418C143.121 0.224609 145.333 2.43621 145.333 5.13976V12.4819C145.333 15.1854 143.121 17.397 140.418 17.397H140.417C137.714 17.397 135.502 15.1854 135.502 12.4819V5.13976C135.502 2.43621 137.714 0.224609 140.417 0.224609Z" fill="#1B1641"/>
<path fill-rule="evenodd" clip-rule="evenodd" d="M162.384 5.12891C165.088 5.12891 167.3 7.34105 167.3 10.0446V19.6525C167.3 22.3561 165.088 24.5677 162.384 24.5677C159.68 24.5677 157.469 22.3561 157.469 19.6525V10.0446C157.469 7.34105 159.68 5.12891 162.384 5.12891Z" fill="#1B1641"/>
<path fill-rule="evenodd" clip-rule="evenodd" d="M30.5895 6.15039C33.293 6.15039 35.5052 8.36199 35.5052 11.0655V20.6638C35.5052 23.3679 33.293 25.5795 30.5895 25.5795C27.886 25.5795 25.6738 23.3679 25.6738 20.6638V11.0655C25.6738 8.36199 27.886 6.15039 30.5895 6.15039Z" fill="#1B1641"/>
<path fill-rule="evenodd" clip-rule="evenodd" d="M101.395 110.906C101.4 110.996 101.402 111.087 101.402 111.177V121.194C100.291 122.092 99.8399 123.238 99.8399 124.524C99.8399 125.81 100.291 127.011 101.402 127.783V151.371C101.402 154.247 99.189 156.602 96.486 156.602C93.7835 156.602 91.5703 154.248 91.5703 151.371V127.813C92.7019 126.964 93.2465 125.756 93.2465 124.438C93.2465 123.121 92.7185 121.93 91.5703 121.1V111.177C91.5703 111.086 91.573 110.996 91.5773 110.906H101.395Z" fill="#1B1641"/>
<path fill-rule="evenodd" clip-rule="evenodd" d="M52.5553 113.943H52.5559C55.2589 113.943 57.471 116.156 57.471 118.859V125.86C57.471 128.564 55.2589 130.776 52.5559 130.776H52.5553C49.8518 130.776 47.6396 128.564 47.6396 125.86V118.859C47.6396 116.156 49.8518 113.943 52.5553 113.943Z" fill="#1B1641"/>
<path fill-rule="evenodd" clip-rule="evenodd" d="M74.4358 112.525H74.6071C77.2634 112.525 79.4368 114.699 79.4368 117.355C79.4368 120.012 77.2634 122.185 74.6071 122.185H74.4358C71.7789 122.185 69.6055 120.012 69.6055 117.355C69.6055 114.699 71.7789 112.525 74.4358 112.525Z" fill="#1B1641"/>
<path fill-rule="evenodd" clip-rule="evenodd" d="M118.452 111.031H118.453C121.156 111.031 123.368 113.243 123.368 115.946V122.522C123.368 125.225 121.156 127.437 118.453 127.437H118.452C115.749 127.437 113.537 125.225 113.537 122.522V115.946C113.537 113.243 115.749 111.031 118.452 111.031Z" fill="#1B1641"/>
<path fill-rule="evenodd" clip-rule="evenodd" d="M30.2442 110.43H30.9348C33.4488 110.43 35.5052 112.486 35.5052 114.999V115C35.5052 117.513 33.4488 119.57 30.9348 119.57H30.2442C27.7308 119.57 25.6738 117.513 25.6738 115V114.999C25.6738 112.486 27.7308 110.43 30.2442 110.43Z" fill="#1B1641"/>
<path fill-rule="evenodd" clip-rule="evenodd" d="M140.417 114.795H140.418C143.121 114.795 145.333 117.007 145.333 119.71V124.54C145.333 127.244 143.121 129.456 140.418 129.456H140.417C137.714 129.456 135.502 127.244 135.502 124.54V119.71C135.502 117.007 137.714 114.795 140.417 114.795Z" fill="#1B1641"/>
<path fill-rule="evenodd" clip-rule="evenodd" d="M162.009 110.043H162.76C165.257 110.043 167.3 112.086 167.3 114.583C167.3 117.081 165.257 119.124 162.76 119.124H162.009C159.512 119.124 157.469 117.081 157.469 114.583C157.469 112.086 159.512 110.043 162.009 110.043Z" fill="#1B1641"/>
<path fill-rule="evenodd" clip-rule="evenodd" d="M74.5211 128.633H74.5217C77.2247 128.633 79.4368 130.845 79.4368 133.549V140.033C79.4368 142.737 77.2247 144.949 74.5217 144.949H74.5211C71.8176 144.949 69.6055 142.737 69.6055 140.033V133.549C69.6055 130.845 71.8176 128.633 74.5211 128.633Z" fill="#1B1641"/>
<path fill-rule="evenodd" clip-rule="evenodd" d="M118.324 133.953H118.581C121.214 133.953 123.368 136.108 123.368 138.74V138.741C123.368 141.374 121.214 143.528 118.581 143.528H118.324C115.691 143.528 113.537 141.374 113.537 138.741V138.74C113.537 136.108 115.691 133.953 118.324 133.953Z" fill="#1B1641"/>
</svg>
