<svg width="134" height="134" viewBox="0 0 134 134" fill="none" xmlns="http://www.w3.org/2000/svg">
<circle cx="67" cy="67" r="67" fill="white"/>
<path fill-rule="evenodd" clip-rule="evenodd" d="M36.6092 27.0881C31.6801 27.7192 28.2563 32.6864 29.4752 37.4381C29.8822 39.0252 30.555 40.2057 31.7361 41.405C33.4336 43.1286 35.2866 43.9111 37.6715 43.9111C41.6447 43.9111 44.9314 41.2884 45.9105 37.3365C46.2477 35.9761 46.2531 35.0514 45.9314 33.6849C44.9199 29.3864 40.8962 26.5391 36.6092 27.0881ZM95.3037 27.0802C91.0797 27.7004 88.0217 31.2006 88.015 35.4232C88.0074 40.1657 91.7129 43.9111 96.4121 43.9111C100.178 43.9111 103.5 41.4086 104.549 37.7806C104.917 36.5108 104.921 34.4463 104.558 33.1862C103.411 29.1993 99.3082 26.4923 95.3037 27.0802ZM64.5156 35.7615C63.3213 36.0833 61.5764 37.0172 60.597 37.8589C59.5097 38.7935 58.2553 40.735 57.7688 42.2365C57.1975 43.9996 57.1975 46.3471 57.7688 48.1103C58.2553 49.6117 59.5097 51.5533 60.597 52.4879C61.6086 53.3572 63.3295 54.2653 64.5875 54.5937C65.1298 54.7351 66.2716 54.8509 67.1251 54.8509C74.3287 54.8509 78.8909 47.3613 75.7107 40.7562C74.6322 38.5164 72.0406 36.4143 69.533 35.7458C68.3634 35.4339 65.6999 35.4422 64.5156 35.7615ZM27.286 47.2662C25.993 47.5816 25.0066 48.4286 24.4001 49.7438L24 50.6116L24.0472 60.6836C24.0937 70.6371 24.0984 70.7635 24.4568 71.4288C25.2076 72.8231 26.6273 73.6909 28.1679 73.6972L29.0498 73.701V82.4464C29.0498 90.8409 29.0636 91.2288 29.393 92.1109C29.6132 92.7008 29.9808 93.2512 30.4194 93.6482C31.6487 94.761 31.8342 94.7967 36.7911 94.8733C39.4826 94.9149 41.7129 94.8713 42.4049 94.7632C44.6137 94.4187 45.9011 93.165 46.2297 91.0387C46.3994 89.9395 46.3849 89.8285 45.9428 88.8413C45.0248 86.7918 44.9873 86.1277 45.0422 72.9055L45.0925 60.8257L45.5669 59.4809C46.4783 56.8963 48.0176 54.985 50.2799 53.6283L51.4356 52.9352L51.3471 51.6425C51.2384 50.054 50.8245 49.0735 49.917 48.2544C48.6445 47.1062 48.6514 47.1069 37.6285 47.126C32.2174 47.1356 27.5631 47.1986 27.286 47.2662ZM85.4779 47.3396C83.7796 47.9479 82.8128 49.4019 82.6826 51.5437L82.5993 52.9154L83.7522 53.5719C85.3484 54.4808 86.9809 56.1818 87.7457 57.7331C88.9692 60.2146 88.911 59.5031 88.9776 72.847C89.0417 85.7339 89.0053 86.4764 88.2209 88.2502C87.699 89.4308 87.6273 91.0528 88.0525 92.0584C88.4276 92.9454 89.2665 93.8227 90.162 94.2647C90.938 94.6476 91.05 94.6548 96.2441 94.6548C100.297 94.6548 101.688 94.6008 102.188 94.4241C103.018 94.1304 104.059 93.1901 104.53 92.31C104.89 91.6348 104.896 91.5013 104.943 82.6726L104.991 73.72L105.783 73.62C107.668 73.3822 108.825 72.6676 109.563 71.2846C109.933 70.5905 109.935 70.5427 109.982 60.6744C110.034 49.7666 110.04 49.8437 109.01 48.5915C108.734 48.2555 108.115 47.7846 107.634 47.5448L106.761 47.1089L96.4212 47.1163C88.4465 47.122 85.9431 47.173 85.4779 47.3396ZM54.8064 58.5579C53.2863 58.8659 52.0919 59.9559 51.6533 61.4353C51.2725 62.7203 51.2597 84.6404 51.639 85.9145C52.1883 87.7589 53.504 88.693 55.7596 88.8396L57.1874 88.9325L57.2714 99.4515C57.3334 107.218 57.4092 110.091 57.5607 110.432C57.9229 111.246 59.108 112.379 59.9305 112.697C60.637 112.97 61.3505 113 67.0986 113C72.076 113 73.6257 112.949 74.134 112.769C75.0462 112.446 76.068 111.468 76.5305 110.475L76.9224 109.634L76.9241 99.2411L76.9258 88.8483L78.1437 88.8466C79.636 88.8446 80.7558 88.3771 81.651 87.3821C82.7577 86.1521 82.7213 86.6232 82.7213 73.5326V61.6672L82.3319 60.8752C82.1177 60.4396 81.6697 59.8431 81.3362 59.5498C80.0447 58.4135 80.7758 58.4723 67.5186 58.4427C60.9125 58.4278 55.1921 58.4797 54.8064 58.5579Z" fill="#1B1641"/>
</svg>
