<svg width="134" height="134" viewBox="0 0 134 134" fill="none" xmlns="http://www.w3.org/2000/svg">
<circle cx="67" cy="67" r="67" fill="white"/>
<path fill-rule="evenodd" clip-rule="evenodd" d="M60.6081 26.0463C51.8206 26.9685 44.773 30.292 38.8725 36.2961C36.3265 38.8868 34.5092 41.3596 32.9096 44.4096C29.1595 51.5603 28.1358 59.451 29.7156 69.0298C31.196 78.0069 34.9525 86.4345 40.6124 93.477L41.7897 94.942V100.49C41.7897 105.735 41.8074 106.073 42.1121 106.671C42.3197 107.078 42.6599 107.418 43.0668 107.625C43.6881 107.942 43.9783 107.948 60.1263 107.948C77.7342 107.948 77.1732 107.973 77.905 107.152C78.0811 106.955 78.881 104.837 79.6825 102.446L81.1398 98.0982L86.6493 98.0142C92.7226 97.9217 92.886 97.897 94.5587 96.824C96.0862 95.844 97.2784 94.1011 97.6642 92.2847C97.7743 91.7659 97.8444 89.6094 97.8444 86.7392V82.0427L99.1657 81.9708C101.354 81.8516 102.852 80.923 103.725 79.1454C104.103 78.3767 104.17 78.0397 104.168 76.9303L104.166 75.6217L101.005 69.275L97.8444 62.9283V60.8819C97.8444 51.091 94.3101 42.5393 87.4961 35.843C85.6769 34.055 84.4267 33.0296 82.4319 31.6881C78.428 28.9959 73.5671 27.1083 68.6929 26.353C67.0773 26.1025 61.9315 25.9073 60.6081 26.0463ZM66.42 30.9225C80.4708 32.4586 91.3336 43.3214 92.8696 57.3722C92.9632 58.2274 93.0397 60.1161 93.0397 61.5692V64.2112L96.2429 70.6274C98.0046 74.1564 99.446 77.0783 99.446 77.1207C99.446 77.163 98.4341 77.1978 97.1974 77.1978C93.4637 77.1978 93.0397 77.6217 93.0397 81.3554V83.604H90.7911C88.1346 83.604 87.4996 83.8154 86.9559 84.8811C86.5475 85.6816 86.5475 86.3312 86.9559 87.1316C87.4996 88.1973 88.1346 88.4087 90.7911 88.4087H93.0397V89.8565C93.0397 91.6405 92.7188 92.4032 91.7626 92.891C91.1617 93.1975 90.8283 93.2134 84.9868 93.2134C77.9927 93.2134 77.7871 93.1839 76.6196 92.0164C75.9123 91.3093 75.4225 90.1792 75.4225 89.2547C75.4225 87.9923 74.2593 86.8072 73.0202 86.8072C72.205 86.8072 71.3033 87.3728 70.9198 88.1246C70.627 88.6984 70.591 88.9659 70.6739 89.9473C70.7876 91.2941 71.32 92.8622 72.0492 93.9983C72.7191 95.0424 74.165 96.3723 75.2707 96.9615C75.7505 97.2173 76.1682 97.4465 76.1987 97.4708C76.2293 97.4952 75.8343 98.7814 75.3213 100.329L74.3884 103.143H60.4913H46.5944V98.3304C46.5944 92.8563 46.6647 93.1953 45.1687 91.4571C42.7721 88.6726 40.5612 85.2759 38.7537 81.6021C35.6591 75.3121 34.0873 69.0434 33.8345 61.9829C33.686 57.8378 34.1713 54.392 35.411 50.7866C38.4317 42.0022 45.3809 35.1488 54.177 32.2796C58.3267 30.9259 62.361 30.4788 66.42 30.9225ZM60.4479 40.5949C57.5049 41.0576 54.6488 42.1852 52.1049 43.889C50.4817 44.9759 48.0054 47.4523 46.9184 49.0755C42.2396 56.0618 42.2396 64.7009 46.9184 71.6873C48.0054 73.3105 50.4817 75.7868 52.1049 76.8738C57.1857 80.2765 63.1075 81.231 69.0163 79.6C70.6894 79.1381 73.8152 77.5721 75.345 76.4292C82.9473 70.7499 85.5526 60.4269 81.521 51.9583C80.0535 48.8757 77.9516 46.2807 75.345 44.3336C73.8152 43.1907 70.6894 41.6247 69.0163 41.1628C66.2209 40.3911 63.0718 40.1825 60.4479 40.5949ZM67.1399 45.6295C72.5274 47.0445 76.6894 51.2206 78.1703 56.6978C78.6998 58.6555 78.6998 62.1072 78.1703 64.065C76.6903 69.5389 72.5897 73.6582 67.1399 75.1462C65.2709 75.6564 61.6147 75.6545 59.7272 75.1423C54.2478 73.6553 50.1403 69.5666 48.6447 64.1104C48.1523 62.3137 48.1523 58.4491 48.6447 56.6523C50.2455 50.8124 54.8417 46.5434 60.7682 45.3917C62.3367 45.0869 65.527 45.2059 67.1399 45.6295ZM68.8475 53.9575C68.4559 54.2121 66.5521 56.0123 64.617 57.9577L61.0987 61.4951L59.4106 59.8317C58.0832 58.5237 57.5972 58.1446 57.1359 58.0581C55.5677 57.7639 54.2819 58.8106 54.2819 60.3814C54.2819 60.7425 54.3851 61.2324 54.5113 61.4704C54.7858 61.9879 59.6571 66.8373 60.1571 67.0908C60.6371 67.3341 61.5553 67.3133 62.1747 67.0448C62.9171 66.7232 72.329 57.2176 72.4688 56.6481C73.0373 54.3326 70.8128 52.6798 68.8475 53.9575Z" fill="#1B1641"/>
</svg>
