<svg width="134" height="134" viewBox="0 0 134 134" fill="none" xmlns="http://www.w3.org/2000/svg">
<circle cx="67" cy="67" r="67" fill="white"/>
<path fill-rule="evenodd" clip-rule="evenodd" d="M41.5557 27.2708C38.733 27.9552 36.1513 30.0101 34.9069 32.5628C32.1415 38.2359 35.0983 44.9319 41.1424 46.6841C42.5733 47.0988 45.1087 47.0977 46.5331 46.6817C50.8909 45.409 53.8144 41.5509 53.8083 37.081C53.8043 34.2012 52.8811 31.9716 50.8599 29.9607C48.3641 27.4776 44.8693 26.4672 41.5557 27.2708ZM65.9303 34.4283C63.7164 35.4105 63.711 38.5838 65.9215 39.5877C66.609 39.8998 67.2769 39.9224 75.9481 39.926C82.1797 39.9287 85.5515 39.997 86.1903 40.1337C89.2752 40.7939 91.8858 43.3428 92.7072 46.4961C92.9309 47.355 92.9823 48.8299 92.9823 54.3905C92.9823 60.7006 93.008 61.2768 93.3151 61.8547C94.3037 63.7154 96.8752 63.9276 98.1514 62.2538L98.6424 61.6098V53.8696C98.6424 45.1786 98.6383 45.1432 97.2844 42.3245C95.5062 38.622 92.1732 35.8405 88.0409 34.6107C87.0709 34.3219 85.9357 34.2845 76.7206 34.2375C68.4147 34.1951 66.3747 34.2312 65.9303 34.4283ZM41.0445 49.4712C39.453 49.6771 36.9705 50.4142 35.3551 51.1606C29.5138 53.8593 25.2895 59.4609 24.2466 65.8907C23.7169 69.1576 24.0116 70.5575 25.413 71.429L26.0487 71.8245H43.8378H61.6268L62.2879 71.4134C62.6913 71.1625 63.104 70.6822 63.3466 70.1809C63.6984 69.4542 63.7315 69.179 63.633 67.7938C63.348 63.7781 61.9982 60.1657 59.6156 57.0425C55.3135 51.403 48.28 48.5356 41.0445 49.4712ZM88.9345 68.5078C85.5481 68.9504 82.2567 71.5974 81.0155 74.8763C80.6557 75.8269 80.5172 76.579 80.4521 77.9339C80.3519 80.0236 80.6457 81.4376 81.5351 83.1448C82.2183 84.456 84.2755 86.5481 85.5585 87.2367C86.7775 87.8907 88.9891 88.4456 90.3768 88.4456C91.7638 88.4456 93.9751 87.8911 95.1969 87.2367C95.7083 86.9626 96.7036 86.1657 97.4085 85.4657C99.4022 83.4853 100.349 81.1952 100.349 78.3552C100.349 72.3513 94.9784 67.7179 88.9345 68.5078ZM37.1715 77.1082C36.7665 77.2922 36.2409 77.715 36.0036 78.0476L35.5721 78.6526V86.3792C35.5721 95.0477 35.5775 95.0944 36.9218 97.8932C38.3311 100.828 40.7107 103.207 43.6441 104.615C46.4195 105.947 46.304 105.934 55.4752 106.008C63.6453 106.075 63.7031 106.072 64.3935 105.684C65.7711 104.91 66.2867 102.977 65.4452 101.741C65.2227 101.414 64.8127 100.978 64.534 100.771C64.042 100.406 63.7886 100.392 55.9988 100.302C48.0681 100.211 47.9575 100.205 46.8924 99.7817C44.3801 98.7839 42.7054 97.0418 41.6254 94.3029C41.3809 93.6828 41.32 92.3917 41.2388 86.1097L41.1424 78.6526L40.711 78.0476C40.2492 77.4002 39.0919 76.7738 38.3573 76.7738C38.1102 76.7738 37.5765 76.9244 37.1715 77.1082ZM86.1542 91.1335C77.4016 93.0055 70.7688 100.819 70.641 109.408C70.6085 111.597 70.7354 111.951 71.8484 112.782C72.3418 113.151 72.4447 113.153 90.3768 113.153C108.309 113.153 108.412 113.151 108.905 112.782C110.018 111.951 110.145 111.597 110.113 109.408C110.015 102.834 105.969 96.368 99.9089 93.0991C98.1722 92.1623 96.0855 91.4119 94.2489 91.0635C92.1823 90.6714 88.1516 90.7062 86.1542 91.1335Z" fill="#1B1641"/>
</svg>
