<svg width="134" height="134" viewBox="0 0 134 134" fill="none" xmlns="http://www.w3.org/2000/svg">
<circle cx="67" cy="67" r="67" fill="white"/>
<path fill-rule="evenodd" clip-rule="evenodd" d="M55.7333 29.1835C52.3158 29.8337 49.2331 32.1155 47.7732 35.0761L47.3932 35.8467L45.4226 35.9188C43.8046 35.9779 43.2369 36.0634 42.2489 36.3975C40.4821 36.9948 39.1098 37.8644 37.7372 39.2564C36.3419 40.6716 35.5531 41.9395 35.0167 43.6296C34.3301 45.7925 34.2528 47.5107 34.7326 49.946C34.8135 50.3567 34.7581 50.4367 34.1163 50.8372C32.3174 51.9597 30.5358 54.1452 29.799 56.1332C29.1834 57.7941 29.0165 58.7198 29.0299 60.3981C29.0492 62.7913 29.7241 65.0009 30.9629 66.7251L31.4853 67.4522L30.9429 68.249C28.3364 72.0778 28.3539 77.1888 30.9866 81.0418C31.7473 82.1552 33.3222 83.683 34.2426 84.2002C34.7915 84.5086 34.8195 84.5587 34.7232 85.0581C34.3015 87.2468 34.4011 89.3996 35.0123 91.3034C35.9121 94.1067 37.9605 96.4841 40.6524 97.8493C42.2909 98.6804 43.2654 98.9166 45.4226 99.0052L47.3932 99.0863L47.7732 99.8569C49.2782 102.909 52.357 105.137 55.9345 105.764C59.6932 106.422 63.3363 105.182 66.1269 102.294L66.8447 101.551L67.5556 102.303C70.2454 105.147 73.9928 106.42 77.7411 105.764C81.3186 105.137 84.3974 102.909 85.9024 99.8569L86.2824 99.0863L88.253 99.0143C89.871 98.9551 90.4388 98.8696 91.4267 98.5356C93.1935 97.9382 94.5658 97.0686 95.9384 95.6766C97.3337 94.2615 98.1225 92.9935 98.659 91.3034C99.3455 89.1405 99.4228 87.4223 98.943 84.987C98.8621 84.5763 98.9175 84.4963 99.5593 84.0958C101.358 82.9733 103.14 80.7878 103.877 78.7998C104.492 77.1389 104.659 76.2132 104.646 74.5349C104.626 72.1417 103.952 69.9322 102.713 68.2079L102.19 67.4808L102.733 66.684C105.339 62.8552 105.322 57.7442 102.689 53.8912C101.928 52.7779 100.353 51.25 99.433 50.7328C98.8841 50.4244 98.8561 50.3743 98.9524 49.8749C99.3741 47.6862 99.2745 45.5334 98.6633 43.6296C97.7635 40.8263 95.7151 38.4489 93.0232 37.0837C91.3847 36.2526 90.4102 36.0164 88.253 35.9278L86.2824 35.8467L85.903 35.0761C84.4082 32.039 81.3054 29.7935 77.7411 29.1692C73.9928 28.5129 70.2454 29.7861 67.5556 32.6303L66.8447 33.382L66.1269 32.6392C64.5301 30.9867 62.7915 29.9308 60.7738 29.3879C59.3532 29.0058 57.1399 28.916 55.7333 29.1835ZM59.6191 33.9635C61.1351 34.4167 62.7461 35.6404 63.4841 36.8998C63.6936 37.2572 63.9924 37.9593 64.1482 38.4599C64.4188 39.3295 64.4316 40.149 64.4316 56.727V74.0837L60.559 74.082C57.6718 74.0808 56.5097 74.0268 55.9918 73.8697C54.1339 73.3057 52.671 72.0665 51.8511 70.3617C50.7389 68.0494 51.0626 65.1409 52.6408 63.2652L53.0485 62.7808L51.411 61.1384C50.5105 60.235 49.7385 59.4997 49.6958 59.5044C49.6531 59.5092 49.3317 59.8594 48.9819 60.2829C48.2062 61.2215 47.2515 63.028 46.9141 64.1955L46.6641 65.0603H41.1112H35.5585L35.0876 64.4211C34.2027 63.2199 33.86 62.2558 33.7859 60.7582C33.6216 57.4479 35.4195 54.8763 38.5663 53.9204L39.5584 53.6191L40.0239 52.5381L40.4894 51.4571L40.0308 50.5512C38.7292 47.9798 38.9047 45.3063 40.5142 43.1915C41.682 41.6571 43.3763 40.7314 45.282 40.5869L46.36 40.5051L46.4552 41.2402C46.673 42.9217 47.0297 44.1579 47.6716 45.4552L48.3516 46.8296L47.9108 47.577C47.275 48.6556 46.7276 50.3555 46.5441 51.822C46.4564 52.5228 46.3847 53.115 46.3847 53.1379C46.3847 53.1607 47.4675 53.1794 48.7909 53.1794H51.1972L51.1988 52.6154C51.2068 49.8701 53.9385 46.9601 56.8489 46.5971L57.7392 46.4861L57.7805 44.1179C57.8279 41.4134 57.9965 41.6547 56.2353 41.9057C54.9688 42.0861 53.5347 42.5435 52.603 43.0643C51.81 43.5075 51.7823 43.4878 51.4044 42.2168C51.2325 41.6387 51.1806 41.0059 51.2239 40.0157C51.2781 38.7798 51.3468 38.5004 51.8455 37.4914C53.2888 34.5711 56.6093 33.0642 59.6191 33.9635ZM78.2215 34.1775C79.7282 34.7038 81.0539 35.921 81.8301 37.4914C82.3288 38.5004 82.3975 38.7798 82.4517 40.0157C82.495 41.0059 82.4431 41.6387 82.2712 42.2168C81.8933 43.4878 81.8656 43.5075 81.0726 43.0643C80.1409 42.5435 78.7068 42.0861 77.4403 41.9057C75.6791 41.6547 75.8477 41.4134 75.8951 44.1179L75.9364 46.4861L76.8268 46.5971C79.7371 46.9601 82.4688 49.8701 82.4768 52.6154L82.4784 53.1794H84.8847C86.2081 53.1794 87.2909 53.1607 87.2909 53.1379C87.2909 53.115 87.2192 52.5228 87.1315 51.822C86.948 50.3555 86.4006 48.6556 85.7648 47.577L85.324 46.8296L86.0128 45.4418C86.6527 44.1524 86.9262 43.1726 87.2278 41.0896L87.3124 40.5048L88.3919 40.5873C91.0545 40.7907 93.2496 42.4836 94.1466 45.0252C94.7708 46.7934 94.601 48.6623 93.6448 50.5512L93.1862 51.4571L93.6445 52.5213L94.1027 53.5856L95.1136 53.9112C98.2712 54.9281 100.045 57.4394 99.8905 60.6744C99.8191 62.1682 99.4538 63.2425 98.6418 64.3459L98.1162 65.0603H92.5638H87.0115L86.7616 64.1955C85.7174 60.5827 82.6503 57.5916 78.8421 56.472C77.8638 56.1845 77.2674 56.1403 73.4926 56.0758L69.2441 56.0031V47.6217C69.2441 39.6253 69.2579 39.1998 69.5456 38.3638C70.1887 36.4946 71.3724 35.1572 73.0987 34.3493C74.7679 33.5682 76.3263 33.516 78.2215 34.1775ZM77.6838 61.0633C79.5418 61.6273 81.0046 62.8665 81.8245 64.5713C82.9367 66.8836 82.613 69.7921 81.0348 71.6678L80.6271 72.1522L82.2646 73.7946C83.1651 74.698 83.9371 75.4333 83.9798 75.4286C84.0225 75.4238 84.3439 75.0736 84.6937 74.6501C85.4694 73.7115 86.4241 71.905 86.7616 70.7375L87.0115 69.8728H92.5644H98.1171L98.588 70.5119C99.4729 71.7131 99.8156 72.6772 99.8898 74.1748C100.054 77.4851 98.2561 80.0568 95.1093 81.0126L94.1172 81.3139L93.6517 82.3949L93.1862 83.4759L93.6448 84.3818C94.9464 86.9531 94.7712 89.6156 93.1601 91.7513C91.9962 93.2938 90.3512 94.1882 88.3936 94.3428L87.3156 94.4279L87.2204 93.6928C87.0026 92.0113 86.6459 90.7751 86.004 89.4778L85.324 88.1034L85.7648 87.356C86.4006 86.2774 86.948 84.5775 87.1315 83.111C87.2192 82.4102 87.2909 81.818 87.2909 81.7951C87.2909 81.7723 86.2081 81.7536 84.8847 81.7536H82.4784L82.4768 82.3176C82.4688 85.063 79.7371 87.9729 76.8268 88.3359L75.9364 88.4469L75.8951 90.8151C75.8477 93.5196 75.6791 93.2784 77.4403 93.0274C78.7068 92.8469 80.1409 92.3895 81.0726 91.8687C81.8656 91.4255 81.8933 91.4452 82.2712 92.7162C82.4431 93.2943 82.495 93.9271 82.4517 94.9173C82.3975 96.1532 82.3288 96.4326 81.8301 97.4416C79.8291 101.49 74.6151 102.465 71.3408 99.4018C70.4571 98.5753 69.9728 97.8111 69.5456 96.5692C69.2507 95.7118 69.2441 95.3146 69.2441 78.271V60.8493L73.1166 60.851C76.0038 60.8522 77.1659 60.9062 77.6838 61.0633ZM46.9141 70.7375C47.7284 73.5555 49.8698 76.1361 52.5548 77.5349C54.7112 78.6583 55.3856 78.7751 60.183 78.8572L64.4316 78.9299V87.2463C64.4316 94.9696 64.4114 95.6278 64.1482 96.4731C63.7613 97.7165 63.2447 98.5507 62.3348 99.4018C59.0605 102.465 53.8465 101.49 51.8455 97.4416C51.3468 96.4326 51.2781 96.1532 51.2239 94.9173C51.1806 93.9271 51.2325 93.2943 51.4044 92.7162C51.7823 91.4452 51.81 91.4255 52.603 91.8687C53.5347 92.3895 54.9688 92.8469 56.2353 93.0274C57.9965 93.2784 57.8279 93.5196 57.7805 90.8151L57.7392 88.4469L56.8489 88.3359C53.9385 87.9729 51.2068 85.063 51.1988 82.3176L51.1972 81.7536H48.7909C47.4675 81.7536 46.3847 81.7723 46.3847 81.7951C46.3847 81.818 46.4564 82.4102 46.5441 83.111C46.7276 84.5775 47.275 86.2774 47.9108 87.356L48.3516 88.1034L47.6628 89.4912C47.0229 90.7807 46.7494 91.7605 46.4478 93.8434L46.3632 94.4282L45.2837 94.3457C42.6212 94.1423 40.4261 92.4494 39.529 89.9078C38.9049 88.1397 39.0746 86.2707 40.0308 84.3818L40.4894 83.4759L40.0311 82.4117L39.5729 81.3474L38.562 81.0218C35.4044 80.0049 33.6307 77.4936 33.7851 74.2586C33.8565 72.7648 34.2218 71.6905 35.0338 70.5871L35.5594 69.8728H41.1118H46.6641L46.9141 70.7375Z" fill="#1B1641"/>
</svg>
