<svg width="134" height="134" viewBox="0 0 134 134" fill="none" xmlns="http://www.w3.org/2000/svg">
<circle cx="67" cy="67" r="67" fill="white"/>
<path fill-rule="evenodd" clip-rule="evenodd" d="M66.9914 23.317C66.2832 23.5025 65.2053 23.9282 64.5958 24.2631C63.5805 24.8213 63.4268 24.858 62.7547 24.7029C61.6734 24.4533 59.7417 24.494 58.474 24.7928C56.7619 25.1962 55.4012 26.0019 53.9103 27.4948C52.645 28.7618 52.5247 28.8378 51.4937 29.0193C48.0848 29.6198 44.9986 32.3373 44.0252 35.5955C43.8674 36.124 43.6735 36.379 43.3175 36.5264C42.6207 36.8149 41.2502 37.8768 40.5224 38.6921C38.9451 40.4587 38.1851 42.3274 38.0034 44.8851C37.9012 46.3252 37.8592 46.4521 37.2294 47.2144C35.1323 49.7519 34.485 53.3726 35.5704 56.4935C35.985 57.6858 35.9933 57.7807 35.7338 58.3893C35.344 59.3039 35.0037 60.9716 35 61.9851C34.9927 64.0705 35.9382 66.7069 37.2176 68.1679C37.8646 68.9069 37.8965 69.0016 38.0052 70.5026C38.131 72.2407 38.3638 73.1306 39.0963 74.6745C39.7113 75.9707 41.6851 78.0179 42.9209 78.6411C43.722 79.0452 43.8404 79.1815 44.1102 80.011C44.2748 80.5177 44.6784 81.3763 45.0068 81.919L45.6041 82.9056L41.7545 90.958C39.3786 95.9278 37.8719 99.2839 37.8187 99.7245C37.6589 101.049 38.6026 102.303 39.9211 102.517C40.3145 102.581 42.4722 102.167 46.4473 101.266C49.7134 100.526 52.4141 99.9503 52.4487 99.987C52.4835 100.024 53.718 102.52 55.1921 105.535C57.0491 109.333 58.021 111.133 58.3565 111.397C59.3582 112.185 60.919 112.068 61.7948 111.139C62.0447 110.874 63.8312 107.332 65.7645 103.269C67.698 99.206 69.2956 95.8622 69.3149 95.8386C69.3342 95.815 70.9785 99.201 72.9688 103.363C75.5517 108.764 76.7308 111.051 77.0884 111.352C78.0467 112.158 79.678 112.09 80.5058 111.208C80.7181 110.983 82.0984 108.361 83.5737 105.382C85.0488 102.404 86.3193 99.9665 86.3972 99.9665C86.4749 99.9665 89.1181 100.558 92.271 101.281C98.2 102.641 98.8808 102.72 99.7569 102.146C100.425 101.708 100.87 100.845 100.871 99.9867C100.872 99.351 100.226 97.8745 96.9755 91.0745L93.0792 82.9244L93.6761 81.933C94.0044 81.3878 94.4055 80.5219 94.5671 80.0088C94.8291 79.1777 94.9513 79.0301 95.6866 78.6576C96.8069 78.0899 98.5707 76.4001 99.2898 75.2057C100.141 73.7913 100.532 72.4683 100.65 70.6033C100.746 69.0689 100.788 68.9264 101.314 68.3435C103.486 65.9355 104.224 62.0162 103.103 58.8487C102.681 57.656 102.678 57.6065 102.966 56.9277C103.925 54.6683 103.865 51.8173 102.805 49.3441C102.628 48.9313 102.081 48.0628 101.59 47.4143C100.761 46.3179 100.698 46.1657 100.695 45.2449C100.685 41.8488 98.7585 38.455 95.9379 36.8631C95.3309 36.5206 94.8581 36.1153 94.7467 35.8422C93.6629 33.1826 92.752 31.8982 91.0954 30.6927C89.8724 29.8027 88.5763 29.2657 87.0198 29.004C86.0734 28.8447 85.8907 28.7476 85.4999 28.195C84.8906 27.334 83.2554 26.0105 82.1603 25.4919C80.2378 24.5816 77.7072 24.2689 75.9148 24.7203C75.2084 24.8981 75.0826 24.8781 74.4907 24.4933C72.2867 23.0606 69.5877 22.6372 66.9914 23.317ZM70.5389 28.367C70.9213 28.4713 71.6607 28.8816 72.1822 29.2788C72.7035 29.6758 73.2902 30.0958 73.4859 30.2119C74.0126 30.5244 74.9628 30.4794 76.1014 30.0876C77.4633 29.619 78.666 29.641 79.7517 30.1542C80.7483 30.6254 81.3371 31.2072 82.0412 32.4171C82.8073 33.7331 83.2201 33.9588 85.0949 34.0856C86.8808 34.2065 87.6999 34.5103 88.5431 35.3647C89.2362 36.0668 89.6721 36.9267 89.8338 37.9099C90.1376 39.7584 90.7526 40.4559 92.5943 41.0405C92.9653 41.1582 93.5772 41.5331 93.954 41.8735C95.2504 43.0447 95.6869 44.5138 95.3184 46.4664C95.1383 47.4212 95.1493 47.6715 95.3987 48.2947C95.5576 48.6919 95.9567 49.2223 96.2858 49.4733C97.7317 50.576 98.4339 51.8613 98.4365 53.4092C98.4379 54.2254 98.3192 54.6186 97.743 55.7064C96.8729 57.3484 96.8257 58.1768 97.5373 59.3001C98.2055 60.3546 98.439 61.0942 98.4344 62.1413C98.4289 63.4296 97.9055 64.422 96.5456 65.7224C95.199 67.0101 95.0059 67.5342 95.3267 69.0305C95.7045 70.7915 95.1646 72.5566 93.9307 73.5947C93.6469 73.8337 92.8613 74.2405 92.1852 74.4988C90.6445 75.0875 90.2105 75.6186 89.8477 77.3577C89.5527 78.7732 89.0225 79.7155 88.145 80.3848C87.2896 81.0373 86.6948 81.2165 84.9212 81.3565C83.0705 81.5027 82.8221 81.6586 81.8239 83.3014C81.1302 84.4438 80.4104 85.0423 79.2614 85.4324C78.1327 85.8155 77.5909 85.7867 76.0704 85.2619C74.5348 84.7319 73.9332 84.7857 72.9492 85.5417C70.9277 87.0949 70.0255 87.4012 68.4547 87.0671C67.4809 86.86 67.047 86.6198 65.967 85.6891C64.9308 84.796 64.2685 84.7181 62.5428 85.2865C60.8763 85.8353 59.9141 85.7854 58.6247 85.0837C57.731 84.5973 57.2893 84.1096 56.4986 82.7367C55.9241 81.7391 55.1944 81.3669 53.8131 81.3669C51.0433 81.3669 49.1924 79.8537 48.8162 77.2819C48.5844 75.6968 48.0903 75.1223 46.4049 74.4783C44.8253 73.8747 43.8625 72.9228 43.4253 71.5331C43.147 70.6483 43.1362 70.3846 43.3276 69.1303C43.6033 67.3228 43.4811 67.0017 41.9632 65.5485C39.9913 63.6606 39.7212 62.0092 40.9889 59.5925C41.8184 58.0113 41.8393 57.2844 41.0922 56.0172C40.1321 54.3888 39.9783 52.7791 40.6533 51.422C40.8071 51.113 41.4678 50.3421 42.1218 49.709C43.4716 48.402 43.6888 47.8188 43.3587 46.389C43.0985 45.2616 43.1084 44.929 43.4347 43.8303C43.8175 42.5415 44.9647 41.4221 46.4595 40.879C47.9064 40.3532 48.47 39.7531 48.7239 38.4682C49.0669 36.7324 49.2757 36.2919 50.1832 35.3899C51.2019 34.3775 51.9684 34.0858 53.6108 34.0853C55.0636 34.085 55.7843 33.7157 56.4946 32.6081C57.4093 31.1817 57.7519 30.8038 58.5586 30.3311C59.6791 29.6744 61.0478 29.5901 62.5381 30.086C64.159 30.6254 65.003 30.5128 66.0708 29.6146C67.6895 28.2532 68.8913 27.9177 70.5389 28.367ZM68.1053 34.9011C62.0404 35.2395 56.028 38.1786 52.1711 42.6901C49.3861 45.9482 47.6848 49.4821 46.8782 53.6851C46.487 55.7245 46.4868 59.5416 46.8777 61.7243C47.7149 66.3973 50.0461 70.7081 53.5772 74.1124C56.7666 77.1874 60.4777 79.1499 64.8894 80.0945C66.9552 80.5367 71.6826 80.5376 73.7547 80.0959C82.3374 78.2667 89.0894 71.9873 91.3673 63.7162C94.6236 51.8928 87.7657 39.4931 75.9524 35.8443C73.8138 35.1837 70.3981 34.7731 68.1053 34.9011ZM70.8768 40.1728C80.382 41.097 87.4457 49.2045 86.9096 58.5749C86.4655 66.3395 81.259 72.7073 73.6518 74.7903C71.6253 75.3451 67.1492 75.3514 65.1305 74.8023C59.7716 73.3442 55.6732 69.973 53.4255 65.1738C50.1749 58.2335 51.7399 50.1215 57.3441 44.863C60.1592 42.2215 63.819 40.542 67.5452 40.1814C68.3312 40.1053 69.0135 40.0346 69.0613 40.024C69.1091 40.0134 69.9261 40.0805 70.8768 40.1728ZM77.492 49.7102C77.0531 49.9196 75.0356 51.81 72.0223 54.8355L67.2479 59.629L64.368 56.7805C61.9818 54.4202 61.3774 53.9111 60.8422 53.8108C58.3737 53.3477 56.748 55.6654 58.0893 57.7357C58.7648 58.7783 65.5458 65.4783 66.161 65.7111C66.8438 65.9694 67.7759 65.9417 68.3312 65.6469C68.897 65.3462 80.5899 53.6283 80.8634 53.0878C81.1747 52.4723 81.0921 51.3082 80.6909 50.6591C80.0231 49.5783 78.6325 49.1658 77.492 49.7102ZM51.3034 86.3267C52.537 86.5842 52.621 86.6351 53.8239 87.8554C56.1754 90.2412 59.0921 91.2478 62.2429 90.7613L63.5857 90.5539L64.5524 91.131L65.5192 91.7081L62.8908 97.1844C61.445 100.196 60.1844 102.8 60.0892 102.97C59.9484 103.221 59.5399 102.522 57.8929 99.2091C56.149 95.7016 55.7843 95.0868 55.2512 94.7574C54.3619 94.2077 53.6683 94.2672 49.268 95.2709C47.1296 95.7586 45.318 96.1346 45.2422 96.1065C45.1047 96.0555 49.7751 86.0729 49.9402 86.0648C49.988 86.0625 50.6015 86.1804 51.3034 86.3267ZM91.1891 91.0449C92.4975 93.7864 93.5332 96.0644 93.4906 96.1068C93.448 96.1494 91.6065 95.7741 89.398 95.2728C84.7789 94.2244 83.9984 94.1944 83.1169 95.0312C82.788 95.3434 81.8685 97.0107 80.6909 99.4301C79.648 101.573 78.7621 103.294 78.7227 103.254C78.6356 103.167 73.2332 91.8374 73.2332 91.742C73.2332 91.705 73.6391 91.4225 74.135 91.1141L75.0368 90.5535L76.4586 90.7651C78.2029 91.0246 80.0222 90.7997 81.6207 90.1268C83.079 89.513 83.9688 88.8737 85.0917 87.6327C85.9602 86.673 86.1264 86.5694 87.1528 86.3471C87.767 86.2139 88.391 86.095 88.5398 86.0827C88.7303 86.0669 89.5141 87.5352 91.1891 91.0449Z" fill="#1B1641"/>
</svg>
