<svg width="134" height="134" viewBox="0 0 134 134" fill="none" xmlns="http://www.w3.org/2000/svg">
<circle cx="67" cy="67" r="67" fill="white"/>
<path fill-rule="evenodd" clip-rule="evenodd" d="M49.8455 45.1119C38.7375 46.5641 30.4982 56.3979 31.0238 67.5759C31.2313 71.9917 32.6931 76.0595 35.3248 79.5448C38.5689 83.841 42.8149 86.5533 48.31 87.8394C49.6716 88.1581 49.9401 88.1638 65.9349 88.219C77.0719 88.2575 82.6861 88.2231 83.7969 88.1094C89.748 87.5006 95.1463 84.4204 98.8074 79.5448C100.717 77.0015 102.016 74.125 102.739 70.8369C103.2 68.7407 103.2 64.4561 102.739 62.36C102.014 59.064 100.717 56.1954 98.7933 53.6331C95.599 49.3788 91.2558 46.6113 85.7864 45.3448C84.4621 45.0381 84.0724 45.0307 67.6644 45.0031C58.2286 44.9871 50.4365 45.0348 49.8455 45.1119ZM84.0569 49.9735C87.5971 50.511 90.803 52.1432 93.3794 54.7194C98.4874 59.8275 99.7722 67.4245 96.6225 73.8972C94.1104 79.0596 89.4063 82.4726 83.681 83.2865C82.2625 83.4882 51.8631 83.4882 50.4446 83.2865C46.6823 82.7516 43.3623 81.0919 40.672 78.4011C36.2645 73.9925 34.6723 67.3565 36.603 61.442C38.5506 55.4757 43.8087 50.9518 49.9183 49.986C51.8706 49.6772 82.034 49.6662 84.0569 49.9735ZM63.6014 54.8406C63.2221 55.0385 62.1396 56.357 59.6812 59.6155L56.2849 64.117L51.6084 64.1922C47.1828 64.2633 46.9096 64.284 46.5169 64.5775C45.7278 65.167 45.4818 65.6475 45.4818 66.5984C45.4818 67.5493 45.7279 68.03 46.517 68.6194C46.916 68.9176 47.1445 68.931 52.4481 68.9698C57.4724 69.0063 58.0111 68.9862 58.4905 68.7442C58.8632 68.5559 59.6535 67.6358 61.1976 65.5921C62.3969 64.0046 63.42 62.6657 63.4712 62.6167C63.5225 62.5675 64.3961 65.8558 65.4127 69.9238C67.0575 76.5054 67.309 77.3748 67.6958 77.8154C68.4372 78.6597 69.8363 78.8644 70.7544 78.2629C70.9588 78.129 72.647 75.9939 74.5058 73.5182L77.8855 69.017L82.5397 68.9732C86.9693 68.9316 87.2136 68.9146 87.6087 68.6194C88.3977 68.0298 88.6439 67.5493 88.6439 66.5984C88.6439 65.6475 88.3977 65.1668 87.6086 64.5775C87.2096 64.2792 86.9811 64.2659 81.6775 64.227C76.6532 64.1905 76.1145 64.2107 75.6351 64.4526C75.2624 64.6409 74.4721 65.561 72.928 67.6047C71.7287 69.1922 70.7056 70.5311 70.6544 70.5802C70.6031 70.6293 69.7304 67.3443 68.7147 63.2803C67.1869 57.1668 66.8017 55.8122 66.4837 55.4343C65.7646 54.5798 64.5722 54.3341 63.6014 54.8406Z" fill="#1B1641"/>
</svg>
