<svg width="274" height="312" viewBox="0 0 274 312" fill="none" xmlns="http://www.w3.org/2000/svg">
<path fill-rule="evenodd" clip-rule="evenodd" d="M98.9689 4.04068C80.9126 13.0677 73.6919 30.8991 79.7831 51.4172C83.6771 64.5363 94.023 76.0577 109.162 84.1299C113.566 86.4782 125.121 90.4253 135.22 93.0318C156.039 98.4026 170.665 104.648 174.826 109.941C181.559 118.503 181.622 131.886 174.994 145.712C170.02 156.089 162.433 163.854 153.341 167.878L146.125 171.07V177.65C146.125 181.27 146.644 184.552 147.28 184.944C149.004 186.011 161.532 181.985 170.362 177.526C181.316 171.995 190.707 162.095 196.911 149.535C201.975 139.284 202.074 138.807 202.074 124.529C202.074 108.208 200.958 104.931 192.651 96.8604C185.436 89.8485 176.032 85.8842 154.448 80.753C112.476 70.7738 102.082 65.719 95.3869 52.0297C88.5848 38.1178 92.7171 20.239 104.381 13.1243C113.535 7.54005 130.603 10.8932 136.711 19.4764C141.003 25.5058 141.435 29.3647 138.15 32.3254C133.61 36.4175 132.841 40.0077 135.092 46.6166C137.488 53.6536 146.637 64.535 150.156 64.535C153.53 64.535 156.666 59.3761 158.796 50.3267C161.595 38.426 161.209 35.809 155.943 30.9847C153.229 28.4955 150.709 24.572 149.91 21.5876C147.729 13.4299 142.546 7.00534 135.187 3.33606C129.672 0.5874 126.608 0 117.773 0C108.442 0 106.005 0.524182 98.9689 4.04068ZM206.439 120.809C206.937 130.27 206.189 136.241 203.183 146.85C202.618 148.845 203.67 148.332 207.522 144.731C214.547 138.161 225.968 129.929 232.841 126.477C236.005 124.886 245.169 122.104 253.205 120.293C268.674 116.807 271.069 115.923 273.726 112.722C275.207 110.936 271.578 110.676 240.629 110.344L205.869 109.973L206.439 120.809ZM0 111.897C0 114.772 6.11093 118.518 13.0262 119.882C36.3615 124.489 43.9087 127.816 63.6106 142.184C86.2376 158.684 99.5798 164.755 119.796 167.753L130.986 169.412L130.519 193.527C130.007 219.985 129.979 219.888 137.897 219.926C142.825 219.948 142.462 222.427 142.704 187.171C142.845 166.616 142.413 167.784 151.07 164.576C162.373 160.385 174.37 141.155 174.408 127.165C174.42 122.78 173.617 117.265 172.624 114.912L170.818 110.631H85.4096C31.6552 110.631 0 111.1 0 111.897ZM120.268 172.548C100.759 176.843 89.5327 201.26 99.3573 218.031C103.4 224.932 112.723 231.479 123.619 235.069C137.534 239.654 162.046 235.254 174.185 225.991C182.358 219.755 185.619 214.182 185.619 206.45C185.619 200.921 185.025 199.375 181.717 196.282C179.57 194.277 175.941 192.262 173.653 191.803C167.242 190.52 156.498 190.95 151.391 192.691C147.328 194.078 146.783 194.797 146.783 198.773C146.783 203.218 146.868 203.284 152.65 203.383C157.628 203.467 158.824 204.032 160.548 207.105C162.365 210.343 162.37 211.103 160.593 214.282C157.252 220.259 151.176 222.875 140.479 222.942C135.258 222.976 128.863 222.302 126.267 221.444C111.292 216.498 109 197.561 122.449 189.907C126.068 187.845 126.363 187.115 126.371 180.183C126.375 176.061 125.934 172.452 125.391 172.162C124.849 171.874 122.542 172.048 120.268 172.548ZM119.892 206.295C116.649 210.42 116.609 210.792 119.06 214.097C122.005 218.062 125.622 215.088 126.125 208.287C126.612 201.731 124.109 200.93 119.892 206.295ZM104.798 235.2C103.307 239.089 103.991 247.846 106.14 252.378C108.94 258.279 118.874 266.951 124.9 268.755C127.524 269.539 136.829 270.691 145.579 271.316C157.743 272.183 162.926 273.149 167.6 275.421C174.449 278.75 176.784 278.031 172.995 273.761C169.343 269.648 161.711 266.649 146.783 263.463C139.543 261.917 131.546 259.602 129.011 258.318C123.833 255.694 119.802 248.96 119.799 242.927C119.796 239.467 118.97 238.507 113.837 236.012C106.735 232.56 105.841 232.48 104.798 235.2ZM130.328 245.52C130.328 248.72 130.013 252.158 129.63 253.16C129.188 254.313 130.65 255.799 133.624 257.218C141.69 261.066 142.176 260.633 142.176 249.579V239.701H136.252H130.328V245.52ZM129.666 283.201C128.602 293.793 127.058 295.255 115.189 296.908C111.569 297.413 105.854 299.242 102.489 300.973C98.8689 302.835 92.0958 304.656 85.9019 305.433C80.1438 306.156 73.8617 307.463 71.9437 308.338C64.3307 311.808 68.4867 312.509 91.822 311.691C104.674 311.24 135.774 310.86 160.935 310.846C186.096 310.832 206.682 310.324 206.682 309.716C206.682 307.6 199.945 305.564 188.72 304.288C181.847 303.507 175.697 301.985 173.016 300.404C170.594 298.973 164.403 297.219 159.258 296.507C144.872 294.511 142.76 292.515 143.42 281.528C143.675 277.279 143.234 276.415 140.228 275.272C138.308 274.541 135.357 273.944 133.666 273.944C130.828 273.944 130.524 274.648 129.666 283.201Z" fill="#1B1641"/>
</svg>
