<svg width="112" height="34" viewBox="0 0 112 34" fill="none" xmlns="http://www.w3.org/2000/svg">
<path d="M107.832 33.5C109.866 33.5 111.5 31.8345 111.5 29.7923L111.499 4.21189C111.499 2.17152 109.867 0.5 107.832 0.5H4.17173C2.13883 0.5 0.5 2.1705 0.5 4.21189V29.7923C0.5 31.8355 2.13976 33.5 4.17173 33.5H107.832Z" fill="black" fill-opacity="0.5" stroke="white"/>
<path d="M25.2069 16.8207C25.183 14.1412 27.3814 12.8376 27.4819 12.7769C26.2369 10.9454 24.3071 10.6952 23.629 10.6752C22.0083 10.5031 20.4361 11.6538 19.6105 11.6538C18.7684 11.6538 17.497 10.6919 16.1268 10.7201C14.3635 10.7476 12.7139 11.7776 11.8092 13.3772C9.94205 16.6387 11.3346 21.4315 13.1234 24.0678C14.0182 25.3589 15.0638 26.8005 16.4325 26.7498C17.7714 26.6941 18.2716 25.8885 19.8874 25.8885C21.4883 25.8885 21.958 26.7498 23.3538 26.7174C24.7908 26.6941 25.6955 25.4205 26.5591 24.1177C27.5931 22.6378 28.0084 21.1805 28.0249 21.1056C27.9911 21.094 25.2341 20.0323 25.2069 16.8207Z" fill="white"/>
<path d="M22.5702 8.94099C23.2904 8.0323 23.7831 6.79604 23.6463 5.5415C22.604 5.58806 21.3005 6.26896 20.5498 7.15769C19.8857 7.94085 19.2925 9.22448 19.4457 10.4316C20.6166 10.5198 21.8188 9.83554 22.5702 8.94099Z" fill="white"/>
<path d="M44.583 26.5651H42.7117L41.6867 23.3153H38.1239L37.1475 26.5651H35.3257L38.8556 15.5012H41.0358L44.583 26.5651ZM41.3777 21.9518L40.4508 19.0628C40.3527 18.7677 40.169 18.0727 39.8979 16.9786H39.8649C39.757 17.4491 39.5831 18.1442 39.3442 19.0628L38.4337 21.9518H41.3777V21.9518Z" fill="white"/>
<path d="M53.6607 22.4777C53.6607 23.8345 53.2974 24.907 52.5706 25.6943C51.9197 26.3951 51.1114 26.7451 50.1465 26.7451C49.105 26.7451 48.3568 26.3677 47.9012 25.6128H47.8682V29.8154H46.1115V21.2132C46.1115 20.3602 46.0893 19.4848 46.0464 18.5869H47.5914L47.6894 19.8514H47.7224C48.3082 18.8986 49.1973 18.4231 50.3904 18.4231C51.3231 18.4231 52.1018 18.7947 52.7247 19.5388C53.3493 20.2837 53.6607 21.2631 53.6607 22.4777ZM51.8711 22.5425C51.8711 21.766 51.698 21.1259 51.3503 20.6221C50.9705 20.0966 50.4604 19.8339 49.821 19.8339C49.3876 19.8339 48.9938 19.9803 48.6419 20.2687C48.2893 20.5597 48.0585 20.9397 47.9506 21.4102C47.8962 21.6297 47.869 21.8093 47.869 21.9506V23.2808C47.869 23.8611 48.0454 24.3508 48.398 24.7507C48.7507 25.1506 49.2088 25.3501 49.7724 25.3501C50.4341 25.3501 50.949 25.0924 51.3174 24.5786C51.6865 24.064 51.8711 23.3856 51.8711 22.5425Z" fill="white"/>
<path d="M62.7547 22.4777C62.7547 23.8345 62.3913 24.907 61.6638 25.6943C61.0136 26.3951 60.2053 26.7451 59.2405 26.7451C58.199 26.7451 57.4508 26.3677 56.996 25.6128H56.963V29.8154H55.2063V21.2132C55.2063 20.3602 55.1841 19.4848 55.1412 18.5869H56.6862L56.7842 19.8514H56.8172C57.4022 18.8986 58.2913 18.4231 59.4852 18.4231C60.4171 18.4231 61.1957 18.7947 61.8203 19.5388C62.4424 20.2837 62.7547 21.2631 62.7547 22.4777ZM60.965 22.5425C60.965 21.766 60.7912 21.1259 60.4435 20.6221C60.0636 20.0966 59.5552 19.8339 58.915 19.8339C58.4808 19.8339 58.0877 19.9803 57.7351 20.2687C57.3824 20.5597 57.1525 20.9397 57.0446 21.4102C56.991 21.6297 56.963 21.8093 56.963 21.9506V23.2808C56.963 23.8611 57.1393 24.3508 57.4903 24.7507C57.843 25.1497 58.3011 25.3501 58.8664 25.3501C59.528 25.3501 60.043 25.0924 60.4113 24.5786C60.7805 24.064 60.965 23.3856 60.965 22.5425Z" fill="white"/>
<path d="M72.9216 23.4622C72.9216 24.4033 72.5978 25.169 71.9477 25.7601C71.2333 26.4061 70.2388 26.7287 68.9608 26.7287C67.7809 26.7287 66.8349 26.4992 66.1189 26.0395L66.526 24.5621C67.2972 25.0327 68.1434 25.2688 69.0654 25.2688C69.7271 25.2688 70.2421 25.1175 70.612 24.8165C70.9803 24.5156 71.1641 24.1115 71.1641 23.6077C71.1641 23.1588 71.0125 22.7805 70.7084 22.4737C70.406 22.1669 69.9009 21.8818 69.1956 21.6182C67.2758 20.8958 66.3167 19.8374 66.3167 18.4457C66.3167 17.5362 66.6528 16.7904 67.326 16.2101C67.9967 15.629 68.8916 15.3389 70.0105 15.3389C71.0083 15.3389 71.8373 15.5143 72.4989 15.8643L72.0597 17.3092C71.4418 16.97 70.743 16.8004 69.9611 16.8004C69.3431 16.8004 68.8603 16.9542 68.5142 17.2602C68.2217 17.5337 68.075 17.8671 68.075 18.262C68.075 18.6993 68.2423 19.0609 68.5785 19.3453C68.871 19.608 69.4024 19.8923 70.1737 20.1991C71.1171 20.5823 71.8101 21.0304 72.2558 21.5442C72.7 22.0564 72.9216 22.6973 72.9216 23.4622Z" fill="white"/>
<path d="M78.7307 19.9171H76.7944V23.7905C76.7944 24.7757 77.1355 25.2678 77.8194 25.2678C78.1333 25.2678 78.3937 25.2404 78.5997 25.1855L78.6483 26.5315C78.3022 26.6621 77.8466 26.7277 77.2822 26.7277C76.5884 26.7277 76.0462 26.5141 75.6548 26.0876C75.2651 25.6603 75.069 24.9436 75.069 23.9368V19.9155H73.9154V18.5853H75.069V17.1245L76.7944 16.5991V18.5853H78.7307V19.9171Z" fill="white"/>
<path d="M87.4674 22.5103C87.4674 23.7365 87.1196 24.7433 86.4259 25.5306C85.6983 26.3412 84.7326 26.7453 83.5288 26.7453C82.3686 26.7453 81.445 26.357 80.7561 25.5805C80.0673 24.804 79.7229 23.8238 79.7229 22.6425C79.7229 21.4062 80.0772 20.3936 80.7883 19.6063C81.4977 18.8181 82.4552 18.4241 83.659 18.4241C84.8191 18.4241 85.7527 18.8123 86.4572 19.5897C87.1312 20.3437 87.4674 21.3172 87.4674 22.5103ZM85.6447 22.5676C85.6447 21.8319 85.489 21.2009 85.1734 20.6746C84.8051 20.0378 84.2786 19.7202 83.5963 19.7202C82.8902 19.7202 82.3538 20.0386 81.9855 20.6746C81.6699 21.2017 81.5142 21.8427 81.5142 22.6009C81.5142 23.3367 81.6699 23.9677 81.9855 24.4931C82.3653 25.1299 82.896 25.4475 83.5807 25.4475C84.2514 25.4475 84.7779 25.1233 85.1578 24.4765C85.4816 23.9402 85.6447 23.3026 85.6447 22.5676Z" fill="white"/>
<path d="M93.1774 20.1457C93.0035 20.1133 92.8181 20.0966 92.6237 20.0966C92.0057 20.0966 91.5278 20.3319 91.1916 20.8033C90.8991 21.219 90.7524 21.7444 90.7524 22.3788V26.5647H88.9965L89.013 21.0993C89.013 20.1798 88.9908 19.3426 88.9471 18.5877H90.4772L90.5415 20.1141H90.5901C90.7755 19.5895 91.068 19.1672 91.4685 18.8504C91.8599 18.5653 92.2826 18.4231 92.7382 18.4231C92.9005 18.4231 93.0472 18.4347 93.1774 18.4555V20.1457Z" fill="white"/>
<path d="M101.034 22.1992C101.034 22.5167 101.014 22.7844 100.97 23.0031H95.6998C95.7204 23.7912 95.9751 24.394 96.4645 24.8097C96.9086 25.1813 97.4829 25.3675 98.1882 25.3675C98.9685 25.3675 99.6804 25.242 100.321 24.9901L100.596 26.2205C99.8477 26.5497 98.9644 26.7135 97.9452 26.7135C96.7191 26.7135 95.7567 26.3494 95.0563 25.6219C94.3576 24.8945 94.0074 23.9176 94.0074 22.6922C94.0074 21.4892 94.3329 20.4874 94.9846 19.6884C95.6669 18.8354 96.5889 18.4089 97.7491 18.4089C98.8886 18.4089 99.7513 18.8354 100.337 19.6884C100.801 20.366 101.034 21.204 101.034 22.1992ZM99.3591 21.7394C99.3706 21.214 99.2561 20.7601 99.018 20.3768C98.7139 19.8838 98.2467 19.6377 97.6181 19.6377C97.0437 19.6377 96.5766 19.878 96.2198 20.3602C95.9273 20.7434 95.7534 21.2032 95.6998 21.7386H99.3591V21.7394Z" fill="white"/>
<path d="M40.7991 8.69482C40.7991 9.67334 40.5082 10.4099 39.9273 10.9046C39.3893 11.361 38.6246 11.5897 37.6342 11.5897C37.1431 11.5897 36.7229 11.568 36.3711 11.5248V6.17825C36.83 6.10343 37.3244 6.06519 37.8583 6.06519C38.8018 6.06519 39.5129 6.2722 39.9924 6.68622C40.5296 7.15428 40.7991 7.82354 40.7991 8.69482ZM39.8886 8.71893C39.8886 8.08459 39.7222 7.59824 39.3893 7.25904C39.0564 6.92067 38.5702 6.75107 37.93 6.75107C37.6581 6.75107 37.4266 6.76936 37.2346 6.8076V10.8722C37.3409 10.8888 37.5353 10.8963 37.818 10.8963C38.4788 10.8963 38.9888 10.7109 39.3481 10.3401C39.7073 9.96931 39.8886 9.42892 39.8886 8.71893Z" fill="white"/>
<path d="M45.6279 9.54966C45.6279 10.1524 45.4573 10.6462 45.1162 11.0337C44.7586 11.4319 44.2848 11.6306 43.6932 11.6306C43.123 11.6306 42.669 11.4402 42.3303 11.0578C41.9925 10.6762 41.8236 10.1948 41.8236 9.6145C41.8236 9.0076 41.9975 8.50961 42.3468 8.12302C42.6962 7.73643 43.1658 7.54272 43.7575 7.54272C44.3276 7.54272 44.7858 7.73311 45.1327 8.11471C45.4623 8.4855 45.6279 8.96437 45.6279 9.54966ZM44.7322 9.57792C44.7322 9.21628 44.6548 8.90617 44.5007 8.64762C44.3194 8.33502 44.0615 8.17872 43.7262 8.17872C43.3793 8.17872 43.1156 8.33502 42.9343 8.64762C42.7794 8.90617 42.7028 9.22127 42.7028 9.59372C42.7028 9.95537 42.7802 10.2655 42.9343 10.524C43.1214 10.8366 43.3817 10.9929 43.7179 10.9929C44.0475 10.9929 44.3062 10.8341 44.4924 10.5157C44.6523 10.2522 44.7322 9.93957 44.7322 9.57792Z" fill="white"/>
<path d="M52.0997 7.62207L50.8844 11.5412H50.0934L49.5899 9.83934C49.4622 9.41451 49.3584 8.99217 49.2776 8.57316H49.262C49.187 9.00381 49.0832 9.42532 48.9497 9.83934L48.4149 11.5412H47.6149L46.472 7.62207H47.3594L47.7986 9.48518C47.9049 9.9258 47.9922 10.3456 48.0623 10.743H48.0779C48.1422 10.4155 48.2485 9.99813 48.3985 9.49349L48.9497 7.6229H49.6534L50.1815 9.45358C50.3092 9.90003 50.4131 10.3299 50.493 10.7439H50.5169C50.5754 10.3407 50.6635 9.91084 50.7806 9.45358L51.2519 7.6229H52.0997V7.62207Z" fill="white"/>
<path d="M56.5766 11.5412H55.7131V9.29649C55.7131 8.60478 55.4527 8.25893 54.9303 8.25893C54.6741 8.25893 54.4673 8.35371 54.3066 8.54409C54.1476 8.73448 54.0668 8.95895 54.0668 9.21584V11.5404H53.2033V8.74196C53.2033 8.39777 53.1926 8.02449 53.172 7.62044H53.9309L53.9712 8.23316H53.9951C54.0957 8.04278 54.2456 7.88565 54.4426 7.76011C54.6766 7.61379 54.9386 7.53979 55.2253 7.53979C55.5879 7.53979 55.8894 7.65785 56.1292 7.89479C56.4275 8.18494 56.5766 8.61809 56.5766 9.1934V11.5412V11.5412Z" fill="white"/>
<path d="M58.9577 11.5411H58.095V5.82373H58.9577V11.5411Z" fill="white"/>
<path d="M64.0411 9.54966C64.0411 10.1524 63.8705 10.6462 63.5294 11.0337C63.1718 11.4319 62.6972 11.6306 62.1064 11.6306C61.5354 11.6306 61.0814 11.4402 60.7435 11.0578C60.4057 10.6762 60.2368 10.1948 60.2368 9.6145C60.2368 9.0076 60.4107 8.50961 60.76 8.12302C61.1094 7.73643 61.579 7.54272 62.1698 7.54272C62.7408 7.54272 63.1981 7.73311 63.5459 8.11471C63.8755 8.4855 64.0411 8.96437 64.0411 9.54966ZM63.1446 9.57792C63.1446 9.21628 63.0671 8.90617 62.9131 8.64762C62.7326 8.33502 62.4739 8.17872 62.1393 8.17872C61.7916 8.17872 61.528 8.33502 61.3475 8.64762C61.1926 8.90617 61.116 9.22127 61.116 9.59372C61.116 9.95537 61.1934 10.2655 61.3475 10.524C61.5346 10.8366 61.7949 10.9929 62.1311 10.9929C62.4607 10.9929 62.7186 10.8341 62.9048 10.5157C63.0655 10.2522 63.1446 9.93957 63.1446 9.57792Z" fill="white"/>
<path d="M68.2211 11.5416H67.4457L67.3815 11.0902H67.3576C67.0922 11.4502 66.714 11.6306 66.223 11.6306C65.8563 11.6306 65.5597 11.5117 65.3364 11.2756C65.1337 11.0611 65.0323 10.7942 65.0323 10.4775C65.0323 9.9986 65.2301 9.63363 65.628 9.38089C66.0252 9.12815 66.5839 9.00428 67.3032 9.0101V8.93694C67.3032 8.42065 67.0346 8.16293 66.4965 8.16293C66.1134 8.16293 65.7755 8.2602 65.4839 8.45308L65.3083 7.88109C65.6692 7.65579 66.115 7.54272 66.6407 7.54272C67.6558 7.54272 68.165 8.08312 68.165 9.1639V10.6072C68.165 10.9987 68.184 11.3105 68.2211 11.5416ZM67.3246 10.1948V9.5904C66.3721 9.57377 65.8958 9.83731 65.8958 10.3802C65.8958 10.5847 65.9502 10.7377 66.0615 10.8399C66.1727 10.9422 66.3144 10.9929 66.4833 10.9929C66.6728 10.9929 66.85 10.9322 67.0115 10.8117C67.1738 10.6903 67.2735 10.5365 67.3106 10.3478C67.3197 10.3054 67.3246 10.2538 67.3246 10.1948Z" fill="white"/>
<path d="M73.1277 11.5411H72.3614L72.3211 10.9117H72.2972C72.0524 11.3906 71.6355 11.63 71.0497 11.63C70.5817 11.63 70.1919 11.4446 69.8829 11.0738C69.5739 10.7031 69.4199 10.2217 69.4199 9.63059C69.4199 8.99625 69.5871 8.48246 69.9233 8.09005C70.2488 7.72425 70.6476 7.54135 71.1222 7.54135C71.6437 7.54135 72.0088 7.71843 72.2164 8.07342H72.2329V5.82373H73.0972V10.4852C73.0972 10.8668 73.1071 11.2185 73.1277 11.5411ZM72.2329 9.88831V9.23485C72.2329 9.12179 72.2246 9.03033 72.209 8.9605C72.1604 8.75099 72.0557 8.57474 71.8967 8.43258C71.736 8.29041 71.5424 8.21891 71.3191 8.21891C70.9969 8.21891 70.7448 8.34778 70.5594 8.60633C70.3757 8.86489 70.2826 9.19495 70.2826 9.59816C70.2826 9.98558 70.3707 10.2998 70.5479 10.5418C70.7349 10.7995 70.987 10.9284 71.3026 10.9284C71.5861 10.9284 71.8127 10.8211 71.9849 10.6058C72.1513 10.4071 72.2329 10.1677 72.2329 9.88831Z" fill="white"/>
<path d="M80.5125 9.54966C80.5125 10.1524 80.342 10.6462 80.0008 11.0337C79.6432 11.4319 79.1703 11.6306 78.5778 11.6306C78.0085 11.6306 77.5545 11.4402 77.215 11.0578C76.8772 10.6762 76.7083 10.1948 76.7083 9.6145C76.7083 9.0076 76.8821 8.50961 77.2315 8.12302C77.5808 7.73643 78.0505 7.54272 78.6429 7.54272C79.2123 7.54272 79.6713 7.73311 80.0173 8.11471C80.3469 8.4855 80.5125 8.96437 80.5125 9.54966ZM79.6177 9.57792C79.6177 9.21628 79.5402 8.90617 79.3862 8.64762C79.2041 8.33502 78.947 8.17872 78.6108 8.17872C78.2647 8.17872 78.0011 8.33502 77.819 8.64762C77.6641 8.90617 77.5874 9.22127 77.5874 9.59372C77.5874 9.95537 77.6649 10.2655 77.819 10.524C78.006 10.8366 78.2664 10.9929 78.6026 10.9929C78.9321 10.9929 79.1917 10.8341 79.3779 10.5157C79.5369 10.2522 79.6177 9.93957 79.6177 9.57792Z" fill="white"/>
<path d="M85.1567 11.5412H84.294V9.29649C84.294 8.60478 84.0336 8.25893 83.5104 8.25893C83.2541 8.25893 83.0473 8.35371 82.8875 8.54409C82.7276 8.73448 82.6477 8.95895 82.6477 9.21584V11.5404H81.7833V8.74196C81.7833 8.39777 81.7735 8.02449 81.7529 7.62044H82.5109L82.5513 8.23316H82.5752C82.6765 8.04278 82.8265 7.88565 83.0226 7.76011C83.2574 7.61379 83.5186 7.53979 83.8062 7.53979C84.1679 7.53979 84.4695 7.65785 84.7093 7.89479C85.0084 8.18494 85.1567 8.61809 85.1567 9.1934V11.5412V11.5412Z" fill="white"/>
<path d="M90.9675 8.27441H90.0166V10.1783C90.0166 10.6621 90.1856 10.904 90.5201 10.904C90.675 10.904 90.8035 10.8907 90.9049 10.8633L90.9271 11.5242C90.7566 11.5891 90.5325 11.6215 90.2564 11.6215C89.9153 11.6215 89.65 11.5168 89.458 11.3073C89.2652 11.0978 89.1696 10.7452 89.1696 10.2506V8.27441H88.6019V7.62178H89.1696V6.90348L90.0158 6.64575V7.62095H90.9667V8.27441H90.9675Z" fill="white"/>
<path d="M95.539 11.5411H94.6747V9.313C94.6747 8.61049 94.4143 8.25882 93.8927 8.25882C93.4923 8.25882 93.2187 8.46251 93.0688 8.86988C93.0432 8.95551 93.0284 9.06026 93.0284 9.18331V11.5402H92.1657V5.82373H93.0284V8.18566H93.0449C93.3168 7.75584 93.7065 7.54135 94.2116 7.54135C94.5692 7.54135 94.865 7.6594 95.0998 7.89634C95.3924 8.19148 95.539 8.63044 95.539 9.21074V11.5411V11.5411Z" fill="white"/>
<path d="M100.254 9.39611C100.254 9.55241 100.242 9.68377 100.221 9.79101H97.6318C97.6433 10.1784 97.7669 10.4736 98.0067 10.6781C98.2258 10.861 98.5085 10.9524 98.8545 10.9524C99.2377 10.9524 99.587 10.8909 99.9018 10.767L100.037 11.3723C99.6686 11.5336 99.2352 11.6142 98.7334 11.6142C98.1319 11.6142 97.6581 11.4355 97.3154 11.078C96.9709 10.7205 96.8004 10.2408 96.8004 9.63887C96.8004 9.04777 96.9594 8.55559 97.2799 8.16319C97.6145 7.74417 98.0668 7.53467 98.6378 7.53467C99.1965 7.53467 99.6208 7.74417 99.9076 8.16319C100.139 8.49573 100.254 8.90726 100.254 9.39611ZM99.4297 9.17081C99.4362 8.91225 99.3794 8.68944 99.2624 8.50155C99.1124 8.25962 98.8842 8.13824 98.5752 8.13824C98.2934 8.13824 98.0635 8.2563 97.888 8.49324C97.7446 8.68196 97.6598 8.90726 97.6318 9.17081H99.4297Z" fill="white"/>
</svg>
