<svg width="114" height="36" viewBox="0 0 114 36" fill="none" xmlns="http://www.w3.org/2000/svg">
<path d="M107.926 34.4407H6.07407C3.4956 34.4407 1.3735 32.3797 1.3735 29.8438V5.97771C1.3735 3.44187 3.4956 1.38081 6.07407 1.38081H107.926C110.504 1.38081 112.626 3.44187 112.626 5.97771V29.8438C112.626 32.3797 110.504 34.4407 107.926 34.4407Z" fill="black" fill-opacity="0.5" stroke="white"/>
<path d="M40.6376 10.1496C40.6376 10.8139 40.4339 11.3459 40.0326 11.7427C39.5712 12.213 38.9703 12.4497 38.2339 12.4497C37.5301 12.4497 36.9292 12.209 36.4362 11.7347C35.9422 11.2534 35.6958 10.6627 35.6958 9.95568C35.6958 9.24865 35.9422 8.65796 36.4362 8.18064C36.9292 7.70232 37.5301 7.46167 38.2339 7.46167C38.5843 7.46167 38.9184 7.53227 39.2372 7.66354C39.5549 7.7958 39.8136 7.97479 40.001 8.19555L39.5753 8.6152C39.2484 8.23831 38.8033 8.05236 38.2339 8.05236C37.7206 8.05236 37.2755 8.22738 36.8976 8.58039C36.5238 8.93441 36.3364 9.39284 36.3364 9.95568C36.3364 10.5185 36.5238 10.9809 36.8976 11.3349C37.2755 11.684 37.7206 11.863 38.2339 11.863C38.7788 11.863 39.2372 11.684 39.5987 11.331C39.8371 11.0973 39.9725 10.7751 40.0082 10.3634H38.2339V9.78862H40.601C40.6295 9.91292 40.6376 10.0332 40.6376 10.1496Z" fill="white" stroke="white" stroke-width="0.16" stroke-miterlimit="10"/>
<path d="M44.391 8.15627H42.1676V9.66779H44.1721V10.2426H42.1676V11.7541H44.391V12.3398H41.5382V7.57056H44.391V8.15627Z" fill="white" stroke="white" stroke-width="0.16" stroke-miterlimit="10"/>
<path d="M47.0428 12.3396H46.4134V8.15603H45.0496V7.57031H48.4076V8.15603H47.0428V12.3396Z" fill="white" stroke="white" stroke-width="0.16" stroke-miterlimit="10"/>
<path d="M50.8355 12.3396V7.57031H51.4639V12.3396H50.8355Z" fill="white" stroke="white" stroke-width="0.16" stroke-miterlimit="10"/>
<path d="M54.2524 12.3396H53.628V8.15603H52.2591V7.57031H55.6212V8.15603H54.2524V12.3396Z" fill="white" stroke="white" stroke-width="0.16" stroke-miterlimit="10"/>
<path d="M61.9774 11.7267C61.4956 12.209 60.8988 12.4497 60.1868 12.4497C59.4708 12.4497 58.874 12.209 58.3922 11.7267C57.9115 11.2454 57.6721 10.6548 57.6721 9.95568C57.6721 9.2566 57.9115 8.66592 58.3922 8.18462C58.874 7.70232 59.4708 7.46167 60.1868 7.46167C60.8947 7.46167 61.4916 7.70232 61.9733 8.18859C62.4581 8.67387 62.6975 9.26058 62.6975 9.95568C62.6975 10.6548 62.4581 11.2454 61.9774 11.7267ZM58.8577 11.327C59.2203 11.684 59.6613 11.863 60.1868 11.863C60.7083 11.863 61.1534 11.684 61.5119 11.327C61.8735 10.97 62.0568 10.5116 62.0568 9.95568C62.0568 9.3998 61.8735 8.94137 61.5119 8.58437C61.1534 8.22738 60.7083 8.04838 60.1868 8.04838C59.6613 8.04838 59.2203 8.22738 58.8577 8.58437C58.4961 8.94137 58.3128 9.3998 58.3128 9.95568C58.3128 10.5116 58.4961 10.97 58.8577 11.327Z" fill="white" stroke="white" stroke-width="0.16" stroke-miterlimit="10"/>
<path d="M63.5804 12.3396V7.57031H64.3443L66.7195 11.2795H66.747L66.7195 10.3626V7.57031H67.3479V12.3396H66.692L64.2047 8.44739H64.1772L64.2047 9.36823V12.3396H63.5804Z" fill="white" stroke="white" stroke-width="0.16" stroke-miterlimit="10"/>
<path d="M57.5168 19.3046C55.603 19.3046 54.0396 20.7266 54.0396 22.6886C54.0396 24.6347 55.603 26.0717 57.5168 26.0717C59.4347 26.0717 60.9981 24.6347 60.9981 22.6886C60.9981 20.7266 59.4347 19.3046 57.5168 19.3046ZM57.5168 24.7391C56.4667 24.7391 55.5633 23.8929 55.5633 22.6886C55.5633 21.4685 56.4667 20.6371 57.5168 20.6371C58.5669 20.6371 59.4744 21.4685 59.4744 22.6886C59.4744 23.8929 58.5669 24.7391 57.5168 24.7391ZM49.9298 19.3046C48.012 19.3046 46.4526 20.7266 46.4526 22.6886C46.4526 24.6347 48.012 26.0717 49.9298 26.0717C51.8467 26.0717 53.4071 24.6347 53.4071 22.6886C53.4071 20.7266 51.8467 19.3046 49.9298 19.3046ZM49.9298 24.7391C48.8787 24.7391 47.9723 23.8929 47.9723 22.6886C47.9723 21.4685 48.8787 20.6371 49.9298 20.6371C50.9799 20.6371 51.8834 21.4685 51.8834 22.6886C51.8834 23.8929 50.9799 24.7391 49.9298 24.7391ZM40.9017 20.3418V21.7797H44.4186C44.3158 22.5832 44.0408 23.1739 43.6191 23.5856C43.1058 24.0828 42.3062 24.6347 40.9017 24.6347C38.7374 24.6347 37.0425 22.9293 37.0425 20.8161C37.0425 18.703 38.7374 16.9976 40.9017 16.9976C42.072 16.9976 42.9235 17.4441 43.5519 18.0228L44.5898 17.0095C43.7108 16.1901 42.5415 15.5606 40.9017 15.5606C37.9337 15.5606 35.4394 17.9184 35.4394 20.8161C35.4394 23.7139 37.9337 26.0717 40.9017 26.0717C42.5059 26.0717 43.7108 25.5585 44.658 24.5959C45.6286 23.6483 45.9311 22.3157 45.9311 21.2398C45.9311 20.9056 45.9026 20.5984 45.8517 20.3418H40.9017ZM77.8189 21.4565C77.5327 20.6998 76.6497 19.3046 74.8509 19.3046C73.0685 19.3046 71.5846 20.6759 71.5846 22.6886C71.5846 24.584 73.0533 26.0717 75.0221 26.0717C76.614 26.0717 77.5327 25.124 77.9106 24.5721L76.7291 23.8034C76.3349 24.3662 75.7982 24.7391 75.0221 24.7391C74.251 24.7391 73.698 24.3941 73.3435 23.7139L77.9788 21.8414L77.8189 21.4565ZM73.093 22.5832C73.0533 21.2785 74.1309 20.6103 74.9029 20.6103C75.5079 20.6103 76.0212 20.9056 76.1923 21.3283L73.093 22.5832ZM69.3255 25.8658H70.8492V15.9216H69.3255V25.8658ZM66.8301 20.0584H66.7792C66.437 19.6626 65.7841 19.3046 64.9571 19.3046C63.2215 19.3046 61.6347 20.7923 61.6347 22.6996C61.6347 24.5959 63.2215 26.0717 64.9571 26.0717C65.7841 26.0717 66.437 25.7107 66.7792 25.303H66.8301V25.7883C66.8301 27.082 66.1222 27.7771 64.9805 27.7771C64.0496 27.7771 63.4721 27.1208 63.2337 26.5689L61.9086 27.1088C62.2906 28.0058 63.302 29.1096 64.9805 29.1096C66.767 29.1096 68.2744 28.0834 68.2744 25.5864V19.5105H66.8301V20.0584ZM65.0874 24.7391C64.0373 24.7391 63.1584 23.8809 63.1584 22.6996C63.1584 21.5073 64.0373 20.6371 65.0874 20.6371C66.1223 20.6371 66.9381 21.5073 66.9381 22.6996C66.9381 23.8809 66.1223 24.7391 65.0874 24.7391ZM84.9526 15.9216H81.3083V25.8658H82.828V22.0979H84.9526C86.6403 22.0979 88.2954 20.9056 88.2954 19.0093C88.2954 17.1139 86.6362 15.9216 84.9526 15.9216ZM84.9923 20.7147H82.828V17.3048H84.9923C86.127 17.3048 86.7747 18.2247 86.7747 19.0093C86.7747 19.779 86.127 20.7147 84.9923 20.7147ZM94.3861 19.2857C93.2882 19.2857 92.1464 19.7591 91.6769 20.8082L93.0254 21.3601C93.3157 20.8082 93.8494 20.6292 94.4136 20.6292C95.202 20.6292 96.0015 21.0916 96.0137 21.908V22.0124C95.7387 21.8573 95.15 21.6276 94.4259 21.6276C92.9734 21.6276 91.4935 22.4082 91.4935 23.865C91.4935 25.1976 92.6832 26.0557 94.0205 26.0557C95.0431 26.0557 95.6073 25.6053 95.9618 25.0812H96.0137V25.8499H97.4814V22.0353C97.4814 20.2722 96.1329 19.2857 94.3861 19.2857ZM94.2028 24.7352C93.7058 24.7352 93.0132 24.4945 93.0132 23.8929C93.0132 23.1232 93.8769 22.8279 94.6245 22.8279C95.2936 22.8279 95.6073 22.972 96.0137 23.162C95.8946 24.0828 95.0828 24.7352 94.2028 24.7352ZM102.829 19.5035L101.082 23.8143H101.03L99.2241 19.5035H97.5853L100.299 25.5277L98.7505 28.8799H100.338L104.519 19.5035H102.829ZM89.1306 25.8658H90.6543V15.9216H89.1306V25.8658Z" fill="white"/>
<path d="M10.5042 7.99663C10.2648 8.24126 10.1263 8.62212 10.1263 9.11536V26.7087C10.1263 27.2019 10.2648 27.5828 10.5042 27.8274L10.5632 27.8811L20.6608 18.0264V17.7937L10.5632 7.93896L10.5042 7.99663Z" fill="url(#paint0_linear_1026_1432)"/>
<path d="M24.0231 21.3135L20.661 18.0269V17.7942L24.0272 14.5076L24.1025 14.5504L28.089 16.765C29.2267 17.3935 29.2267 18.4277 28.089 19.0601L24.1025 21.2707L24.0231 21.3135Z" fill="url(#paint1_linear_1026_1432)"/>
<path d="M24.101 21.271L20.6595 17.9109L10.5028 27.8283C10.8807 28.2161 11.4969 28.2628 12.1976 27.875L24.101 21.271Z" fill="url(#paint2_linear_1026_1432)"/>
<path d="M24.101 14.5507L12.1976 7.94678C11.4969 7.56293 10.8807 7.60967 10.5028 7.99749L20.6595 17.9109L24.101 14.5507Z" fill="url(#paint3_linear_1026_1432)"/>
<defs>
<linearGradient id="paint0_linear_1026_1432" x1="19.7643" y1="26.8919" x2="6.41708" y2="13.2213" gradientUnits="userSpaceOnUse">
<stop stop-color="#00A0FF"/>
<stop offset="0.0066" stop-color="#00A1FF"/>
<stop offset="0.2601" stop-color="#00BEFF"/>
<stop offset="0.5122" stop-color="#00D2FF"/>
<stop offset="0.7604" stop-color="#00DFFF"/>
<stop offset="1" stop-color="#00E3FF"/>
</linearGradient>
<linearGradient id="paint1_linear_1026_1432" x1="29.5705" y1="17.9094" x2="9.85449" y2="17.9094" gradientUnits="userSpaceOnUse">
<stop stop-color="#FFE000"/>
<stop offset="0.4087" stop-color="#FFBD00"/>
<stop offset="0.7754" stop-color="#FFA500"/>
<stop offset="1" stop-color="#FF9C00"/>
</linearGradient>
<linearGradient id="paint2_linear_1026_1432" x1="22.2296" y1="16.0843" x2="4.1297" y2="-2.45423" gradientUnits="userSpaceOnUse">
<stop stop-color="#FF3A44"/>
<stop offset="1" stop-color="#C31162"/>
</linearGradient>
<linearGradient id="paint3_linear_1026_1432" x1="7.94615" y1="33.6815" x2="16.0286" y2="25.4033" gradientUnits="userSpaceOnUse">
<stop stop-color="#32A071"/>
<stop offset="0.0685" stop-color="#2DA771"/>
<stop offset="0.4762" stop-color="#15CF74"/>
<stop offset="0.8009" stop-color="#06E775"/>
<stop offset="1" stop-color="#00F076"/>
</linearGradient>
</defs>
</svg>
