<svg width="181" height="181" viewBox="0 0 181 181" fill="none" xmlns="http://www.w3.org/2000/svg">
<rect width="181" height="181" rx="35.3516" fill="#0E1B4F"/>
<g opacity="0.08">
<path d="M14.6748 69.9711C14.6748 66.8473 17.2072 64.3149 20.3311 64.3149H101.965C105.088 64.3149 107.621 66.8473 107.621 69.9711V91.4631C107.621 94.5869 105.088 97.1193 101.964 97.1193H20.331C17.2072 97.1193 14.6748 94.5869 14.6748 91.4631V69.9711Z" fill="white"/>
<path d="M50.4018 127.19C47.2779 127.19 44.7456 124.658 44.7456 121.534V39.9004C44.7456 36.7765 47.2779 34.2441 50.4018 34.2441H71.8937C75.0176 34.2441 77.55 36.7765 77.55 39.9004V121.534C77.55 124.658 75.0176 127.19 71.8937 127.19H50.4018Z" fill="white"/>
</g>
<path fill-rule="evenodd" clip-rule="evenodd" d="M90.4901 56.9453H90.4902C92.0989 56.9453 93.4149 58.2614 93.4149 59.87V69.2057C93.4149 70.8143 92.0989 72.1304 90.4902 72.1304H90.4901C88.8815 72.1304 87.5654 70.8143 87.5654 69.2057V59.87C87.5654 58.2614 88.8815 56.9453 90.4901 56.9453Z" fill="white"/>
<path fill-rule="evenodd" clip-rule="evenodd" d="M64.3506 65.9375H64.3507C65.9592 65.9375 67.2753 67.2536 67.2753 68.8622V71.0387C67.2753 72.6474 65.9592 73.9634 64.3507 73.9634H64.3506C62.7418 73.9634 61.4258 72.6474 61.4258 71.0387V68.8622C61.4258 67.2536 62.7418 65.9375 64.3506 65.9375Z" fill="white"/>
<path fill-rule="evenodd" clip-rule="evenodd" d="M77.4209 53.5H77.421C79.0295 53.5 80.3456 54.8161 80.3456 56.4246V71.5382C80.3456 73.1468 79.0295 74.4628 77.421 74.4628H77.4209C75.8122 74.4628 74.4961 73.1468 74.4961 71.5382V56.4246C74.4961 54.8161 75.8122 53.5 77.4209 53.5Z" fill="white"/>
<path fill-rule="evenodd" clip-rule="evenodd" d="M103.56 49.2461H103.561C105.169 49.2461 106.485 50.5622 106.485 52.1708V73.2346C106.485 74.8433 105.169 76.1593 103.561 76.1593H103.56C101.952 76.1593 100.636 74.8433 100.636 73.2346V52.1708C100.636 50.5622 101.952 49.2461 103.56 49.2461Z" fill="white"/>
<path fill-rule="evenodd" clip-rule="evenodd" d="M51.2822 64.0586H51.2823C52.8909 64.0586 54.2069 65.3747 54.2069 66.9833V73.4288C54.2069 75.0375 52.8909 76.3535 51.2823 76.3535H51.2822C49.6735 76.3535 48.3574 75.0375 48.3574 73.4288V66.9833C48.3574 65.3747 49.6735 64.0586 51.2822 64.0586Z" fill="white"/>
<path fill-rule="evenodd" clip-rule="evenodd" d="M116.631 66.9648H116.631C118.239 66.9648 119.555 68.2808 119.555 69.8894V70.5238C119.555 72.1324 118.239 73.4483 116.631 73.4483H116.631C115.022 73.4483 113.706 72.1324 113.706 70.5238V69.8894C113.706 68.2808 115.022 66.9648 116.631 66.9648Z" fill="white"/>
<path fill-rule="evenodd" clip-rule="evenodd" d="M129.7 65.3125H129.7C131.309 65.3125 132.625 66.6286 132.625 68.2372V70.4886C132.625 72.0972 131.309 73.4133 129.7 73.4133H129.7C128.091 73.4133 126.775 72.0972 126.775 70.4886V68.2372C126.775 66.6286 128.091 65.3125 129.7 65.3125Z" fill="white"/>
<path fill-rule="evenodd" clip-rule="evenodd" d="M41.8606 87.42L47.7256 80.2214H50.6373V94.0315H47.2311V85.6229L41.8591 92.1422L36.4872 85.6229V94.0315H33.0811V80.2214H36.0224L41.8606 87.42ZM61.1556 94.3582C58.7346 94.3582 56.596 93.7213 54.8876 92.312C53.1718 90.8967 52.4109 89.1329 52.4109 87.1537C52.4109 85.1697 53.1738 83.4024 54.8984 81.9866C56.6083 80.5828 58.7366 79.9414 61.1556 79.9414C63.5851 79.9414 65.722 80.5851 67.4409 81.994C69.1663 83.4082 69.9385 85.1692 69.9385 87.1537C69.9385 89.1367 69.1701 90.9 67.4457 92.3134C65.7284 93.7211 63.5817 94.3582 61.1556 94.3582ZM82.8259 88.5851V80.2214H86.2607V94.0315H84.1793L75.2328 85.6643V94.0315H71.798V80.2214H73.9088L82.8259 88.5851ZM96.7313 80.2214C99.1431 80.2214 101.376 80.7659 103.13 82.1489C104.849 83.5038 105.591 85.2266 105.591 87.1615C105.591 89.0783 104.884 90.8149 103.165 92.1535C101.402 93.5265 99.1301 94.0315 96.7313 94.0315H89.352V80.2214H96.7313ZM107.479 94.0315V80.1514H110.942V94.0315H107.479ZM125.095 88.5851V80.2214H128.53V94.0315H126.448L117.502 85.6643V94.0315H114.067V80.2214H116.178L125.095 88.5851ZM139.134 94.3582C136.713 94.3582 134.574 93.7213 132.866 92.312C131.15 90.8967 130.389 89.1329 130.389 87.1537C130.389 85.1697 131.152 83.4024 132.877 81.9866C134.586 80.5828 136.715 79.9414 139.134 79.9414C141.563 79.9414 143.7 80.5851 145.419 81.994C147.144 83.4082 147.917 85.1692 147.917 87.1537C147.917 89.1367 147.148 90.9 145.424 92.3134C143.707 93.7211 141.56 94.3582 139.134 94.3582ZM61.1604 91.6537C62.6377 91.6537 63.8971 91.2673 64.9249 90.3966C65.9867 89.4974 66.4178 88.3916 66.4178 87.1537C66.4178 85.9149 65.9872 84.8043 64.9282 83.9016C63.9016 83.0267 62.6339 82.6459 61.1604 82.6459C59.6814 82.6459 58.4234 83.0369 57.3967 83.9099C56.3371 84.8109 55.903 85.915 55.903 87.1537C55.903 88.3916 56.3341 89.4974 57.3957 90.3966C58.4238 91.2674 59.6831 91.6537 61.1604 91.6537ZM92.7867 82.9025V91.3505H96.7313C98.1905 91.3505 99.6202 91.0753 100.689 90.2239C101.733 89.3918 102.098 88.3068 102.098 87.1381C102.098 85.9598 101.704 84.8957 100.659 84.0592C99.5876 83.2016 98.2019 82.9025 96.7313 82.9025H92.7867ZM139.139 91.6537C140.616 91.6537 141.875 91.2673 142.903 90.3966C143.965 89.4974 144.396 88.3916 144.396 87.1537C144.396 85.9149 143.965 84.8043 142.906 83.9016C141.88 83.0267 140.612 82.6459 139.139 82.6459C137.66 82.6459 136.402 83.0369 135.375 83.9099C134.315 84.8109 133.881 85.915 133.881 87.1537C133.881 88.3916 134.312 89.4974 135.374 90.3966C136.402 91.2674 137.661 91.6537 139.139 91.6537Z" fill="#FEFEFE"/>
<path fill-rule="evenodd" clip-rule="evenodd" d="M64.3506 45.9902H64.3507C65.9592 45.9902 67.2753 47.3063 67.2753 48.9149V60.2009C67.2753 61.8096 65.9592 63.1256 64.3507 63.1256H64.3506C62.7418 63.1256 61.4258 61.8096 61.4258 60.2009V48.9149C61.4258 47.3063 62.7418 45.9902 64.3506 45.9902Z" fill="white"/>
<path fill-rule="evenodd" clip-rule="evenodd" d="M116.121 59.1348H117.14C118.468 59.1348 119.555 60.2217 119.555 61.5502V61.5503C119.555 62.8787 118.468 63.9657 117.14 63.9657H116.121C114.793 63.9657 113.706 62.8787 113.706 61.5503V61.5502C113.706 60.2217 114.793 59.1348 116.121 59.1348Z" fill="white"/>
<path fill-rule="evenodd" clip-rule="evenodd" d="M116.631 46.123H116.631C118.239 46.123 119.555 47.439 119.555 49.0476V53.4164C119.555 55.025 118.239 56.3409 116.631 56.3409H116.631C115.022 56.3409 113.706 55.025 113.706 53.4164V49.0476C113.706 47.439 115.022 46.123 116.631 46.123Z" fill="white"/>
<path fill-rule="evenodd" clip-rule="evenodd" d="M129.7 49.043H129.7C131.309 49.043 132.625 50.359 132.625 51.9677V57.6845C132.625 59.2931 131.309 60.6092 129.7 60.6092H129.7C128.091 60.6092 126.775 59.2931 126.775 57.6845V51.9677C126.775 50.359 128.091 49.043 129.7 49.043Z" fill="white"/>
<path fill-rule="evenodd" clip-rule="evenodd" d="M51.2822 49.6543H51.2823C52.8909 49.6543 54.2069 50.9704 54.2069 52.579V58.2901C54.2069 59.8988 52.8909 61.2148 51.2823 61.2148H51.2822C49.6735 61.2148 48.3574 59.8988 48.3574 58.2901V52.579C48.3574 50.9704 49.6735 49.6543 51.2822 49.6543Z" fill="white"/>
<path fill-rule="evenodd" clip-rule="evenodd" d="M93.411 111.98C93.4136 112.034 93.4149 112.088 93.4149 112.141V118.102C92.7537 118.636 92.4857 119.318 92.4857 120.083C92.4857 120.848 92.7537 121.563 93.4149 122.022V136.057C93.4149 137.769 92.0984 139.17 90.4902 139.17H90.4901C88.8821 139.17 87.5654 137.769 87.5654 136.057V122.04C88.2385 121.535 88.5626 120.816 88.5626 120.032C88.5626 119.248 88.2486 118.54 87.5654 118.045V112.141C87.5654 112.087 87.5668 112.034 87.5694 111.98H93.411Z" fill="white"/>
<path fill-rule="evenodd" clip-rule="evenodd" d="M64.3506 113.783H64.3507C65.9592 113.783 67.2753 115.099 67.2753 116.708V120.874C67.2753 122.482 65.9592 123.798 64.3507 123.798H64.3506C62.7418 123.798 61.4258 122.482 61.4258 120.874V116.708C61.4258 115.099 62.7418 113.783 64.3506 113.783Z" fill="white"/>
<path fill-rule="evenodd" clip-rule="evenodd" d="M77.3699 112.943H77.4718C79.0524 112.943 80.3456 114.237 80.3456 115.817C80.3456 117.398 79.0524 118.691 77.4718 118.691H77.3699C75.7893 118.691 74.4961 117.398 74.4961 115.817C74.4961 114.237 75.7893 112.943 77.3699 112.943Z" fill="white"/>
<path fill-rule="evenodd" clip-rule="evenodd" d="M103.56 112.059H103.561C105.169 112.059 106.485 113.375 106.485 114.983V118.895C106.485 120.504 105.169 121.82 103.561 121.82H103.56C101.952 121.82 100.636 120.504 100.636 118.895V114.983C100.636 113.375 101.952 112.059 103.56 112.059Z" fill="white"/>
<path fill-rule="evenodd" clip-rule="evenodd" d="M51.0766 111.697H51.4878C52.9835 111.697 54.2069 112.921 54.2069 114.416V114.417C54.2069 115.912 52.9835 117.136 51.4878 117.136H51.0766C49.5811 117.136 48.3574 115.912 48.3574 114.417V114.416C48.3574 112.921 49.5811 111.697 51.0766 111.697Z" fill="white"/>
<path fill-rule="evenodd" clip-rule="evenodd" d="M116.631 114.293H116.631C118.239 114.293 119.555 115.609 119.555 117.217V120.091C119.555 121.7 118.239 123.016 116.631 123.016H116.631C115.022 123.016 113.706 121.7 113.706 120.091V117.217C113.706 115.609 115.022 114.293 116.631 114.293Z" fill="white"/>
<path fill-rule="evenodd" clip-rule="evenodd" d="M129.477 111.465H129.924C131.409 111.465 132.625 112.68 132.625 114.166V114.166C132.625 115.652 131.409 116.868 129.924 116.868H129.477C127.991 116.868 126.775 115.652 126.775 114.166V114.166C126.775 112.68 127.991 111.465 129.477 111.465Z" fill="white"/>
<path fill-rule="evenodd" clip-rule="evenodd" d="M77.4209 122.531H77.421C79.0295 122.531 80.3456 123.847 80.3456 125.456V129.315C80.3456 130.923 79.0295 132.239 77.421 132.239H77.4209C75.8122 132.239 74.4961 130.923 74.4961 129.315V125.456C74.4961 123.847 75.8122 122.531 77.4209 122.531Z" fill="white"/>
<path fill-rule="evenodd" clip-rule="evenodd" d="M103.484 125.695H103.637C105.203 125.695 106.485 126.977 106.485 128.544V128.544C106.485 130.11 105.203 131.392 103.637 131.392H103.484C101.917 131.392 100.636 130.11 100.636 128.544V128.544C100.636 126.977 101.917 125.695 103.484 125.695Z" fill="white"/>
<path d="M46.7425 101.32V106.894H45.2844V101.32H43.2129V100.283H48.8141V101.32H46.7425Z" fill="#4FD5FF"/>
<path d="M55.3005 102.387C55.3005 102.731 55.2349 103.05 55.1038 103.343C54.9726 103.633 54.7778 103.884 54.5194 104.097C54.2609 104.309 53.9388 104.474 53.5531 104.592C53.1673 104.71 52.7198 104.769 52.2106 104.769H51.4873V106.894H50.0523V100.283H52.2685C52.7584 100.283 53.1904 100.33 53.5646 100.425C53.9427 100.516 54.259 100.651 54.5136 100.829C54.772 101.008 54.9668 101.229 55.098 101.492C55.233 101.752 55.3005 102.05 55.3005 102.387ZM53.8077 102.473C53.8077 102.298 53.7749 102.139 53.7093 101.998C53.6476 101.853 53.5511 101.73 53.42 101.629C53.2927 101.527 53.1307 101.45 52.9339 101.396C52.7372 101.342 52.5038 101.315 52.2338 101.315H51.4873V103.738H52.2801C52.5269 103.738 52.7449 103.709 52.9339 103.652C53.1229 103.591 53.2811 103.505 53.4084 103.394C53.5396 103.282 53.6379 103.149 53.7035 102.994C53.7729 102.839 53.8077 102.665 53.8077 102.473Z" fill="#4FD5FF"/>
<path d="M56.8513 106.894V100.283H61.4051V101.335H58.2978V102.979H61.2604V104.006H58.2978V105.842H61.4051V106.894H56.8513Z" fill="#4FD5FF"/>
<path d="M66.769 106.894L64.495 103.697V106.894H63.0484V100.283H64.495V103.293L66.7574 100.283H68.476L65.9069 103.434L68.6091 106.894H66.769Z" fill="#4FD5FF"/>
<path d="M69.8821 106.894V100.283H74.4359V101.335H71.3286V102.979H74.2912V104.006H71.3286V105.842H74.4359V106.894H69.8821Z" fill="#4FD5FF"/>
<path d="M81.3621 102.387C81.3621 102.731 81.2966 103.05 81.1654 103.343C81.0342 103.633 80.8394 103.884 80.581 104.097C80.3225 104.309 80.0004 104.474 79.6147 104.592C79.2289 104.71 78.7814 104.769 78.2722 104.769H77.549V106.894H76.1139V100.283H78.3301C78.82 100.283 79.2521 100.33 79.6262 100.425C80.0043 100.516 80.3206 100.651 80.5752 100.829C80.8337 101.008 81.0285 101.229 81.1596 101.492C81.2946 101.752 81.3621 102.05 81.3621 102.387ZM79.8693 102.473C79.8693 102.298 79.8365 102.139 79.7709 101.998C79.7092 101.853 79.6127 101.73 79.4816 101.629C79.3543 101.527 79.1923 101.45 78.9955 101.396C78.7988 101.342 78.5654 101.315 78.2954 101.315H77.549V103.738H78.3417C78.5886 103.738 78.8065 103.709 78.9955 103.652C79.1845 103.591 79.3427 103.505 79.47 103.394C79.6012 103.282 79.6995 103.149 79.7651 102.994C79.8345 102.839 79.8693 102.665 79.8693 102.473Z" fill="#4FD5FF"/>
<path d="M86.2539 105.741C86.7168 105.865 87.1373 105.956 87.5153 106.014C87.8934 106.068 88.2907 106.095 88.7073 106.095C88.9349 106.095 89.1355 106.068 89.3091 106.014C89.4827 105.956 89.6273 105.88 89.7431 105.786C89.8588 105.688 89.9456 105.577 90.0034 105.452C90.0652 105.324 90.096 105.189 90.096 105.048C90.096 104.906 90.0652 104.776 90.0034 104.658C89.9417 104.537 89.8491 104.434 89.7257 104.35C89.6023 104.265 89.446 104.2 89.257 104.152C89.0718 104.105 88.8539 104.082 88.6032 104.082H86.7978V103.131H88.5164C88.7517 103.131 88.9523 103.105 89.1181 103.055C89.2879 103.001 89.4267 102.928 89.5348 102.837C89.6428 102.746 89.7218 102.642 89.772 102.524C89.8221 102.402 89.8472 102.276 89.8472 102.144C89.8472 102.02 89.8221 101.905 89.772 101.801C89.7257 101.693 89.6505 101.6 89.5463 101.522C89.4422 101.445 89.3052 101.384 89.1355 101.34C88.9696 101.296 88.7671 101.275 88.5279 101.275C88.3505 101.275 88.1808 101.281 88.0187 101.295C87.8606 101.308 87.7005 101.328 87.5385 101.355C87.3765 101.379 87.2067 101.411 87.0293 101.452C86.8557 101.492 86.6647 101.538 86.4564 101.588V100.551C86.7843 100.464 87.1334 100.398 87.5038 100.354C87.8741 100.307 88.2521 100.283 88.6379 100.283C89.5367 100.283 90.2098 100.428 90.6573 100.718C91.1048 101.008 91.3285 101.44 91.3285 102.013C91.3285 102.387 91.2398 102.697 91.0623 102.944C90.8888 103.186 90.6052 103.367 90.2118 103.485C90.4008 103.512 90.5801 103.567 90.7499 103.652C90.9235 103.736 91.0739 103.846 91.2012 103.98C91.3324 104.112 91.4346 104.267 91.5079 104.446C91.585 104.621 91.6236 104.815 91.6236 105.027C91.6236 105.705 91.3671 106.224 90.854 106.585C90.3448 106.943 89.5984 107.121 88.6147 107.121C88.1711 107.121 87.7603 107.096 87.3822 107.045C87.0081 106.998 86.6319 106.922 86.2539 106.818V105.741Z" fill="#4FD5FF"/>
<path d="M95.2921 101.472C95.2613 102.021 95.2285 102.5 95.1938 102.908C95.1591 103.316 95.1205 103.674 95.0781 103.98C95.0395 104.284 94.9951 104.544 94.945 104.759C94.8987 104.972 94.8447 105.154 94.7829 105.306C94.7212 105.454 94.6537 105.577 94.5804 105.675C94.5071 105.773 94.4242 105.857 94.3316 105.928H96.6809V101.472H95.2921ZM97.2711 107.005H93.6604V108.436H92.3295L92.237 105.928H92.3064C92.4723 105.928 92.6247 105.909 92.7635 105.872C92.9063 105.835 93.0336 105.752 93.1454 105.624C93.2573 105.496 93.3576 105.311 93.4463 105.068C93.535 104.825 93.6141 104.5 93.6835 104.092C93.753 103.68 93.8108 103.175 93.8571 102.574C93.9073 101.971 93.9478 101.244 93.9787 100.394H98.1159V105.928H98.6945L98.6019 108.436H97.2711V107.005Z" fill="#4FD5FF"/>
<path d="M105.054 103.672C105.054 104.272 104.973 104.79 104.811 105.225C104.652 105.66 104.433 106.017 104.151 106.297C103.873 106.577 103.545 106.784 103.167 106.919C102.793 107.054 102.392 107.121 101.964 107.121C100.969 107.121 100.22 106.833 99.7187 106.256C99.2172 105.676 98.9665 104.835 98.9665 103.733C98.9665 103.132 99.0455 102.615 99.2037 102.18C99.3657 101.745 99.5856 101.387 99.8633 101.108C100.145 100.828 100.473 100.62 100.847 100.486C101.225 100.351 101.628 100.283 102.056 100.283C103.052 100.283 103.8 100.571 104.301 101.148C104.803 101.725 105.054 102.566 105.054 103.672ZM103.549 103.733C103.549 102.95 103.43 102.367 103.19 101.983C102.951 101.598 102.558 101.406 102.01 101.406C101.736 101.406 101.503 101.457 101.31 101.558C101.117 101.656 100.957 101.801 100.83 101.993C100.706 102.185 100.616 102.423 100.558 102.706C100.5 102.986 100.471 103.308 100.471 103.672C100.471 104.454 100.59 105.038 100.83 105.422C101.073 105.806 101.466 105.998 102.01 105.998C102.284 105.998 102.517 105.95 102.71 105.852C102.907 105.751 103.067 105.604 103.19 105.412C103.314 105.22 103.405 104.984 103.462 104.704C103.52 104.42 103.549 104.097 103.549 103.733Z" fill="#4FD5FF"/>
<path d="M111.297 102.499C111.297 102.842 111.232 103.161 111.1 103.454C110.969 103.744 110.774 103.996 110.516 104.208C110.258 104.42 109.935 104.586 109.55 104.704C109.164 104.822 108.716 104.881 108.207 104.881H107.484V107.005H106.049V100.394H108.265C108.755 100.394 109.187 100.442 109.561 100.536C109.939 100.627 110.256 100.762 110.51 100.941C110.769 101.119 110.963 101.34 111.095 101.603C111.23 101.863 111.297 102.161 111.297 102.499ZM109.804 102.584C109.804 102.409 109.771 102.251 109.706 102.109C109.644 101.964 109.548 101.841 109.417 101.74C109.289 101.639 109.127 101.561 108.931 101.507C108.734 101.453 108.5 101.426 108.23 101.426H107.484V103.849H108.277C108.524 103.849 108.741 103.82 108.931 103.763C109.12 103.702 109.278 103.616 109.405 103.505C109.536 103.394 109.635 103.261 109.7 103.105C109.77 102.95 109.804 102.777 109.804 102.584Z" fill="#4FD5FF"/>
<path d="M118.084 103.672C118.084 104.272 118.003 104.79 117.841 105.225C117.683 105.66 117.463 106.017 117.182 106.297C116.904 106.577 116.576 106.784 116.198 106.919C115.824 107.054 115.423 107.121 114.995 107.121C113.999 107.121 113.251 106.833 112.749 106.256C112.248 105.676 111.997 104.835 111.997 103.733C111.997 103.132 112.076 102.615 112.235 102.18C112.397 101.745 112.616 101.387 112.894 101.108C113.176 100.828 113.504 100.62 113.878 100.486C114.256 100.351 114.659 100.283 115.087 100.283C116.082 100.283 116.831 100.571 117.332 101.148C117.834 101.725 118.084 102.566 118.084 103.672ZM116.58 103.733C116.58 102.95 116.46 102.367 116.221 101.983C115.982 101.598 115.589 101.406 115.041 101.406C114.767 101.406 114.534 101.457 114.341 101.558C114.148 101.656 113.988 101.801 113.86 101.993C113.737 102.185 113.646 102.423 113.589 102.706C113.531 102.986 113.502 103.308 113.502 103.672C113.502 104.454 113.621 105.038 113.86 105.422C114.103 105.806 114.497 105.998 115.041 105.998C115.315 105.998 115.548 105.95 115.741 105.852C115.938 105.751 116.098 105.604 116.221 105.412C116.345 105.22 116.435 104.984 116.493 104.704C116.551 104.42 116.58 104.097 116.58 103.733Z" fill="#4FD5FF"/>
<path d="M119.045 107.005V100.394H121.487C122.347 100.394 122.991 100.526 123.419 100.789C123.852 101.052 124.068 101.45 124.068 101.983C124.068 102.148 124.044 102.31 123.998 102.468C123.956 102.623 123.888 102.767 123.796 102.898C123.703 103.03 123.587 103.146 123.448 103.247C123.31 103.348 123.146 103.427 122.957 103.485C123.146 103.512 123.325 103.566 123.495 103.647C123.668 103.724 123.819 103.827 123.946 103.955C124.077 104.08 124.179 104.228 124.253 104.4C124.33 104.572 124.368 104.764 124.368 104.977C124.368 105.651 124.11 106.159 123.593 106.499C123.076 106.836 122.33 107.005 121.354 107.005H119.045ZM122.586 102.2C122.586 102.075 122.563 101.962 122.517 101.861C122.471 101.76 122.395 101.674 122.291 101.603C122.191 101.532 122.06 101.479 121.898 101.441C121.74 101.401 121.547 101.381 121.319 101.381H120.457V103.131H121.319C121.55 103.131 121.745 103.107 121.903 103.06C122.065 103.009 122.197 102.942 122.297 102.858C122.401 102.77 122.474 102.67 122.517 102.559C122.563 102.448 122.586 102.328 122.586 102.2ZM121.452 105.988C121.68 105.988 121.878 105.963 122.048 105.913C122.222 105.862 122.366 105.793 122.482 105.705C122.598 105.614 122.685 105.508 122.742 105.387C122.804 105.265 122.835 105.135 122.835 104.997C122.835 104.71 122.712 104.486 122.465 104.324C122.222 104.163 121.848 104.082 121.342 104.082H120.457V105.988H121.452Z" fill="#4FD5FF"/>
<path d="M128.17 102.923C128.664 102.923 129.088 102.974 129.443 103.075C129.798 103.173 130.089 103.309 130.317 103.485C130.548 103.66 130.718 103.869 130.826 104.112C130.934 104.355 130.988 104.618 130.988 104.901C130.988 105.606 130.737 106.133 130.236 106.484C129.734 106.831 128.982 107.005 127.979 107.005H125.56V100.394H126.972V102.923H128.17ZM128.072 106.009C128.315 106.009 128.523 105.98 128.697 105.923C128.874 105.865 129.019 105.788 129.131 105.69C129.242 105.589 129.325 105.472 129.379 105.341C129.433 105.209 129.46 105.07 129.46 104.921C129.46 104.773 129.433 104.638 129.379 104.517C129.325 104.392 129.239 104.286 129.119 104.198C129.003 104.11 128.849 104.043 128.656 103.996C128.467 103.945 128.238 103.92 127.968 103.92H126.972V106.009H128.072Z" fill="#4FD5FF"/>
<path d="M132.365 105.225C132.519 104.837 132.699 104.557 132.903 104.385C133.112 104.21 133.308 104.107 133.493 104.077C133.308 104.026 133.135 103.959 132.973 103.874C132.811 103.787 132.668 103.679 132.545 103.551C132.421 103.422 132.323 103.272 132.249 103.1C132.18 102.928 132.145 102.728 132.145 102.499C132.145 102.124 132.209 101.804 132.336 101.538C132.463 101.271 132.651 101.054 132.897 100.885C133.148 100.713 133.457 100.588 133.823 100.511C134.19 100.433 134.614 100.394 135.096 100.394H137.15V107.005H135.727V104.476H135.073C134.768 104.476 134.52 104.542 134.327 104.673C134.134 104.801 133.978 105.044 133.858 105.402L133.308 107.005H131.688L132.365 105.225ZM133.638 102.468C133.638 102.637 133.671 102.792 133.736 102.933C133.806 103.075 133.904 103.185 134.032 103.262C134.163 103.34 134.317 103.399 134.494 103.439C134.676 103.48 134.876 103.5 135.096 103.5H135.727V101.431H135.05C134.56 101.431 134.201 101.514 133.974 101.679C133.75 101.844 133.638 102.107 133.638 102.468Z" fill="#4FD5FF"/>
</svg>
