<svg width="152" height="152" viewBox="0 0 152 152" fill="none" xmlns="http://www.w3.org/2000/svg">
<rect width="152" height="152" rx="31.2525" fill="url(#paint0_linear_510_23910)"/>
<g opacity="0.15">
<path d="M12.3242 62.4286C12.3242 59.6671 14.5628 57.4286 17.3242 57.4286H85.3782C88.1397 57.4286 90.3782 59.6671 90.3782 62.4286V79.977C90.3782 82.7385 88.1397 84.9771 85.3782 84.9771H17.3242C14.5628 84.9771 12.3242 82.7385 12.3242 79.9771V62.4286Z" fill="white"/>
<path d="M42.577 110.23C39.8156 110.23 37.577 107.991 37.577 105.23V37.1758C37.577 34.4144 39.8156 32.1758 42.577 32.1758H60.1255C62.8869 32.1758 65.1255 34.4144 65.1255 37.1758V105.23C65.1255 107.991 62.8869 110.23 60.1255 110.23H42.577Z" fill="white"/>
</g>
<path fill-rule="evenodd" clip-rule="evenodd" d="M75.9932 51.2344H75.9933C77.3442 51.2344 78.4494 52.3396 78.4494 53.6905V61.5304C78.4494 62.8813 77.3442 63.9865 75.9933 63.9865H75.9932C74.6423 63.9865 73.5371 62.8813 73.5371 61.5304V53.6905C73.5371 52.3396 74.6423 51.2344 75.9932 51.2344Z" fill="#F6F6F7"/>
<path fill-rule="evenodd" clip-rule="evenodd" d="M54.0421 58.793H54.0422C55.393 58.793 56.4982 59.8982 56.4982 61.2491V63.0769C56.4982 64.4278 55.393 65.533 54.0422 65.533H54.0421C52.6911 65.533 51.5859 64.4278 51.5859 63.0769V61.2491C51.5859 59.8982 52.6911 58.793 54.0421 58.793Z" fill="#F6F6F7"/>
<path fill-rule="evenodd" clip-rule="evenodd" d="M65.0187 48.3477H65.0188C66.3696 48.3477 67.4748 49.4529 67.4748 50.8037V63.4957C67.4748 64.8466 66.3696 65.9518 65.0188 65.9518H65.0187C63.6677 65.9518 62.5625 64.8466 62.5625 63.4957V50.8037C62.5625 49.4529 63.6677 48.3477 65.0187 48.3477Z" fill="#F6F6F7"/>
<path fill-rule="evenodd" clip-rule="evenodd" d="M86.9698 44.7715H86.9699C88.3208 44.7715 89.426 45.8767 89.426 47.2276V64.9165C89.426 66.2674 88.3208 67.3726 86.9699 67.3726H86.9698C85.6189 67.3726 84.5137 66.2674 84.5137 64.9165V47.2276C84.5137 45.8767 85.6189 44.7715 86.9698 44.7715Z" fill="#F6F6F7"/>
<path fill-rule="evenodd" clip-rule="evenodd" d="M43.0656 57.2148H43.0656C44.4165 57.2148 45.5217 58.32 45.5217 59.671V65.0838C45.5217 66.4347 44.4165 67.5399 43.0656 67.5399H43.0656C41.7146 67.5399 40.6094 66.4347 40.6094 65.0838V59.671C40.6094 58.32 41.7146 57.2148 43.0656 57.2148Z" fill="#F6F6F7"/>
<path fill-rule="evenodd" clip-rule="evenodd" d="M97.9442 59.6484H97.9444C99.2951 59.6484 100.4 60.7536 100.4 62.1044V62.6372C100.4 63.988 99.2951 65.0931 97.9444 65.0931H97.9442C96.5934 65.0931 95.4883 63.988 95.4883 62.6372V62.1044C95.4883 60.7536 96.5934 59.6484 97.9442 59.6484Z" fill="#F6F6F7"/>
<path fill-rule="evenodd" clip-rule="evenodd" d="M108.921 58.2676H108.921C110.272 58.2676 111.377 59.3728 111.377 60.7237V62.6143C111.377 63.9652 110.272 65.0704 108.921 65.0704H108.921C107.57 65.0704 106.465 63.9652 106.465 62.6143V60.7237C106.465 59.3728 107.57 58.2676 108.921 58.2676Z" fill="#F6F6F7"/>
<path fill-rule="evenodd" clip-rule="evenodd" d="M43.0656 89.0059H43.0656C44.4165 89.0059 45.5217 90.1111 45.5217 91.462V93.3526C45.5217 94.7035 44.4165 95.8087 43.0656 95.8087H43.0656C41.7146 95.8087 40.6094 94.7035 40.6094 93.3526V91.462C40.6094 90.1111 41.7146 89.0059 43.0656 89.0059Z" fill="#F6F6F7"/>
<path fill-rule="evenodd" clip-rule="evenodd" d="M35.1541 76.8253L40.0794 70.78H42.5246V82.3775H39.6642V75.3161L35.1529 80.7909L30.6417 75.3161V82.3775H27.7812V70.78H30.2513L35.1541 76.8253ZM51.3577 82.6519C49.3245 82.6519 47.5286 82.117 46.094 80.9335C44.653 79.745 44.014 78.2637 44.014 76.6016C44.014 74.9355 44.6547 73.4514 46.103 72.2624C47.5389 71.0836 49.3262 70.5449 51.3577 70.5449C53.3979 70.5449 55.1924 71.0854 56.636 72.2686C58.0848 73.4562 58.7334 74.9351 58.7334 76.6016C58.7334 78.267 58.0881 79.7478 56.64 80.9346C55.1978 82.1168 53.395 82.6519 51.3577 82.6519ZM69.5559 77.8038V70.78H72.4404V82.3775H70.6925L63.1794 75.3509V82.3775H60.2949V70.78H62.0675L69.5559 77.8038ZM81.2334 70.78C83.2587 70.78 85.1338 71.2373 86.6071 72.3987C88.0505 73.5365 88.6732 74.9833 88.6732 76.6082C88.6732 78.2179 88.08 79.6762 86.6363 80.8004C85.1556 81.9534 83.2478 82.3775 81.2334 82.3775H75.0364V70.78H81.2334ZM90.2589 82.3775V70.7213H93.1674V82.3775H90.2589ZM105.052 77.8038V70.78H107.937V82.3775H106.189L98.6759 75.3509V82.3775H95.7914V70.78H97.564L105.052 77.8038ZM116.842 82.6519C114.809 82.6519 113.013 82.117 111.578 80.9335C110.138 79.745 109.499 78.2637 109.499 76.6016C109.499 74.9355 110.139 73.4514 111.587 72.2624C113.023 71.0836 114.811 70.5449 116.842 70.5449C118.882 70.5449 120.677 71.0854 122.12 72.2686C123.569 73.4562 124.218 74.9351 124.218 76.6016C124.218 78.267 123.573 79.7478 122.124 80.9346C120.682 82.1168 118.879 82.6519 116.842 82.6519ZM51.3617 80.3807C52.6023 80.3807 53.6599 80.0562 54.5231 79.325C55.4147 78.5698 55.7768 77.6412 55.7768 76.6016C55.7768 75.5613 55.4152 74.6287 54.5258 73.8706C53.6637 73.1358 52.5991 72.8161 51.3617 72.8161C50.1196 72.8161 49.0632 73.1444 48.201 73.8776C47.3112 74.6342 46.9467 75.5615 46.9467 76.6016C46.9467 77.6412 47.3086 78.5698 48.2002 79.325C49.0635 80.0562 50.1211 80.3807 51.3617 80.3807ZM77.9208 73.0316V80.126H81.2334C82.4587 80.126 83.6594 79.8949 84.5569 79.1799C85.4339 78.4812 85.7406 77.57 85.7406 76.5886C85.7406 75.5991 85.4092 74.7054 84.5318 74.003C83.6321 73.2828 82.4683 73.0316 81.2334 73.0316H77.9208ZM116.846 80.3807C118.087 80.3807 119.144 80.0562 120.008 79.325C120.899 78.5698 121.261 77.6412 121.261 76.6016C121.261 75.5613 120.9 74.6287 120.01 73.8706C119.148 73.1358 118.084 72.8161 116.846 72.8161C115.604 72.8161 114.548 73.1444 113.686 73.8776C112.796 74.6342 112.431 75.5615 112.431 76.6016C112.431 77.6412 112.793 78.5698 113.685 79.325C114.548 80.0562 115.606 80.3807 116.846 80.3807Z" fill="#FEFEFE"/>
<path fill-rule="evenodd" clip-rule="evenodd" d="M54.0421 42.0352H54.0422C55.393 42.0352 56.4982 43.1404 56.4982 44.4913V53.969C56.4982 55.3199 55.393 56.4251 54.0422 56.4251H54.0421C52.6911 56.4251 51.5859 55.3199 51.5859 53.969V44.4913C51.5859 43.1404 52.6911 42.0352 54.0421 42.0352Z" fill="#F6F6F7"/>
<path fill-rule="evenodd" clip-rule="evenodd" d="M54.0421 87.6328H54.0422C55.393 87.6328 56.4982 88.738 56.4982 90.0889V99.5667C56.4982 100.918 55.393 102.023 54.0422 102.023H54.0421C52.6911 102.023 51.5859 100.918 51.5859 99.5667V90.0889C51.5859 88.738 52.6911 87.6328 54.0421 87.6328Z" fill="#F6F6F7"/>
<path fill-rule="evenodd" clip-rule="evenodd" d="M97.5167 53.0781H98.3719C99.4876 53.0781 100.4 53.9909 100.4 55.1065V55.1066C100.4 56.2222 99.4876 57.135 98.3719 57.135H97.5167C96.4011 57.135 95.4883 56.2222 95.4883 55.1066V55.1065C95.4883 53.9909 96.4011 53.0781 97.5167 53.0781Z" fill="#F6F6F7"/>
<path fill-rule="evenodd" clip-rule="evenodd" d="M97.9442 42.1523H97.9444C99.2951 42.1523 100.4 43.2575 100.4 44.6083V48.2772C100.4 49.628 99.2951 50.7331 97.9444 50.7331H97.9442C96.5934 50.7331 95.4883 49.628 95.4883 48.2772V44.6083C95.4883 43.2575 96.5934 42.1523 97.9442 42.1523Z" fill="#F6F6F7"/>
<path fill-rule="evenodd" clip-rule="evenodd" d="M108.921 44.6016H108.921C110.272 44.6016 111.377 45.7068 111.377 47.0577V51.8585C111.377 53.2095 110.272 54.3147 108.921 54.3147H108.921C107.57 54.3147 106.465 53.2095 106.465 51.8585V47.0577C106.465 45.7068 107.57 44.6016 108.921 44.6016Z" fill="#F6F6F7"/>
<path fill-rule="evenodd" clip-rule="evenodd" d="M43.0656 45.1113H43.0656C44.4165 45.1113 45.5217 46.2165 45.5217 47.5674V52.3635C45.5217 53.7144 44.4165 54.8196 43.0656 54.8196H43.0656C41.7146 54.8196 40.6094 53.7144 40.6094 52.3635V47.5674C40.6094 46.2165 41.7146 45.1113 43.0656 45.1113Z" fill="#F6F6F7"/>
<path fill-rule="evenodd" clip-rule="evenodd" d="M78.4461 87.8711C78.4482 87.9159 78.4494 87.9614 78.4494 88.0062V93.0114C77.8941 93.4602 77.669 94.033 77.669 94.6755C77.669 95.318 77.8941 95.9181 78.4494 96.3039V108.09C78.4494 109.527 77.3438 110.704 75.9933 110.704H75.9932C74.6428 110.704 73.5371 109.528 73.5371 108.09V96.3188C74.1023 95.8948 74.3745 95.2911 74.3745 94.6326C74.3745 93.9741 74.1108 93.3793 73.5371 92.9642V88.0062C73.5371 87.9609 73.5383 87.9159 73.5404 87.8711H78.4461Z" fill="#F6F6F7"/>
<path fill-rule="evenodd" clip-rule="evenodd" d="M64.9758 89.6914H65.0615C66.3888 89.6914 67.4748 90.7774 67.4748 92.1047C67.4748 93.4321 66.3888 94.5181 65.0615 94.5181H64.9758C63.6485 94.5181 62.5625 93.4321 62.5625 92.1047C62.5625 90.7774 63.6485 89.6914 64.9758 89.6914Z" fill="#F6F6F7"/>
<path fill-rule="evenodd" clip-rule="evenodd" d="M86.9698 98.5879H86.9699C88.3208 98.5879 89.426 99.6931 89.426 101.044V104.329C89.426 105.68 88.3208 106.785 86.9699 106.785H86.9698C85.6189 106.785 84.5137 105.68 84.5137 104.329V101.044C84.5137 99.6931 85.6189 98.5879 86.9698 98.5879Z" fill="#F6F6F7"/>
<path fill-rule="evenodd" clip-rule="evenodd" d="M97.7549 97.9062H98.1301C99.3779 97.9062 100.399 98.9271 100.399 100.175V100.175C100.399 101.423 99.3779 102.444 98.1301 102.444H97.7549C96.5072 102.444 95.4863 101.423 95.4863 100.175V100.175C95.4863 98.9271 96.5072 97.9062 97.7549 97.9062Z" fill="#F6F6F7"/>
<path fill-rule="evenodd" clip-rule="evenodd" d="M65.0187 97.9062H65.0188C66.3696 97.9062 67.4748 99.0115 67.4748 100.362V103.603C67.4748 104.954 66.3696 106.059 65.0188 106.059H65.0187C63.6677 106.059 62.5625 104.954 62.5625 103.603V100.362C62.5625 99.0115 63.6677 97.9062 65.0187 97.9062Z" fill="#F6F6F7"/>
<path d="M84.2168 95.1643V87.6328H87.2779C88.3562 87.6328 89.1638 87.7826 89.7006 88.0823C90.2422 88.3819 90.513 88.8352 90.513 89.4422C90.513 89.6305 90.484 89.8149 90.426 89.9954C90.3728 90.1721 90.2881 90.3354 90.1721 90.4852C90.056 90.6351 89.9109 90.7676 89.7369 90.8828C89.5628 90.9981 89.3572 91.0884 89.1203 91.1537C89.3572 91.1844 89.5821 91.2459 89.7949 91.3381C90.0125 91.4264 90.2011 91.5436 90.3607 91.6896C90.5251 91.8317 90.6532 92.0008 90.7451 92.1967C90.8418 92.3926 90.8902 92.6116 90.8902 92.8536C90.8902 93.6219 90.5662 94.2001 89.9182 94.5881C89.2702 94.9723 88.3345 95.1643 87.111 95.1643H84.2168ZM88.6561 89.69C88.6561 89.5479 88.627 89.4192 88.569 89.3039C88.511 89.1887 88.4167 89.0907 88.2861 89.01C88.1604 88.9294 87.996 88.8679 87.7929 88.8256C87.5946 88.7795 87.3528 88.7565 87.0675 88.7565H85.9867V90.7503H87.0675C87.3576 90.7503 87.6019 90.7234 87.8001 90.6696C88.0032 90.612 88.1676 90.5352 88.2934 90.4391C88.4239 90.3392 88.5158 90.2259 88.569 90.0991C88.627 89.9724 88.6561 89.836 88.6561 89.69ZM87.2343 94.0061C87.5196 94.0061 87.7687 93.9773 87.9815 93.9196C88.1991 93.862 88.3804 93.7833 88.5255 93.6834C88.6706 93.5797 88.7794 93.4587 88.8519 93.3204C88.9293 93.1821 88.968 93.0342 88.968 92.8766C88.968 92.5501 88.8132 92.2946 88.5037 92.1102C88.1991 91.9258 87.73 91.8336 87.0965 91.8336H85.9867V94.0061H87.2343Z" fill="#B2454A"/>
<path d="M99.0071 90.03C99.0071 90.4218 98.9249 90.7849 98.7604 91.1191C98.596 91.4495 98.3518 91.7357 98.0278 91.9777C97.7038 92.2197 97.3 92.408 96.8165 92.5424C96.3329 92.6769 95.7719 92.7441 95.1336 92.7441H94.2269V95.1643H92.428V87.6328H95.2061C95.8203 87.6328 96.3619 87.6866 96.831 87.7942C97.3049 87.8979 97.7014 88.0516 98.0206 88.2552C98.3446 88.4588 98.5888 88.7104 98.7532 89.01C98.9224 89.3058 99.0071 89.6458 99.0071 90.03ZM97.1356 90.128C97.1356 89.9282 97.0945 89.7476 97.0123 89.5863C96.9349 89.4211 96.814 89.2809 96.6496 89.1656C96.49 89.0504 96.2869 88.962 96.0403 88.9006C95.7937 88.8391 95.5011 88.8084 95.1626 88.8084H94.2269V91.5686H95.2206C95.5301 91.5686 95.8034 91.5359 96.0403 91.4706C96.2773 91.4015 96.4755 91.3035 96.6351 91.1767C96.7995 91.0499 96.9228 90.8982 97.0051 90.7215C97.0921 90.5448 97.1356 90.3469 97.1356 90.128Z" fill="#B2454A"/>
<path d="M105.782 95.1643L105.26 93.6776H101.952L101.415 95.1643H99.6454L102.453 87.6328H104.948L107.755 95.1643H105.782ZM103.628 89.0158L102.38 92.5194H104.861L103.628 89.0158Z" fill="#B2454A"/>
<path d="M113.485 95.1643V92.2601C113.224 92.2601 112.951 92.2601 112.666 92.2601C112.38 92.2601 112.105 92.2601 111.839 92.2601C111.201 92.2601 110.664 92.1986 110.229 92.0757C109.793 91.9527 109.438 91.7779 109.162 91.5513C108.887 91.3246 108.683 91.0461 108.553 90.7157C108.427 90.3815 108.364 89.9954 108.364 89.5575V87.6328H110.163V89.4422C110.163 89.7227 110.192 89.9647 110.25 90.1683C110.308 90.3719 110.403 90.5409 110.533 90.6754C110.669 90.806 110.845 90.9078 111.063 90.9808C111.28 91.0538 111.558 91.0903 111.897 91.0903C112.153 91.0903 112.414 91.0903 112.68 91.0903C112.951 91.0903 113.219 91.0903 113.485 91.0903V87.6328H115.284V95.1643H113.485Z" fill="#B2454A"/>
<defs>
<linearGradient id="paint0_linear_510_23910" x1="16.1967" y1="17.4426" x2="131.443" y2="143.279" gradientUnits="userSpaceOnUse">
<stop stop-color="#2263C6"/>
<stop offset="1" stop-color="#09C8F2"/>
</linearGradient>
</defs>
</svg>
