<svg width="1435" height="450" viewBox="0 0 1435 450" fill="none" xmlns="http://www.w3.org/2000/svg">
<g clip-path="url(#clip0_1026_568)">
<rect width="1435" height="450" fill="#1B1642"/>
<rect width="1435" height="450" fill="url(#paint0_linear_1026_568)" fill-opacity="0.15"/>
<rect width="1435" height="450" fill="url(#paint1_radial_1026_568)" fill-opacity="0.15"/>
<g opacity="0.05">
<circle cx="727.378" cy="352.243" r="3.24324" transform="rotate(90 727.378 352.243)" fill="white"/>
<ellipse cx="727.378" cy="384.676" rx="3.24324" ry="3.24324" transform="rotate(90 727.378 384.676)" fill="white"/>
<ellipse cx="727.378" cy="417.108" rx="3.24324" ry="3.24324" transform="rotate(90 727.378 417.108)" fill="white"/>
<ellipse cx="727.378" cy="449.541" rx="3.24324" ry="3.24324" transform="rotate(90 727.378 449.541)" fill="white"/>
<ellipse cx="694.946" cy="352.243" rx="3.24324" ry="3.24324" transform="rotate(90 694.946 352.243)" fill="white"/>
<circle cx="694.946" cy="384.676" r="3.24324" transform="rotate(90 694.946 384.676)" fill="white"/>
<ellipse cx="694.946" cy="417.108" rx="3.24324" ry="3.24324" transform="rotate(90 694.946 417.108)" fill="white"/>
<ellipse cx="694.946" cy="449.541" rx="3.24324" ry="3.24324" transform="rotate(90 694.946 449.541)" fill="white"/>
<ellipse cx="662.514" cy="352.243" rx="3.24324" ry="3.24324" transform="rotate(90 662.514 352.243)" fill="white"/>
<ellipse cx="662.514" cy="384.676" rx="3.24324" ry="3.24324" transform="rotate(90 662.514 384.676)" fill="white"/>
<ellipse cx="662.514" cy="417.108" rx="3.24324" ry="3.24324" transform="rotate(90 662.514 417.108)" fill="white"/>
<ellipse cx="662.514" cy="449.541" rx="3.24324" ry="3.24324" transform="rotate(90 662.514 449.541)" fill="white"/>
<ellipse cx="630.081" cy="352.243" rx="3.24324" ry="3.24325" transform="rotate(90 630.081 352.243)" fill="white"/>
<ellipse cx="630.081" cy="384.676" rx="3.24324" ry="3.24325" transform="rotate(90 630.081 384.676)" fill="white"/>
<ellipse cx="630.081" cy="417.108" rx="3.24324" ry="3.24325" transform="rotate(90 630.081 417.108)" fill="white"/>
<ellipse cx="630.081" cy="449.541" rx="3.24324" ry="3.24325" transform="rotate(90 630.081 449.541)" fill="white"/>
<ellipse cx="597.649" cy="384.676" rx="3.24324" ry="3.24325" transform="rotate(90 597.649 384.676)" fill="white"/>
<ellipse cx="597.649" cy="417.108" rx="3.24324" ry="3.24325" transform="rotate(90 597.649 417.108)" fill="white"/>
<ellipse cx="597.649" cy="449.541" rx="3.24324" ry="3.24325" transform="rotate(90 597.649 449.541)" fill="white"/>
<ellipse cx="565.216" cy="384.676" rx="3.24324" ry="3.24325" transform="rotate(90 565.216 384.676)" fill="white"/>
<ellipse cx="565.216" cy="417.108" rx="3.24324" ry="3.24325" transform="rotate(90 565.216 417.108)" fill="white"/>
<ellipse cx="565.216" cy="449.541" rx="3.24324" ry="3.24325" transform="rotate(90 565.216 449.541)" fill="white"/>
<ellipse cx="532.784" cy="384.676" rx="3.24324" ry="3.24325" transform="rotate(90 532.784 384.676)" fill="white"/>
<ellipse cx="532.784" cy="417.108" rx="3.24324" ry="3.24325" transform="rotate(90 532.784 417.108)" fill="white"/>
<ellipse cx="532.784" cy="449.541" rx="3.24324" ry="3.24325" transform="rotate(90 532.784 449.541)" fill="white"/>
<ellipse cx="500.351" cy="417.108" rx="3.24324" ry="3.24326" transform="rotate(90 500.351 417.108)" fill="white"/>
<ellipse cx="500.351" cy="449.541" rx="3.24324" ry="3.24326" transform="rotate(90 500.351 449.541)" fill="white"/>
<circle cx="467.919" cy="417.108" r="3.24324" transform="rotate(90 467.919 417.108)" fill="white"/>
<ellipse cx="467.919" cy="449.541" rx="3.24324" ry="3.24324" transform="rotate(90 467.919 449.541)" fill="white"/>
<ellipse cx="435.487" cy="449.541" rx="3.24324" ry="3.24326" transform="rotate(90 435.487 449.541)" fill="white"/>
</g>
<g opacity="0.25">
<path d="M460.209 57.3646C460.209 53.2827 463.52 49.9736 467.604 49.9736C471.689 49.9736 475 53.2827 475 57.3646V63.7589C475 67.8408 471.689 71.1499 467.604 71.1499C463.52 71.1499 460.209 67.8408 460.209 63.7589V57.3646Z" fill="white"/>
<path d="M460.209 29.6519C460.209 25.57 463.52 22.261 467.604 22.261C471.689 22.261 475 25.57 475 29.6519V34.2689C475 38.3508 471.689 41.6598 467.604 41.6598C463.52 41.6598 460.209 38.3508 460.209 34.2689V29.6519Z" fill="white"/>
<path d="M460.209 -16.351C460.209 -20.4329 463.52 -23.7419 467.604 -23.7419C471.689 -23.7419 475 -20.4329 475 -16.351V6.55627C475 10.6382 471.689 13.9472 467.604 13.9472C463.52 13.9472 460.209 10.6382 460.209 6.55626V-16.351Z" fill="white"/>
<path d="M460.209 -44.0636C460.209 -48.1455 463.52 -51.4545 467.604 -51.4545C471.689 -51.4545 475 -48.1455 475 -44.0636V-39.4467C475 -35.3648 471.689 -32.0557 467.604 -32.0557C463.52 -32.0557 460.209 -35.3648 460.209 -39.4467V-44.0636Z" fill="white"/>
<path d="M460.209 -95.609C460.209 -99.691 463.52 -103 467.604 -103C471.689 -103 475 -99.691 475 -95.609V-67.1593C475 -63.0774 471.689 -59.7683 467.604 -59.7683C463.52 -59.7683 460.209 -63.0774 460.209 -67.1593V-95.609Z" fill="white"/>
<path d="M427.116 62.9071C427.116 58.8252 430.427 55.5161 434.511 55.5161C438.596 55.5161 441.907 58.8252 441.907 62.9071V75.5803C441.907 79.6622 438.596 82.9712 434.511 82.9712C430.427 82.9712 427.116 79.6622 427.116 75.5803V62.9071Z" fill="white"/>
<path d="M427.116 26.8807C427.116 22.7988 430.427 19.4897 434.511 19.4897C438.596 19.4897 441.907 22.7988 441.907 26.8807V39.8114C441.907 43.8933 438.596 47.2023 434.511 47.2023C430.427 47.2023 427.116 43.8933 427.116 39.8114V26.8807Z" fill="white"/>
<path d="M427.116 4.2478C427.116 0.421486 430.22 -2.68035 434.048 -2.68035H434.975C438.803 -2.68035 441.907 0.421486 441.907 4.2478C441.907 8.07411 438.803 11.176 434.975 11.176H434.048C430.22 11.176 427.116 8.07411 427.116 4.2478Z" fill="white"/>
<path d="M427.116 -40.1838C427.116 -44.2657 430.427 -47.5748 434.511 -47.5748C438.596 -47.5748 441.907 -44.2657 441.907 -40.1838V-18.3851C441.907 -14.3032 438.596 -10.9941 434.511 -10.9941C430.427 -10.9941 427.116 -14.3032 427.116 -18.3851V-40.1838Z" fill="white"/>
<path d="M427.116 -67.8964C427.116 -71.9783 430.427 -75.2874 434.511 -75.2874C438.596 -75.2874 441.907 -71.9783 441.907 -67.8964V-63.2795C441.907 -59.1976 438.596 -55.8886 434.511 -55.8886C430.427 -55.8886 427.116 -59.1976 427.116 -63.2795V-67.8964Z" fill="white"/>
<path d="M427.116 -95.609C427.116 -99.691 430.427 -103 434.511 -103C438.596 -103 441.907 -99.691 441.907 -95.609V-90.9921C441.907 -86.9102 438.596 -83.6012 434.511 -83.6012C430.427 -83.6012 427.116 -86.9102 427.116 -90.9921V-95.609Z" fill="white"/>
<path d="M394.023 26.3264C394.023 22.2445 397.334 18.9355 401.418 18.9355C405.503 18.9355 408.814 22.2445 408.814 26.3264V48.1252C408.814 52.2071 405.503 55.5161 401.418 55.5161C397.334 55.5161 394.023 52.2071 394.023 48.1252V26.3264Z" fill="white"/>
<path d="M394.023 -1.38617C394.023 -5.46808 397.334 -8.77712 401.418 -8.77712C405.503 -8.77712 408.814 -5.46808 408.814 -1.38617V3.23074C408.814 7.31265 405.503 10.6217 401.418 10.6217C397.334 10.6217 394.023 7.31265 394.023 3.23074V-1.38617Z" fill="white"/>
<path d="M394.023 -24.0191C394.023 -27.8454 397.127 -30.9472 400.955 -30.9472H401.882C405.71 -30.9472 408.814 -27.8454 408.814 -24.0191C408.814 -20.1927 405.71 -17.0909 401.882 -17.0909H400.955C397.127 -17.0909 394.023 -20.1927 394.023 -24.0191Z" fill="white"/>
<path d="M394.023 -59.5827C394.023 -63.6646 397.334 -66.9736 401.418 -66.9736C405.503 -66.9736 408.814 -63.6646 408.814 -59.5827V-46.6519C408.814 -42.57 405.503 -39.261 401.418 -39.261C397.334 -39.261 394.023 -42.57 394.023 -46.6519V-59.5827Z" fill="white"/>
<path d="M394.023 -95.609C394.023 -99.691 397.334 -103 401.418 -103C405.503 -103 408.814 -99.691 408.814 -95.609V-82.6783C408.814 -78.5964 405.503 -75.2874 401.418 -75.2874C397.334 -75.2874 394.023 -78.5964 394.023 -82.6783V-95.609Z" fill="white"/>
<path d="M360.93 10.7944C360.93 6.71252 364.241 3.40347 368.325 3.40347C372.41 3.40347 375.721 6.71252 375.721 10.7944V19.1012C375.721 23.1831 372.41 26.4921 368.325 26.4921C364.241 26.4921 360.93 23.1831 360.93 19.1012V10.7944Z" fill="white"/>
<path d="M360.93 -35.7498C360.93 -39.8317 364.241 -43.1408 368.325 -43.1408C372.41 -43.1408 375.721 -39.8317 375.721 -35.7498V-12.3013C375.721 -8.21935 372.41 -4.9103 368.325 -4.9103C364.241 -4.9103 360.93 -8.21935 360.93 -12.3013V-35.7498Z" fill="white"/>
<path d="M360.93 -63.4624C360.93 -67.5443 364.241 -70.8534 368.325 -70.8534C372.41 -70.8534 375.721 -67.5443 375.721 -63.4624V-58.8455C375.721 -54.7636 372.41 -51.4545 368.325 -51.4545C364.241 -51.4545 360.93 -54.7636 360.93 -58.8455V-63.4624Z" fill="white"/>
<path d="M360.93 -95.609C360.93 -99.691 364.241 -103 368.325 -103C372.41 -103 375.721 -99.691 375.721 -95.609V-86.5581C375.721 -82.4762 372.41 -79.1672 368.325 -79.1672C364.241 -79.1672 360.93 -82.4762 360.93 -86.5581V-95.609Z" fill="white"/>
<path d="M327.837 15.7957C327.837 11.7137 331.148 8.40469 335.232 8.40469C339.317 8.40469 342.628 11.7137 342.628 15.7957V20.4126C342.628 24.4945 339.317 27.8035 335.232 27.8035C331.148 27.8035 327.837 24.4945 327.837 20.4126V15.7957Z" fill="white"/>
<path d="M327.837 -16.351C327.837 -20.4329 331.148 -23.7419 335.232 -23.7419C339.317 -23.7419 342.628 -20.4329 342.628 -16.351V-7.30004C342.628 -3.21812 339.317 0.0909119 335.232 0.0909119C331.148 0.0909119 327.837 -3.21814 327.837 -7.30005V-16.351Z" fill="white"/>
<path d="M327.837 -44.0636C327.837 -48.1455 331.148 -51.4545 335.232 -51.4545C339.317 -51.4545 342.628 -48.1455 342.628 -44.0636V-39.4467C342.628 -35.3648 339.317 -32.0557 335.232 -32.0557C331.148 -32.0557 327.837 -35.3648 327.837 -39.4467V-44.0636Z" fill="white"/>
<path d="M327.837 -95.609C327.837 -99.691 331.148 -103 335.232 -103C339.317 -103 342.628 -99.691 342.628 -95.609V-67.1593C342.628 -63.0774 339.317 -59.7683 335.232 -59.7683C331.148 -59.7683 327.837 -63.0774 327.837 -67.1593V-95.609Z" fill="white"/>
<path d="M294.744 32.4232C294.744 28.3413 298.055 25.0323 302.139 25.0323C306.224 25.0323 309.535 28.3413 309.535 32.4232V42.9166C309.535 46.9986 306.224 50.3076 302.139 50.3076C298.055 50.3076 294.744 46.9986 294.744 42.9166V32.4232Z" fill="white"/>
<path d="M294.744 4.71061C294.744 0.628693 298.055 -2.68035 302.139 -2.68035C306.224 -2.68035 309.535 0.628693 309.535 4.71061V9.32753C309.535 13.4094 306.224 16.7185 302.139 16.7185C298.055 16.7185 294.744 13.4094 294.744 9.32753V4.71061Z" fill="white"/>
<path d="M294.744 -40.1838C294.744 -44.2657 298.055 -47.5748 302.139 -47.5748C306.224 -47.5748 309.535 -44.2657 309.535 -40.1838V-18.3851C309.535 -14.3032 306.224 -10.9941 302.139 -10.9941C298.055 -10.9941 294.744 -14.3032 294.744 -18.3851V-40.1838Z" fill="white"/>
<path d="M294.744 -67.8964C294.744 -71.9783 298.055 -75.2874 302.139 -75.2874C306.224 -75.2874 309.535 -71.9783 309.535 -67.8964V-63.2795C309.535 -59.1976 306.224 -55.8886 302.139 -55.8886C298.055 -55.8886 294.744 -59.1976 294.744 -63.2795V-67.8964Z" fill="white"/>
<path d="M294.744 -95.609C294.744 -99.691 298.055 -103 302.139 -103C306.224 -103 309.535 -99.691 309.535 -95.609V-90.9921C309.535 -86.9102 306.224 -83.6012 302.139 -83.6012C298.055 -83.6012 294.744 -86.9102 294.744 -90.9921V-95.609Z" fill="white"/>
<path d="M261.651 55.6888C261.651 51.6069 264.962 48.2979 269.046 48.2979C273.131 48.2979 276.442 51.6069 276.442 55.6889V63.9956C276.442 68.0775 273.131 71.3866 269.046 71.3866C264.962 71.3866 261.651 68.0775 261.651 63.9956V55.6888Z" fill="white"/>
<path d="M261.651 9.14462C261.651 5.06271 264.962 1.75367 269.046 1.75367C273.131 1.75367 276.442 5.06271 276.442 9.14462V32.5932C276.442 36.6751 273.131 39.9841 269.046 39.9841C264.962 39.9841 261.651 36.6751 261.651 32.5932V9.14462Z" fill="white"/>
<path d="M261.651 -18.568C261.651 -22.6499 264.962 -25.9589 269.046 -25.9589C273.131 -25.9589 276.442 -22.6499 276.442 -18.568V-13.9511C276.442 -9.86916 273.131 -6.56012 269.046 -6.56012C264.962 -6.56012 261.651 -9.86916 261.651 -13.9511V-18.568Z" fill="white"/>
<path d="M261.651 -63.4624C261.651 -67.5443 264.962 -70.8534 269.046 -70.8534C273.131 -70.8534 276.442 -67.5443 276.442 -63.4624V-41.6637C276.442 -37.5818 273.131 -34.2727 269.046 -34.2727C264.962 -34.2727 261.651 -37.5818 261.651 -41.6637V-63.4624Z" fill="white"/>
<path d="M261.651 -95.609C261.651 -99.691 264.962 -103 269.046 -103C273.131 -103 276.442 -99.691 276.442 -95.609V-86.5581C276.442 -82.4762 273.131 -79.1672 269.046 -79.1672C264.962 -79.1672 261.651 -82.4762 261.651 -86.5581V-95.609Z" fill="white"/>
<path d="M228.558 71.2209C228.558 67.1389 231.869 63.8299 235.953 63.8299C240.038 63.8299 243.349 67.1389 243.349 71.2209V74.5125C243.349 78.5944 240.038 81.9035 235.953 81.9035C231.869 81.9035 228.558 78.5945 228.558 74.5125V71.2209Z" fill="white"/>
<path d="M228.558 26.3264C228.558 22.2445 231.869 18.9355 235.953 18.9355C240.038 18.9355 243.349 22.2445 243.349 26.3264V48.1252C243.349 52.2071 240.038 55.5161 235.953 55.5161C231.869 55.5161 228.558 52.2071 228.558 48.1252V26.3264Z" fill="white"/>
<path d="M228.558 -1.38618C228.558 -5.46809 231.869 -8.77713 235.953 -8.77713C240.038 -8.77713 243.349 -5.46809 243.349 -1.38618V3.23074C243.349 7.31264 240.038 10.6217 235.953 10.6217C231.869 10.6217 228.558 7.31264 228.558 3.23074V-1.38618Z" fill="white"/>
<path d="M228.558 -24.0191C228.558 -27.8454 231.662 -30.9472 235.49 -30.9472H236.417C240.245 -30.9472 243.349 -27.8454 243.349 -24.0191C243.349 -20.1928 240.245 -17.0909 236.417 -17.0909H235.49C231.662 -17.0909 228.558 -20.1928 228.558 -24.0191Z" fill="white"/>
<path d="M228.558 -59.5827C228.558 -63.6646 231.869 -66.9736 235.953 -66.9736C240.038 -66.9736 243.349 -63.6646 243.349 -59.5827V-46.6519C243.349 -42.57 240.038 -39.261 235.953 -39.261C231.869 -39.261 228.558 -42.57 228.558 -46.6519V-59.5827Z" fill="white"/>
<path d="M228.558 -95.609C228.558 -99.691 231.869 -103 235.953 -103C240.038 -103 243.349 -99.691 243.349 -95.609V-82.6783C243.349 -78.5964 240.038 -75.2874 235.953 -75.2874C231.869 -75.2874 228.558 -78.5964 228.558 -82.6783V-95.609Z" fill="white"/>
<path d="M195.465 55.6888C195.465 51.6069 198.776 48.2979 202.86 48.2979C206.945 48.2979 210.256 51.6069 210.256 55.6889V63.9956C210.256 68.0775 206.945 71.3866 202.86 71.3866C198.776 71.3866 195.465 68.0775 195.465 63.9956V55.6888Z" fill="white"/>
<path d="M195.465 9.14462C195.465 5.06271 198.776 1.75367 202.86 1.75367C206.945 1.75367 210.256 5.06271 210.256 9.14462V32.5932C210.256 36.6751 206.945 39.9841 202.86 39.9841C198.776 39.9841 195.465 36.6751 195.465 32.5932V9.14462Z" fill="white"/>
<path d="M195.465 -18.568C195.465 -22.6499 198.776 -25.9589 202.86 -25.9589C206.945 -25.9589 210.256 -22.6499 210.256 -18.568V-13.9511C210.256 -9.86916 206.945 -6.56012 202.86 -6.56012C198.776 -6.56012 195.465 -9.86916 195.465 -13.9511V-18.568Z" fill="white"/>
<path d="M195.465 -63.4624C195.465 -67.5443 198.776 -70.8534 202.86 -70.8534C206.945 -70.8534 210.256 -67.5443 210.256 -63.4624V-41.6637C210.256 -37.5818 206.945 -34.2727 202.86 -34.2727C198.776 -34.2727 195.465 -37.5818 195.465 -41.6637V-63.4624Z" fill="white"/>
<path d="M195.465 -95.609C195.465 -99.691 198.776 -103 202.86 -103C206.945 -103 210.256 -99.691 210.256 -95.609V-86.5581C210.256 -82.4762 206.945 -79.1672 202.86 -79.1672C198.776 -79.1672 195.465 -82.4762 195.465 -86.5581V-95.609Z" fill="white"/>
<path d="M162.372 65.6783C162.372 61.5964 165.683 58.2874 169.768 58.2874C173.852 58.2874 177.163 61.5964 177.163 65.6783V78.6091C177.163 82.691 173.852 86 169.768 86C165.683 86 162.372 82.691 162.372 78.6091V65.6783Z" fill="white"/>
<path d="M162.372 43.0455C162.372 39.2191 165.476 36.1173 169.304 36.1173H170.231C174.059 36.1173 177.163 39.2191 177.163 43.0455C177.163 46.8718 174.059 49.9736 170.231 49.9736H169.304C165.476 49.9736 162.372 46.8718 162.372 43.0455Z" fill="white"/>
<path d="M162.372 15.7957C162.372 11.7137 165.683 8.40469 169.768 8.40469C173.852 8.40469 177.163 11.7137 177.163 15.7957V20.4126C177.163 24.4945 173.852 27.8035 169.768 27.8035C165.683 27.8035 162.372 24.4945 162.372 20.4126V15.7957Z" fill="white"/>
<path d="M162.372 -16.351C162.372 -20.4329 165.683 -23.7419 169.768 -23.7419C173.852 -23.7419 177.163 -20.4329 177.163 -16.351V-7.30004C177.163 -3.21812 173.852 0.0909119 169.768 0.0909119C165.683 0.0909119 162.372 -3.21814 162.372 -7.30005V-16.351Z" fill="white"/>
<path d="M162.372 -44.0636C162.372 -48.1455 165.683 -51.4545 169.768 -51.4545C173.852 -51.4545 177.163 -48.1455 177.163 -44.0636V-39.4467C177.163 -35.3648 173.852 -32.0557 169.768 -32.0557C165.683 -32.0557 162.372 -35.3648 162.372 -39.4467V-44.0636Z" fill="white"/>
<path d="M162.372 -95.609C162.372 -99.691 165.683 -103 169.768 -103C173.852 -103 177.163 -99.691 177.163 -95.609V-67.1593C177.163 -63.0774 173.852 -59.7683 169.768 -59.7683C165.683 -59.7683 162.372 -63.0774 162.372 -67.1593V-95.609Z" fill="white"/>
<path d="M129.279 66.0123C129.279 61.9304 132.59 58.6214 136.675 58.6214C140.759 58.6214 144.07 61.9304 144.07 66.0123V74.3191C144.07 78.401 140.759 81.71 136.675 81.71C132.59 81.71 129.279 78.401 129.279 74.3191V66.0123Z" fill="white"/>
<path d="M129.279 32.4232C129.279 28.3413 132.59 25.0323 136.675 25.0323C140.759 25.0323 144.07 28.3413 144.07 32.4232V42.9166C144.07 46.9985 140.759 50.3076 136.675 50.3076C132.59 50.3076 129.279 46.9986 129.279 42.9166V32.4232Z" fill="white"/>
<path d="M129.279 4.71061C129.279 0.628693 132.59 -2.68035 136.675 -2.68035C140.759 -2.68035 144.07 0.628693 144.07 4.71061V9.32752C144.07 13.4094 140.759 16.7185 136.675 16.7185C132.59 16.7185 129.279 13.4094 129.279 9.32752V4.71061Z" fill="white"/>
<path d="M129.279 -40.1838C129.279 -44.2657 132.59 -47.5748 136.675 -47.5748C140.759 -47.5748 144.07 -44.2657 144.07 -40.1838V-18.3851C144.07 -14.3032 140.759 -10.9941 136.675 -10.9941C132.59 -10.9941 129.279 -14.3032 129.279 -18.3851V-40.1838Z" fill="white"/>
<path d="M129.279 -67.8964C129.279 -71.9783 132.59 -75.2874 136.675 -75.2874C140.759 -75.2874 144.07 -71.9783 144.07 -67.8964V-63.2795C144.07 -59.1976 140.759 -55.8886 136.675 -55.8886C132.59 -55.8886 129.279 -59.1976 129.279 -63.2795V-67.8964Z" fill="white"/>
<path d="M129.279 -95.609C129.279 -99.691 132.59 -103 136.675 -103C140.759 -103 144.07 -99.691 144.07 -95.609V-90.9921C144.07 -86.9102 140.759 -83.6012 136.675 -83.6012C132.59 -83.6012 129.279 -86.9102 129.279 -90.9921V-95.609Z" fill="white"/>
<path d="M96.186 32.4232C96.186 28.3413 99.4971 25.0323 103.582 25.0323C107.666 25.0323 110.977 28.3413 110.977 32.4232V42.9166C110.977 46.9986 107.666 50.3076 103.582 50.3076C99.4971 50.3076 96.186 46.9986 96.186 42.9166V32.4232Z" fill="white"/>
<path d="M96.186 4.71061C96.186 0.628693 99.4971 -2.68035 103.582 -2.68035C107.666 -2.68035 110.977 0.628693 110.977 4.71061V9.32753C110.977 13.4094 107.666 16.7185 103.582 16.7185C99.4971 16.7185 96.186 13.4094 96.186 9.32753V4.71061Z" fill="white"/>
<path d="M96.186 -40.1838C96.186 -44.2657 99.4971 -47.5748 103.582 -47.5748C107.666 -47.5748 110.977 -44.2657 110.977 -40.1838V-18.3851C110.977 -14.3032 107.666 -10.9941 103.582 -10.9941C99.4971 -10.9941 96.186 -14.3032 96.186 -18.3851V-40.1838Z" fill="white"/>
<path d="M96.186 -67.8964C96.186 -71.9783 99.4971 -75.2874 103.582 -75.2874C107.666 -75.2874 110.977 -71.9783 110.977 -67.8964V-63.2795C110.977 -59.1976 107.666 -55.8886 103.582 -55.8886C99.4971 -55.8886 96.186 -59.1976 96.186 -63.2795V-67.8964Z" fill="white"/>
<path d="M96.186 -95.609C96.186 -99.691 99.4971 -103 103.582 -103C107.666 -103 110.977 -99.691 110.977 -95.609V-90.9921C110.977 -86.9102 107.666 -83.6012 103.582 -83.6012C99.4971 -83.6012 96.186 -86.9102 96.186 -90.9921V-95.609Z" fill="white"/>
<path d="M63.093 29.652C63.093 25.57 66.4041 22.261 70.4886 22.261C74.573 22.261 77.8842 25.57 77.8842 29.652V34.2689C77.8842 38.3508 74.573 41.6598 70.4886 41.6598C66.4041 41.6598 63.093 38.3508 63.093 34.2689V29.652Z" fill="white"/>
<path d="M63.093 -16.351C63.093 -20.4329 66.4041 -23.7419 70.4886 -23.7419C74.573 -23.7419 77.8842 -20.4329 77.8842 -16.351V6.55627C77.8842 10.6382 74.573 13.9472 70.4886 13.9472C66.4041 13.9472 63.093 10.6382 63.093 6.55626V-16.351Z" fill="white"/>
<path d="M63.093 -44.0636C63.093 -48.1455 66.4041 -51.4545 70.4886 -51.4545C74.573 -51.4545 77.8842 -48.1455 77.8842 -44.0636V-39.4467C77.8842 -35.3648 74.573 -32.0557 70.4886 -32.0557C66.4041 -32.0557 63.093 -35.3648 63.093 -39.4467V-44.0636Z" fill="white"/>
<path d="M63.093 -95.609C63.093 -99.691 66.4041 -103 70.4886 -103C74.573 -103 77.8842 -99.691 77.8842 -95.609V-67.1593C77.8842 -63.0774 74.573 -59.7683 70.4886 -59.7683C66.4041 -59.7683 63.093 -63.0774 63.093 -67.1593V-95.609Z" fill="white"/>
<path d="M30 35.2723C30 31.1904 33.3111 27.8813 37.3956 27.8813C41.4801 27.8813 44.7912 31.1904 44.7912 35.2723V38.8496C44.7912 42.9315 41.4801 46.2406 37.3956 46.2406C33.3111 46.2406 30 42.9315 30 38.8496V35.2723Z" fill="white"/>
<path d="M30 12.6394C30 8.81308 33.1038 5.71124 36.9325 5.71124H37.8587C41.6874 5.71124 44.7912 8.81308 44.7912 12.6394C44.7912 16.4657 41.6874 19.5675 37.8587 19.5675H36.9325C33.1038 19.5675 30 16.4657 30 12.6394Z" fill="white"/>
<path d="M30 -17.439C30 -21.521 33.3111 -24.83 37.3956 -24.83C41.4801 -24.83 44.7912 -21.5209 44.7912 -17.439V-9.99349C44.7912 -5.91158 41.4801 -2.60255 37.3956 -2.60255C33.3111 -2.60255 30 -5.91158 30 -9.99349V-17.439Z" fill="white"/>
<path d="M30 -53.0333C30 -57.1152 33.3111 -60.4242 37.3956 -60.4242C41.4801 -60.4242 44.7912 -57.1152 44.7912 -53.0333V-40.5347C44.7912 -36.4528 41.4801 -33.1438 37.3956 -33.1438C33.3111 -33.1438 30 -36.4528 30 -40.5347V-53.0333Z" fill="white"/>
<path d="M30 -95.6091C30 -99.691 33.3111 -103 37.3956 -103C41.4801 -103 44.7912 -99.691 44.7912 -95.609V-76.129C44.7912 -72.047 41.4801 -68.738 37.3956 -68.738C33.3111 -68.738 30 -72.0471 30 -76.129V-95.6091Z" fill="white"/>
</g>
<g opacity="0.25">
<path d="M924.209 30.3646C924.209 26.2827 927.52 22.9736 931.604 22.9736C935.689 22.9736 939 26.2827 939 30.3646V36.7589C939 40.8408 935.689 44.1499 931.604 44.1499C927.52 44.1499 924.209 40.8408 924.209 36.7589V30.3646Z" fill="white"/>
<path d="M924.209 2.65195C924.209 -1.42996 927.52 -4.739 931.604 -4.739C935.689 -4.739 939 -1.42996 939 2.65195V7.26888C939 11.3508 935.689 14.6598 931.604 14.6598C927.52 14.6598 924.209 11.3508 924.209 7.26888V2.65195Z" fill="white"/>
<path d="M924.209 -43.351C924.209 -47.4329 927.52 -50.7419 931.604 -50.7419C935.689 -50.7419 939 -47.4329 939 -43.351V-20.4437C939 -16.3618 935.689 -13.0528 931.604 -13.0528C927.52 -13.0528 924.209 -16.3618 924.209 -20.4437V-43.351Z" fill="white"/>
<path d="M924.209 -71.0636C924.209 -75.1455 927.52 -78.4545 931.604 -78.4545C935.689 -78.4545 939 -75.1455 939 -71.0636V-66.4467C939 -62.3648 935.689 -59.0557 931.604 -59.0557C927.52 -59.0557 924.209 -62.3648 924.209 -66.4467V-71.0636Z" fill="white"/>
<path d="M924.209 -122.609C924.209 -126.691 927.52 -130 931.604 -130C935.689 -130 939 -126.691 939 -122.609V-94.1593C939 -90.0774 935.689 -86.7683 931.604 -86.7683C927.52 -86.7683 924.209 -90.0774 924.209 -94.1593V-122.609Z" fill="white"/>
<path d="M891.116 35.9071C891.116 31.8252 894.427 28.5161 898.511 28.5161C902.596 28.5161 905.907 31.8252 905.907 35.9071V48.5803C905.907 52.6622 902.596 55.9712 898.511 55.9712C894.427 55.9712 891.116 52.6622 891.116 48.5803V35.9071Z" fill="white"/>
<path d="M891.116 -0.119308C891.116 -4.20123 894.427 -7.51026 898.511 -7.51026C902.596 -7.51026 905.907 -4.20123 905.907 -0.119308V12.8114C905.907 16.8933 902.596 20.2023 898.511 20.2023C894.427 20.2023 891.116 16.8933 891.116 12.8114V-0.119308Z" fill="white"/>
<path d="M891.116 -22.7522C891.116 -26.5785 894.22 -29.6804 898.048 -29.6804H898.975C902.803 -29.6804 905.907 -26.5785 905.907 -22.7522C905.907 -18.9259 902.803 -15.824 898.975 -15.824H898.048C894.22 -15.824 891.116 -18.9259 891.116 -22.7522Z" fill="white"/>
<path d="M891.116 -67.1838C891.116 -71.2657 894.427 -74.5748 898.511 -74.5748C902.596 -74.5748 905.907 -71.2657 905.907 -67.1838V-45.3851C905.907 -41.3032 902.596 -37.9941 898.511 -37.9941C894.427 -37.9941 891.116 -41.3032 891.116 -45.3851V-67.1838Z" fill="white"/>
<path d="M891.116 -94.8964C891.116 -98.9783 894.427 -102.287 898.511 -102.287C902.596 -102.287 905.907 -98.9783 905.907 -94.8964V-90.2795C905.907 -86.1976 902.596 -82.8886 898.511 -82.8886C894.427 -82.8886 891.116 -86.1976 891.116 -90.2795V-94.8964Z" fill="white"/>
<path d="M891.116 -122.609C891.116 -126.691 894.427 -130 898.511 -130C902.596 -130 905.907 -126.691 905.907 -122.609V-117.992C905.907 -113.91 902.596 -110.601 898.511 -110.601C894.427 -110.601 891.116 -113.91 891.116 -117.992V-122.609Z" fill="white"/>
<path d="M858.023 -0.673569C858.023 -4.75548 861.334 -8.06451 865.418 -8.06451C869.503 -8.06451 872.814 -4.75548 872.814 -0.673569V21.1252C872.814 25.2071 869.503 28.5161 865.418 28.5161C861.334 28.5161 858.023 25.2071 858.023 21.1252V-0.673569Z" fill="white"/>
<path d="M858.023 -28.3862C858.023 -32.4681 861.334 -35.7771 865.418 -35.7771C869.503 -35.7771 872.814 -32.4681 872.814 -28.3862V-23.7693C872.814 -19.6873 869.503 -16.3783 865.418 -16.3783C861.334 -16.3783 858.023 -19.6873 858.023 -23.7693V-28.3862Z" fill="white"/>
<path d="M858.023 -51.0191C858.023 -54.8454 861.127 -57.9472 864.955 -57.9472H865.882C869.71 -57.9472 872.814 -54.8454 872.814 -51.0191C872.814 -47.1927 869.71 -44.0909 865.882 -44.0909H864.955C861.127 -44.0909 858.023 -47.1927 858.023 -51.0191Z" fill="white"/>
<path d="M858.023 -86.5827C858.023 -90.6646 861.334 -93.9736 865.418 -93.9736C869.503 -93.9736 872.814 -90.6646 872.814 -86.5827V-73.6519C872.814 -69.57 869.503 -66.261 865.418 -66.261C861.334 -66.261 858.023 -69.57 858.023 -73.6519V-86.5827Z" fill="white"/>
<path d="M858.023 -122.609C858.023 -126.691 861.334 -130 865.418 -130C869.503 -130 872.814 -126.691 872.814 -122.609V-109.678C872.814 -105.596 869.503 -102.287 865.418 -102.287C861.334 -102.287 858.023 -105.596 858.023 -109.678V-122.609Z" fill="white"/>
<path d="M824.93 -16.2056C824.93 -20.2875 828.241 -23.5965 832.325 -23.5965C836.41 -23.5965 839.721 -20.2875 839.721 -16.2056V-7.89882C839.721 -3.81691 836.41 -0.507874 832.325 -0.507874C828.241 -0.507874 824.93 -3.81692 824.93 -7.89883V-16.2056Z" fill="white"/>
<path d="M824.93 -62.7498C824.93 -66.8317 828.241 -70.1408 832.325 -70.1408C836.41 -70.1408 839.721 -66.8317 839.721 -62.7498V-39.3013C839.721 -35.2193 836.41 -31.9103 832.325 -31.9103C828.241 -31.9103 824.93 -35.2193 824.93 -39.3013V-62.7498Z" fill="white"/>
<path d="M824.93 -90.4624C824.93 -94.5443 828.241 -97.8534 832.325 -97.8534C836.41 -97.8534 839.721 -94.5443 839.721 -90.4624V-85.8455C839.721 -81.7636 836.41 -78.4545 832.325 -78.4545C828.241 -78.4545 824.93 -81.7636 824.93 -85.8455V-90.4624Z" fill="white"/>
<path d="M824.93 -122.609C824.93 -126.691 828.241 -130 832.325 -130C836.41 -130 839.721 -126.691 839.721 -122.609V-113.558C839.721 -109.476 836.41 -106.167 832.325 -106.167C828.241 -106.167 824.93 -109.476 824.93 -113.558V-122.609Z" fill="white"/>
<path d="M791.837 -11.2043C791.837 -15.2863 795.148 -18.5953 799.232 -18.5953C803.317 -18.5953 806.628 -15.2863 806.628 -11.2043V-6.58743C806.628 -2.50552 803.317 0.803528 799.232 0.803528C795.148 0.803528 791.837 -2.50552 791.837 -6.58743V-11.2043Z" fill="white"/>
<path d="M791.837 -43.351C791.837 -47.4329 795.148 -50.7419 799.232 -50.7419C803.317 -50.7419 806.628 -47.4329 806.628 -43.351V-34.3C806.628 -30.2181 803.317 -26.9091 799.232 -26.9091C795.148 -26.9091 791.837 -30.2181 791.837 -34.3V-43.351Z" fill="white"/>
<path d="M791.837 -71.0636C791.837 -75.1455 795.148 -78.4545 799.232 -78.4545C803.317 -78.4545 806.628 -75.1455 806.628 -71.0636V-66.4467C806.628 -62.3648 803.317 -59.0557 799.232 -59.0557C795.148 -59.0557 791.837 -62.3648 791.837 -66.4467V-71.0636Z" fill="white"/>
<path d="M791.837 -122.609C791.837 -126.691 795.148 -130 799.232 -130C803.317 -130 806.628 -126.691 806.628 -122.609V-94.1593C806.628 -90.0774 803.317 -86.7683 799.232 -86.7683C795.148 -86.7683 791.837 -90.0774 791.837 -94.1593V-122.609Z" fill="white"/>
<path d="M758.744 5.42322C758.744 1.34131 762.055 -1.96774 766.139 -1.96774C770.224 -1.96774 773.535 1.34131 773.535 5.42322V15.9166C773.535 19.9986 770.224 23.3076 766.139 23.3076C762.055 23.3076 758.744 19.9986 758.744 15.9166V5.42322Z" fill="white"/>
<path d="M758.744 -22.2894C758.744 -26.3713 762.055 -29.6804 766.139 -29.6804C770.224 -29.6804 773.535 -26.3713 773.535 -22.2894V-17.6725C773.535 -13.5906 770.224 -10.2815 766.139 -10.2815C762.055 -10.2815 758.744 -13.5906 758.744 -17.6725V-22.2894Z" fill="white"/>
<path d="M758.744 -67.1838C758.744 -71.2657 762.055 -74.5748 766.139 -74.5748C770.224 -74.5748 773.535 -71.2657 773.535 -67.1838V-45.3851C773.535 -41.3032 770.224 -37.9941 766.139 -37.9941C762.055 -37.9941 758.744 -41.3032 758.744 -45.3851V-67.1838Z" fill="white"/>
<path d="M758.744 -94.8964C758.744 -98.9783 762.055 -102.287 766.139 -102.287C770.224 -102.287 773.535 -98.9783 773.535 -94.8964V-90.2795C773.535 -86.1976 770.224 -82.8886 766.139 -82.8886C762.055 -82.8886 758.744 -86.1976 758.744 -90.2795V-94.8964Z" fill="white"/>
<path d="M758.744 -122.609C758.744 -126.691 762.055 -130 766.139 -130C770.224 -130 773.535 -126.691 773.535 -122.609V-117.992C773.535 -113.91 770.224 -110.601 766.139 -110.601C762.055 -110.601 758.744 -113.91 758.744 -117.992V-122.609Z" fill="white"/>
<path d="M725.651 28.6888C725.651 24.6069 728.962 21.2979 733.046 21.2979C737.131 21.2979 740.442 24.6069 740.442 28.6889V36.9956C740.442 41.0775 737.131 44.3866 733.046 44.3866C728.962 44.3866 725.651 41.0775 725.651 36.9956V28.6888Z" fill="white"/>
<path d="M725.651 -17.8554C725.651 -21.9373 728.962 -25.2463 733.046 -25.2463C737.131 -25.2463 740.442 -21.9373 740.442 -17.8554V5.59317C740.442 9.67508 737.131 12.9841 733.046 12.9841C728.962 12.9841 725.651 9.67508 725.651 5.59317V-17.8554Z" fill="white"/>
<path d="M725.651 -45.568C725.651 -49.6499 728.962 -52.9589 733.046 -52.9589C737.131 -52.9589 740.442 -49.6499 740.442 -45.568V-40.9511C740.442 -36.8692 737.131 -33.5601 733.046 -33.5601C728.962 -33.5601 725.651 -36.8692 725.651 -40.9511V-45.568Z" fill="white"/>
<path d="M725.651 -90.4624C725.651 -94.5443 728.962 -97.8534 733.046 -97.8534C737.131 -97.8534 740.442 -94.5443 740.442 -90.4624V-68.6637C740.442 -64.5818 737.131 -61.2727 733.046 -61.2727C728.962 -61.2727 725.651 -64.5818 725.651 -68.6637V-90.4624Z" fill="white"/>
<path d="M725.651 -122.609C725.651 -126.691 728.962 -130 733.046 -130C737.131 -130 740.442 -126.691 740.442 -122.609V-113.558C740.442 -109.476 737.131 -106.167 733.046 -106.167C728.962 -106.167 725.651 -109.476 725.651 -113.558V-122.609Z" fill="white"/>
<path d="M692.558 44.2209C692.558 40.1389 695.869 36.8299 699.953 36.8299C704.038 36.8299 707.349 40.1389 707.349 44.2209V47.5125C707.349 51.5944 704.038 54.9035 699.953 54.9035C695.869 54.9035 692.558 51.5945 692.558 47.5125V44.2209Z" fill="white"/>
<path d="M692.558 -0.673569C692.558 -4.75548 695.869 -8.06452 699.953 -8.06452C704.038 -8.06452 707.349 -4.75548 707.349 -0.673569V21.1252C707.349 25.2071 704.038 28.5161 699.953 28.5161C695.869 28.5161 692.558 25.2071 692.558 21.1252V-0.673569Z" fill="white"/>
<path d="M692.558 -28.3862C692.558 -32.4681 695.869 -35.7771 699.953 -35.7771C704.038 -35.7771 707.349 -32.4681 707.349 -28.3862V-23.7693C707.349 -19.6874 704.038 -16.3783 699.953 -16.3783C695.869 -16.3783 692.558 -19.6874 692.558 -23.7693V-28.3862Z" fill="white"/>
<path d="M692.558 -51.0191C692.558 -54.8454 695.662 -57.9472 699.49 -57.9472H700.417C704.245 -57.9472 707.349 -54.8454 707.349 -51.0191C707.349 -47.1928 704.245 -44.0909 700.417 -44.0909H699.49C695.662 -44.0909 692.558 -47.1928 692.558 -51.0191Z" fill="white"/>
<path d="M692.558 -86.5827C692.558 -90.6646 695.869 -93.9736 699.953 -93.9736C704.038 -93.9736 707.349 -90.6646 707.349 -86.5827V-73.6519C707.349 -69.57 704.038 -66.261 699.953 -66.261C695.869 -66.261 692.558 -69.57 692.558 -73.6519V-86.5827Z" fill="white"/>
<path d="M692.558 -122.609C692.558 -126.691 695.869 -130 699.953 -130C704.038 -130 707.349 -126.691 707.349 -122.609V-109.678C707.349 -105.596 704.038 -102.287 699.953 -102.287C695.869 -102.287 692.558 -105.596 692.558 -109.678V-122.609Z" fill="white"/>
<path d="M659.465 28.6888C659.465 24.6069 662.776 21.2979 666.86 21.2979C670.945 21.2979 674.256 24.6069 674.256 28.6889V36.9956C674.256 41.0775 670.945 44.3866 666.86 44.3866C662.776 44.3866 659.465 41.0775 659.465 36.9956V28.6888Z" fill="white"/>
<path d="M659.465 -17.8554C659.465 -21.9373 662.776 -25.2463 666.86 -25.2463C670.945 -25.2463 674.256 -21.9373 674.256 -17.8554V5.59317C674.256 9.67508 670.945 12.9841 666.86 12.9841C662.776 12.9841 659.465 9.67508 659.465 5.59317V-17.8554Z" fill="white"/>
<path d="M659.465 -45.568C659.465 -49.6499 662.776 -52.9589 666.86 -52.9589C670.945 -52.9589 674.256 -49.6499 674.256 -45.568V-40.9511C674.256 -36.8692 670.945 -33.5601 666.86 -33.5601C662.776 -33.5601 659.465 -36.8692 659.465 -40.9511V-45.568Z" fill="white"/>
<path d="M659.465 -90.4624C659.465 -94.5443 662.776 -97.8534 666.86 -97.8534C670.945 -97.8534 674.256 -94.5443 674.256 -90.4624V-68.6637C674.256 -64.5818 670.945 -61.2727 666.86 -61.2727C662.776 -61.2727 659.465 -64.5818 659.465 -68.6637V-90.4624Z" fill="white"/>
<path d="M659.465 -122.609C659.465 -126.691 662.776 -130 666.86 -130C670.945 -130 674.256 -126.691 674.256 -122.609V-113.558C674.256 -109.476 670.945 -106.167 666.86 -106.167C662.776 -106.167 659.465 -109.476 659.465 -113.558V-122.609Z" fill="white"/>
<path d="M626.372 38.6783C626.372 34.5964 629.683 31.2874 633.768 31.2874C637.852 31.2874 641.163 34.5964 641.163 38.6783V51.6091C641.163 55.691 637.852 59 633.768 59C629.683 59 626.372 55.691 626.372 51.6091V38.6783Z" fill="white"/>
<path d="M626.372 16.0455C626.372 12.2191 629.476 9.11731 633.304 9.11731H634.231C638.059 9.11731 641.163 12.2191 641.163 16.0455C641.163 19.8718 638.059 22.9736 634.231 22.9736H633.304C629.476 22.9736 626.372 19.8718 626.372 16.0455Z" fill="white"/>
<path d="M626.372 -11.2043C626.372 -15.2863 629.683 -18.5953 633.768 -18.5953C637.852 -18.5953 641.163 -15.2863 641.163 -11.2043V-6.58743C641.163 -2.50552 637.852 0.803528 633.768 0.803528C629.683 0.803528 626.372 -2.50552 626.372 -6.58743V-11.2043Z" fill="white"/>
<path d="M626.372 -43.351C626.372 -47.4329 629.683 -50.7419 633.768 -50.7419C637.852 -50.7419 641.163 -47.4329 641.163 -43.351V-34.3C641.163 -30.2181 637.852 -26.9091 633.768 -26.9091C629.683 -26.9091 626.372 -30.2181 626.372 -34.3V-43.351Z" fill="white"/>
<path d="M626.372 -71.0636C626.372 -75.1455 629.683 -78.4545 633.768 -78.4545C637.852 -78.4545 641.163 -75.1455 641.163 -71.0636V-66.4467C641.163 -62.3648 637.852 -59.0557 633.768 -59.0557C629.683 -59.0557 626.372 -62.3648 626.372 -66.4467V-71.0636Z" fill="white"/>
<path d="M626.372 -122.609C626.372 -126.691 629.683 -130 633.768 -130C637.852 -130 641.163 -126.691 641.163 -122.609V-94.1593C641.163 -90.0774 637.852 -86.7683 633.768 -86.7683C629.683 -86.7683 626.372 -90.0774 626.372 -94.1593V-122.609Z" fill="white"/>
<path d="M593.279 39.0123C593.279 34.9304 596.59 31.6214 600.675 31.6214C604.759 31.6214 608.07 34.9304 608.07 39.0123V47.3191C608.07 51.401 604.759 54.71 600.675 54.71C596.59 54.71 593.279 51.401 593.279 47.3191V39.0123Z" fill="white"/>
<path d="M593.279 5.42322C593.279 1.34131 596.59 -1.96774 600.675 -1.96774C604.759 -1.96774 608.07 1.34129 608.07 5.4232V15.9166C608.07 19.9985 604.759 23.3076 600.675 23.3076C596.59 23.3076 593.279 19.9986 593.279 15.9166V5.42322Z" fill="white"/>
<path d="M593.279 -22.2894C593.279 -26.3713 596.59 -29.6804 600.675 -29.6804C604.759 -29.6804 608.07 -26.3713 608.07 -22.2894V-17.6725C608.07 -13.5906 604.759 -10.2815 600.675 -10.2815C596.59 -10.2815 593.279 -13.5906 593.279 -17.6725V-22.2894Z" fill="white"/>
<path d="M593.279 -67.1838C593.279 -71.2657 596.59 -74.5748 600.675 -74.5748C604.759 -74.5748 608.07 -71.2657 608.07 -67.1838V-45.3851C608.07 -41.3032 604.759 -37.9941 600.675 -37.9941C596.59 -37.9941 593.279 -41.3032 593.279 -45.3851V-67.1838Z" fill="white"/>
<path d="M593.279 -94.8964C593.279 -98.9783 596.59 -102.287 600.675 -102.287C604.759 -102.287 608.07 -98.9783 608.07 -94.8964V-90.2795C608.07 -86.1976 604.759 -82.8886 600.675 -82.8886C596.59 -82.8886 593.279 -86.1976 593.279 -90.2795V-94.8964Z" fill="white"/>
<path d="M593.279 -122.609C593.279 -126.691 596.59 -130 600.675 -130C604.759 -130 608.07 -126.691 608.07 -122.609V-117.992C608.07 -113.91 604.759 -110.601 600.675 -110.601C596.59 -110.601 593.279 -113.91 593.279 -117.992V-122.609Z" fill="white"/>
<path d="M560.186 5.42322C560.186 1.34131 563.497 -1.96774 567.582 -1.96774C571.666 -1.96774 574.977 1.34131 574.977 5.42322V15.9166C574.977 19.9986 571.666 23.3076 567.582 23.3076C563.497 23.3076 560.186 19.9986 560.186 15.9166V5.42322Z" fill="white"/>
<path d="M560.186 -22.2894C560.186 -26.3713 563.497 -29.6804 567.582 -29.6804C571.666 -29.6804 574.977 -26.3713 574.977 -22.2894V-17.6725C574.977 -13.5906 571.666 -10.2815 567.582 -10.2815C563.497 -10.2815 560.186 -13.5906 560.186 -17.6725V-22.2894Z" fill="white"/>
<path d="M560.186 -67.1838C560.186 -71.2657 563.497 -74.5748 567.582 -74.5748C571.666 -74.5748 574.977 -71.2657 574.977 -67.1838V-45.3851C574.977 -41.3032 571.666 -37.9941 567.582 -37.9941C563.497 -37.9941 560.186 -41.3032 560.186 -45.3851V-67.1838Z" fill="white"/>
<path d="M560.186 -94.8964C560.186 -98.9783 563.497 -102.287 567.582 -102.287C571.666 -102.287 574.977 -98.9783 574.977 -94.8964V-90.2795C574.977 -86.1976 571.666 -82.8886 567.582 -82.8886C563.497 -82.8886 560.186 -86.1976 560.186 -90.2795V-94.8964Z" fill="white"/>
<path d="M560.186 -122.609C560.186 -126.691 563.497 -130 567.582 -130C571.666 -130 574.977 -126.691 574.977 -122.609V-117.992C574.977 -113.91 571.666 -110.601 567.582 -110.601C563.497 -110.601 560.186 -113.91 560.186 -117.992V-122.609Z" fill="white"/>
<path d="M527.093 2.65196C527.093 -1.42996 530.404 -4.739 534.489 -4.739C538.573 -4.739 541.884 -1.42996 541.884 2.65196V7.26888C541.884 11.3508 538.573 14.6598 534.489 14.6598C530.404 14.6598 527.093 11.3508 527.093 7.26888V2.65196Z" fill="white"/>
<path d="M527.093 -43.351C527.093 -47.4329 530.404 -50.7419 534.489 -50.7419C538.573 -50.7419 541.884 -47.4329 541.884 -43.351V-20.4437C541.884 -16.3618 538.573 -13.0528 534.489 -13.0528C530.404 -13.0528 527.093 -16.3618 527.093 -20.4437V-43.351Z" fill="white"/>
<path d="M527.093 -71.0636C527.093 -75.1455 530.404 -78.4545 534.489 -78.4545C538.573 -78.4545 541.884 -75.1455 541.884 -71.0636V-66.4467C541.884 -62.3648 538.573 -59.0557 534.489 -59.0557C530.404 -59.0557 527.093 -62.3648 527.093 -66.4467V-71.0636Z" fill="white"/>
<path d="M527.093 -122.609C527.093 -126.691 530.404 -130 534.489 -130C538.573 -130 541.884 -126.691 541.884 -122.609V-94.1593C541.884 -90.0774 538.573 -86.7683 534.489 -86.7683C530.404 -86.7683 527.093 -90.0774 527.093 -94.1593V-122.609Z" fill="white"/>
<path d="M494 8.27228C494 4.19037 497.311 0.881332 501.396 0.881332C505.48 0.881332 508.791 4.19037 508.791 8.27228V11.8496C508.791 15.9315 505.48 19.2406 501.396 19.2406C497.311 19.2406 494 15.9315 494 11.8496V8.27228Z" fill="white"/>
<path d="M494 -14.3606C494 -18.1869 497.104 -21.2888 500.932 -21.2888H501.859C505.687 -21.2888 508.791 -18.1869 508.791 -14.3606C508.791 -10.5343 505.687 -7.43246 501.859 -7.43246H500.933C497.104 -7.43246 494 -10.5343 494 -14.3606Z" fill="white"/>
<path d="M494 -44.439C494 -48.521 497.311 -51.83 501.396 -51.83C505.48 -51.83 508.791 -48.5209 508.791 -44.439V-36.9935C508.791 -32.9116 505.48 -29.6025 501.396 -29.6025C497.311 -29.6025 494 -32.9116 494 -36.9935V-44.439Z" fill="white"/>
<path d="M494 -80.0333C494 -84.1152 497.311 -87.4242 501.396 -87.4242C505.48 -87.4242 508.791 -84.1152 508.791 -80.0333V-67.5347C508.791 -63.4528 505.48 -60.1438 501.396 -60.1438C497.311 -60.1438 494 -63.4528 494 -67.5347V-80.0333Z" fill="white"/>
<path d="M494 -122.609C494 -126.691 497.311 -130 501.396 -130C505.48 -130 508.791 -126.691 508.791 -122.609V-103.129C508.791 -99.047 505.48 -95.738 501.396 -95.738C497.311 -95.738 494 -99.0471 494 -103.129V-122.609Z" fill="white"/>
</g>
</g>
<defs>
<linearGradient id="paint0_linear_1026_568" x1="717.5" y1="-18.7259" x2="717.5" y2="421.974" gradientUnits="userSpaceOnUse">
<stop stop-color="#0DD3FF"/>
<stop offset="1" stop-color="#000744"/>
</linearGradient>
<radialGradient id="paint1_radial_1026_568" cx="0" cy="0" r="1" gradientUnits="userSpaceOnUse" gradientTransform="translate(1759.87 41.625) rotate(168.85) scale(983.197 403.393)">
<stop stop-color="#EA6CFF" stop-opacity="0.9"/>
<stop offset="1" stop-color="#EB6FFF" stop-opacity="0"/>
</radialGradient>
<clipPath id="clip0_1026_568">
<rect width="1435" height="450" fill="white"/>
</clipPath>
</defs>
</svg>
